<mxfile host="65bd71144e">
    <diagram id="MYiZ2zFfSOQcDgGf57KZ" name="Page-1">
        <mxGraphModel dx="2024" dy="787" grid="1" gridSize="10" guides="1" tooltips="1" connect="1" arrows="1" fold="1" page="1" pageScale="1" pageWidth="850" pageHeight="1100" math="0" shadow="0">
            <root>
                <mxCell id="0"/>
                <mxCell id="1" parent="0"/>
                <mxCell id="10" value="" style="rounded=0;whiteSpace=wrap;html=1;strokeColor=none;fillColor=#6E6259;opacity=50;" vertex="1" parent="1">
                    <mxGeometry x="540" y="270" width="347.2" height="190" as="geometry"/>
                </mxCell>
                <mxCell id="11" value="" style="ellipse;whiteSpace=wrap;html=1;aspect=fixed;strokeColor=#6E6259;fillColor=#70A489;opacity=50;" vertex="1" parent="1">
                    <mxGeometry x="547.2" y="278" width="177" height="177" as="geometry"/>
                </mxCell>
                <mxCell id="2" value="" style="shape=image;imageAspect=0;aspect=fixed;verticalLabelPosition=bottom;verticalAlign=top;image=data:image/png,iVBORw0KGgoAAAANSUhEUgAABOkAAAJACAYAAADYYjJuAAAAAXNSR0IArs4c6QAAAARnQU1BAACxjwv8YQUAAAAJcEhZcwAAMsAAADLAAShkWtsAAP+lSURBVHhe7J0HnFPF+oZle3azvbAsvYPSu43epCuCYKUoKlhBxfZHmlhRURRRQEVRQREU4aKASlNAQKRXpSMdpIjtfv95vz1ZV5Kj4bruSTbvc+/7CyAbksnMnDNPppxH8g4RiTAp89///vdN80gIIYQQkq+Ye5Bffv/990Xm8Rrr9oQQQgghhJDQw9wbU9IRQgghxDEo6QghhBBCCDGYe2NKOkIIIYQ4BiUdIYQQQgghBnNvTElHCCGEEMegpCOEEEIIIcRg7o0p6QghhBDiGJR0hBBCCCGEGMy9MSUdIYQQQhyDko4QQgghhBCDuTempCOEEEKIY1DSEUIIIYQQYjD3xpR0hBBCCHEMSjpCCCGEEEIM5t6Yko4QQgghjkFJRwghhBBCiMHcG1PSEUIIIcQxKOkIIYQQQggxmHtjSjpCCCGEOAYlHSGEEEIIIQZzb0xJRwghhBDHoKQjhBBCCCHEYO6NKekIIYQQ4hiUdIQQQgghhBjMvTElHSGEEEIcg5KOEEIIIYQQg7k3pqQjhBBCiGNQ0hFCCCGEEGIw98aUdIQQQghxDEo6QgghhBBCDObemJKOEEIIIY5BSUcIIYQQQojB3BtT0hFCCCHEMSjpCCGEEEIIMZh7Y0o6QgghhDgGJR0hhBBCCCEGc29MSUcIIYQQx6CkI4QQQgghxGDujSnpCCGEEOIYlHSEEEIIIYQYzL0xJR0hhBBCHIOSjhBCCCGEEIO5N6akI4QQQohjUNIRQgghhBBiMPfGlHSEEEIIcQxKOkIIIYQQQgzm3piSjhBCCCGOQUlHCCGEEEKIwdwbU9IRQgghxDEo6QghhBBCCDGYe2NKOkIIIYQ4BiUdIYQQQgghBnNvTElHCCGEEMegpCOEEEIIIcRg7o0p6QghhBDiGJR0hBBCCCGEGMy9MSUdIYQQQhyDko4QQgghhBCDuTempCOEEEKIY1DSEUIIIYQQYjD3xpR0hBBCCHEMSjpCCCGEEEIM5t6Yko4QQgghjkFJRwghhBBCiMHcG1PSEUIIIcQxKOkIIYQQQggxmHtjSjpCCCGEOAYlHSGEEEIIIQZzb0xJRwghhBDHoKQjhBBCCCHEYO6NKekIIYQQ4hiUdIQQQgghhBjMvTElHSGEEEIcg5KOEEIIIYQQg7k3pqQjhBBCiGNQ0hFCCCGEEGIw98aUdIQQQghxDEo6QgghhBBCDObemJKOEEIIIY5BSUcIIYQQQojB3BtT0hFCCCHEMSjpCCGEEEIIMZh7Y0o6QgghhDgGJR0hhBBCCCEGc29MSUcIIYQQx6CkI4QQQgghxGDujSnpCCGEEOIYlHSEEEIIIYQYzL0xJR0hhBBCHIOSjhBCCCGEEIO5N6akI4QQQohjUNIRQgghhBBiMPfGlHSEEEIIcQxKOkIIIYQQQgzm3piSjhBCCCGOQUlHCCGEEEKIwdwbU9IRQgghxDEo6QghhBBCCDGYe2NKOkIIIYQ4BiUdIYQQQgghBnNvTElHCCGEEMegpCOEEEIIIcRg7o0p6QghhBDiGJR0hBBCCCGEGMy9MSUdIYQQQhyDko4QQgghhBCDuTempCOEEEKIY1DSEUIIIYQQYjD3xpR0hBBCCHEMSjpCCCGEEEIM5t6Yko4QQgghjkFJRwghhBBCiMHcG1PSEUIIIcQxKOkIIYQQQggxmHtjSjpCCCGEOAYlHSGEEEIIIQZzb0xJRwghhBDHoKQjhBBCCCHEYO6NKekIIYQQ4hiUdIQQQgghhBjMvTElHSGEEEIcg5KOEEIIIYQQg7k3pqQjhBBCiGNQ0hHiH1aTISRP+PLLL+XSSy+VqKgoKVSokKCKMQzDIMWKFZOrrrpKPvjgA9ynWb2GPeZnSF5hypOSjhBCCCGOQUlHiH9YTYaQPIGSjmEYu1DSOYgpT0o6QgghhDgGJR0h/mE1GULyBEo6hmHsQknnIKY8KekIIYQQ4hiUdIT4h9VkCMkTKOkYhrELJZ2DmPKkpCM+QWNkGIaxCyF5halPlHSE+IHVZAjJEyjpGIaxCyWdg5jypKQjPkFj/OnMT3Lq1CnN6dOnGYYJ4Zw6nd0PoD84c+aM/P7771Zv8Qf+XMQJORtTbyjpCPEDq8kQkidQ0jEMYxdKOgcx5UlJR3JAA8TA+5dffpHjx4/Lrt275Lvvv5Nt322T7du3MwwTovl++/c5QZ+wZ88e7SN+/fVXq/fI7j88IeRcMHWGko4QP7CaDCF5AiUdwzB2oaRzEFOelHREQePD7JjDhw/Ltm3bZNmyZfKf2f+RadOnyQfTPpAPP/pQPvroI31kGCZ0M/3D6fLpp5/KihUrVNadPHlSZZ0/F3BCfGHqDiUdIX5gNRlC8gRKOoZh7EJJ5yCmPCnpiPLbb7/pgPs///mPPPPsM3L3gP7Sp08f6dmzp/To2UN69e7FMAwjPXr0kFtvvVUeeeQRmfDaBFm0aJH88MMPf5pVR8i5QElHiH9YTYaQPIGSjmEYu1DSOYgpT0o6omCfKcyeu3fgfVL/ogslo0imFC5cWDIyMvSRYZgQT6bpDwpnSFp6mmRlZckFF1wgbdu1lUdHPCrLly/XGXWE/C9Q0hHiH1aTISRPoKRjGMYulHQOYsqTki7E+a/538+//Cx79u7RZa2drrhcMotkauMMDw+X8IgITYTPRDIMUyDjq72jP8hOWHiYREdHS7HixeTqa66W6dOny/79+7P7FC57JecIJR0h/mE1GULyBEo6hmHsQknnIKY8KelCnN9+/02OHj0q36z6Rka/OFoaNmok8fHx2jgjIiMkOiZGYmJdEu2KYRiGEZfpDyDu0UdA1DUyfcZLL70kmzZt0kNnfvdx6ishfwUlHSH+YTUZQvIESjqGYexCSecgpjwp6UIc7CO1d+9emTtvngwZOlQaNGiQI+kSkhIlNSNN0rHELSM9J6npaZKSniopaQzDFOSgrafmavtIRmZh7Rswmy48LExq16oljz76qHz99dfy448/cm86cs5Q0hHiH1aTISRPoKRjGMYulHQOYsqTki7EwcyX3Xt2yyeffiL/N+j/pG69uuJ2u7VxJiYnqaDLKFJYHz2yDoP3xJRkiTcDdU8SzN9lGCa4k7tNo40nm7aONp+eafoAK4WLZGrfEIZlr2FhUrNmTRk6dKgsXbpUjh07RklHzhlKOkL8w2oyhOQJX331lc6Gx6x4SjqGYXKHks5BTHlS0oU4Hkk3+5PZ8vD/Pey/pDP/zZ2YoIlHcg3uGYYJxmS355x2bf4sKTXFW9JlFcmRdNi3slatWjJs2DA9eOb48eN6UjQh5wIlHSH+YTUZQvIEnM5ev379Pw3MGYZhEEo6BzHlSUkX4uSWdJhJV69+PXHHnyXpMDi3JJ2KOs2fl8AxDFMwguWtZwdt3tP+PTPpPAfK1KlTR0aMGJGz3JV70pFzhZKOEP+wmgwhecK8efOkVKlSfxqYMwwTvMnLGbGUdA5iypOSLsSBpNuzZ0/Octf69etJfC5Jh0F7bkmXmVVEipcsIeUqlJfKF1Q2OT8755tfMwwTpEEbttqySSXzZ2XLl5OiJYprH+DZn87TH2BPutySLveedJR05FyhpCPEP6wmQ0iegOWuzZo1k8zMTClXrpymfPnyDMMEQSpUqCBly5aVrKwsSUw09+Xh4X+SbP80lHQOYsqTki7E+fWXX3Mk3SCVdPUlPtdy15zN402KFM2SCpUqyoUXXySXd75cevbqKb1vulF69e6tv2YYJljTS9Ordy/pfWNv6WH+rNMVl0u9BvW13aMfSE5N0X6Ako7kNZR0hPiH1WQIyRN2794tb775pjzzzDPywgsvMAwTJBk9erS88sor2nb79u0rDRs2zDn4Ma9CSecgpjwp6UIc75l0kHTZjRySLiklWQfkCSmJUqJ0Sbnokot1MD9y5EiZPGWyTJs+TaZOnSrvTXlP3nuPYZhgzvsmH3wwVaaYx6efGSndr7laypQrq5IO/QBEHWbUUtKRvISSjhD/sJoMIXnCqVOn5LvvvpP169fLxo0bGYYJkmzatEm2b98u33zzjYwfP16uv/56SUtL+5Nk+6ehpHMQU56UdCGOraQrdF6OoIt1x0lcgluXuHbo1FEee+wx3Wz24MGDepojcuTIEYZhCkAg2o4ePSpffvmlPDxokFxQtYqkpKfpYRIQ99ijDofFhEf+eU+65cuX68/y4AhyrlDSEeIfVpMhJE/AwBvjgJ9//plhmCAK2i04fPiwzJ49W+68804pXLiwl2j7J6GkcxBTnpR0IY69pCukkg4nPsbEuSQ2Pk6Xunbp2lWn2eJbN0JIwWXjpo3y+JNPSLUa1XWZa1xCvCRA0plfq6SzZtLVrVtXnnjiCfn222/l9OnTfl3ICcmNqTOUdIT4gdVkCCGEEPnpp5/ks88+kwEDBujekrhM5FUo6RzElCclXYjjj6RzuWNV0pWvVFE6d7lSnhs1Sr5dvVp+tSw+IaRggYvxmrVr5dHHH8uWdBnpfynpnnrqKVlr/v6ZM2dylrviOf5pSGhgPmtKOkL8wGoyhBBCiK5g+c9//iO33347Z9IVJEx5UtKFOH8n6RKSE3MkXYWKFaXzlVfqJpWrVq3S6baEkIIHLsYQ8cMffdRb0mG5K/aks5a71q5dW/ekW7ZsmU67P3nypH6zh1l12O/mXIOfxyOeg0tnQwNKOkL8w2oyhBBCiBw/fpySriBiypOSLsTxR9JB0OVIus7Zkg4bVVLSEVIwwcV41bffyrBHh/uUdHpwRGSEHvdetWpVGThwoMycOVPWrV8nW7dt1c1sEWxI7W++//57fdy6das+ol86ceIERV0IQElHiH9YTYYQQgjhTLqCiilPSroQx6+ZdPHeM+ko6QgpuOBijD3m7CQdDpCIio7WJa/lypWT62+4Xp597lmZ8t4Umf7hdJkxY4bmo48+8juevz9t2jR9nDd3nqz+drXs3r1bb0J+/fVX69WRggYlHSH+YTUZQgghhJKuoGLKk5IuxKGkI4SczV9JOpz0mpyaIvHm9664WCmSVUTqN6gvHTt1lOuuu0569OwhvXr1kt69e+ujv/H8/R49ekhP83jrrX3lwYcekldefVUWLV4shw4d8usmgQQf5nOlpCPED6wmQwghhFDSFVRMeVLShTiUdISQs8HF2FbSpaXq4RF4RB8BYZdROEOKFS8mpUuVlrJly2oww842ZX38mZWyZcroz1c0/U31GjWkq7lBePGll2T9hg16MIU/NwokuDCfKSUdIX5gNRlCCCGEkq6gYsqTki7EoaQjhJwNLsZ/JenSCqdLemaGpBfO0P3pIqIitc/AZaUQHv1NrpsBT/Tnc/2+fIXyctvtt8nceXPl4MGD2meRggUlHSH+YTUZQgghhJKuoGLKk5IuxKGkI4Sczd9KOvN7CLqMzML6ezeWvsbGisvlyn70N/j7rhiJMYm2HvHn2O+uUFiY3iRgOe2VXTrL+PHjZe2atXpD8vvvv1uvlBQEKOkI8Q+ryRBCCCGUdAUVU56UdCEOJR0h5Gz8lXQIfo0lr4nJpr9ISpLEvwn+Dp4HM/Dwe/QzmtTs4Pnx36KiY/QmIdX8vkXLFvLEk0/IokWLdG86nvhasKCkI8Q/rCZDCCGEUNIVVEx5UtKFOJR0hJCzOVdJhz3qks2fq2jzSDebJOYK5B5+HjPyChfJ1MfMrCL6Z+540w+Zy1RycrI0btxYBg8eLHPmzpH9+/fzpNcCBiUdIf5hNRlCCCGEkq6gYsqTki7EoaQjhJzNuUg6FXSpKfrf4pMSxZ2YoMtf8ff/Kvh7nufD80DQ4RGyDs/pjnfr/nQpKSnSpEkTeWTwIzmS7rdfOZOuIEFJR4h/WE2GEEIIoaQrqJjypKQLcSjpCCFn44+kS8s1iw5/hmA2nV9JTdFHfS7z8x7hl1vSxbnjVNKlpqZKk6ZNZMjQIXp4xP4D++XX3ziTriBBSUeIf1hNhhBCCKGkK6iY8qSkC3Eo6QghZ/N3kg6/T8EMOvNriLViJYpLmXJlpUKlilKxciWpdH5lqXSBCR5tgr+HnylWvJgucU23ZtJ5DqOIdcdpP+SRdMOGD5PPPv9MDhw8QElXwKCkI8Q/rCZDAghcL7EFA+6Jz5w5wzAMk5OffvpJg/E2+oq8hpKugGLKk5IuxKGkI4ScDS7GfyXpkETzayxZzSpeTOrWrydt2rWVrld1le5Xd5err71arr7mmlzB702uvlquvfZaufb66+SqbldJy1Yt9flLliktGUUys2fWQQCmpvwxk878WbPmzeTRRx+VL774Qg4ePMiDIwoYpr5R0hHiB1aTIQEE7oWPHDmi99Lff/+9bNu2Tb777juGYUI46AuQzZs3y6ZNm+TAgQP/yn7KlHQFFFOelHQhDiUdIeRs/lLSpadJknl0xbok2hWjs+euu/56efKpJ2XixInyzjvvyOQpk7Mz+ay8O1nee/89mTp1qv5d7DPXoWNHqWr+Dcymi09M0H4Hcbuz96TLkXQjsiXdoYOHKOkKGJR0hPiH1WRIAHH8+HFZs2aNDmSfeuop/ULpiSeeYBgmhPPkk0/q45AhQ2T48OHy+eef/yvjZkq6AoopT0q6EIeSjhByNn8l6bBfXEJigoRHhGtq16qtNyBfffWVflN47NgxOXHihM/gZuL06dM69f+HH36QmbNmye133CEXX3qJFCmaJdGxMRKX6JYEHEARH/8nSTd8xHDOpCugUNIR4h9WkyEBxL59+2T69OnSq1cvSU9Pl5iYGD2VnGEYJiIiQhITE2XEiBF675vXUNIVUEx5UtKFOJR0hJCz+UtJZ36NGW9h4eESblKvXj0ZOXKkrFu3TvuE33//XX/eLp7nP3nypMxfMF/uHXifNGrSWIoUy5JIV5TEJsRR0oUYpj5Q0hHiB1aTIQEE7qExU7xTp05eg1yGYRjkvvvu0y+p8xpKugKKKU9KuhCHko4Qcja4GP+1pEvMlnQREVKvbl1d4oPlPtgk119OnTolCxYu+JOki3JFm3/Hrf2O2/x7lHShASUdIf5hNRkSQGBW+IcffijXXHONzprBx8QwDJM7//d//8eZdMR/THlS0oU4lHSEkLP5W0mXlKiCDgOSOrVr6x48X3/9td4sYCbd34Hn//HEj/LZF5/L3fcMkEsbN/xD0mG5KyVdSGHqAyUdIX5gNRkSQEDSffTRR3ooEiUdwzC+QklHzglTnpR0IQ4lHSHkbHAx/itJh+WoEZH/TNKdOPGjfP7F59I/l6TDnnTuRPw7lHShhKkPlHSE+IHVZEgAwZl0DMP8XSjpyDlhypOSLsShpCOEnA0uxv5Lujp5IumyihelpAtRTH2gpCPED6wmQwIISjqGYf4ulHTknDDlSUkX4lDSEULOBhfj/JZ0RYpzJl2oYuoDJR0hfmA1GRJAUNIxDPN3oaQj54QpT0q6EIeSjhByNrgYU9KR/MLUB0o6QvzAajIkgKCkYxjm70JJR84JU56UdCEOJR0h5GxwMaakI/mFqQ+UdIT4gdVkSABBSccwzN+Fko6cE6Y8KelCHEo6QsjZ4GJMSUfyC1MfKOkI8QOryZAAgpKOYZi/CyUdOSdMeVLShTiUdISQs8HFOOAknXktlHQFE1MfKOkI8QOryZAAgpKOYZi/CyUdOSdMeVLShTiUdISQs8HFOFAkXVpamjRv3lweHfGofDH/Czl06BAlXQHD1AdKOkL8wGoyJICgpGMY5u9CSUfOCVOelHQhDiUdIeRscDF2XNLFW5Iu9Q9JN3/+fDl8+DAlXQHD1AdKOkL8wGoyJICgpGMY5u9CSUfOCVOelHQhDiUdIeRscDEOBEmHy1RKSoo0a9ZM/w1IuiNHjvh1s0CCB/N5UtIR4gdWkyEBBCTdRx99JNdeey0lHcMwPkNJR84JU56UdCEOJR0h5GxwMXZc0rndepOQnJQsjRo1kkGDBsknn3wie/fu1Rsd9F2nTp3yO6dPn5YzZ87oz2Emnj83HCR/MJ8FJR0hfmA1GRJA7Nu3T6ZOnSpdunT50wCXYZjgDFZx+PrzfxJKOnJOmPKkpAtxKOkIIWeDi7GTki7R9Dvx5t8LCwuTxMREqVu3rvTt21fGjRsnCxculLVr18q6detk5cqVfgX91apVq2T16tWyYcMG2bZtm+zZu0eO/3hcfv7lZwo7hzHlT0lHiB9YTYYEELiHfvfdd6VDhw5eg1yGYYIvlHTZoaRzEFOelHQhDiUdIeRscDHOb0mXVbyoSrq4eLckmn8nJTVF3ObXSebXJUuWlHp160n7du2lZ8+e0q9vP+nXr5/cfPPN55RbbrlF+t12m9z3wP3yzKjnZP6C+bLvh33c485hTH2gpCPED6wmQwII7JO6aNEieeqpp6Rz585y2WWXSadOnRiGCaJ07NhRvxCOiYnxklV5EUo6ck6Y8qSkC3Eo6QghZ4OLsVOSLtYdp31Pmvl3UtPTJDk1RUVdcnKyFM4oLCVKlJDSpUtLmdJlpFSpUv6nZEl9LF2mjJxftYq0vKy1PPf8KFm+fLkcP3ZMfv31V+vVkfzG1AdKOkL8wGoyJIDAtePkyZNy8OBB2blzp+zYsUMfGYYJ/OzatUuzfft2efHFF/NcdHlCSUfOCVOelHQhDiUdIeRscDF2WtKlF86QjCKZkpKeKq64WCkUFuZ1A/E/J6yQFDbPfWOfm2Ty5MmyZcsW83pO+HUTQvIeU+6UdIT4gdVkCCGE5DHTpk2TokWL+r5v/IehpCPnhClPSroQh5IucEAHqJ0g/m/9+o//6R8zARnrf54LmHnI+SyDFLz2gJB0mYV1Rh1+jz3q4sx/c7ljVdqda/C8sXFxEhYerjcfOJiiWfPm8sjgIfLpnDl6Qp8/r53kPaY+UNIR4gdWkyGEEJKHYEbsO++8I0WKFPmTqMqrUNKRc8KUJyVdiENJFzigA8RF4vRPp+XHEz/KsWPH5Nhxkx+Py3HTCTOBGXw++jmZ4GKJZS/4DIN5nzPUxUCQdJ5A1HmSmpGmy2D9CWbhpaRlx/NzMa4YCQsrJC6XS2rWqiW33HqrvP3227pE6XfuTecIpj5Q0hHiB1aTIYQQkofgnp2S7s+hpHMQU56UdCEOJV1ggIvD6dOn5dDhw7J9x3Y9gXL1mtUma2TNurWatevW5fyacT65P4/Va9fo57VuwzrZvGWz7Ny1U44fP+61z5k/F7lAAK8zkCQdgll1WP6KZar+RP9+rnj+PM70ZRFRETorr0rVqnJDjx4yYcIE+e677ziTziFMfaCkI8QPrCZDCCEkD+FMOu9Q0jmIKU9KuhCHks5Z0OnhwnD06FHZunWrLP7yS5kxY4a8bS4Ur7/xhrw+8Q2Z+NabTIDnjTcn6mf11tuT5L2p78nsT2bLmjVr5MCBA9pOIH/8ucAFCnitgSLpPAdIYDYcDpHQmP/+R/B7T/7485TUVP05/LxH8uExLsFt/p1ofQ/VqlenpAsATH2gpCPED6wmQwghJA+hpPMOJZ2DmPKkpAtxKOmcA0IAHTZOBFu6dKm8NuE1ue+++6RPnz5y/Q03yDXXXivXXHetXHf9dSbXMwGaa83nc+111+lnhV/36NlTbrv9Nnn++eflk08+0UMJsHQ5mJa/4mLstKTzzH6DaItPSNBlqpFRkfrvhkeE5wp+70n2n+HvREZF6R50HuGH58Kj27yPmDiXJKYk6XvrQUnnOKY+UNIR4gdWkyGEEJKHUNJ5h5LOQUx5UtKFOJR0zoDODmV/6NAhWbVqlbz40ovStWtXKVWqlHayuEhkZWVJVtGiGpw2xARmPJ9RVtEsyczM1M+vRIkS0rJlSxk4cKBMef99FXX/xsX53wL100lJh1lxHkmHGXGu2FgJDw+XsLAwfcS/i+DXuZP7z3AabGR0lL5Wj6TDrDqPpEtKTZbqNWpIjx49KekcxtQHSjpC/MBqMoQQQvIQSjrvUNI5iClPSroQh5LOGdDZobPetm2bHvl92223SfUa1SUqKkrLHrOCPCKCCa6EhWEmV6QUycqSRo0by30DB8rChQv1QhosoH46JulMX4O+BzPoPMtY082/Wax4MalYqaLUqlVL+6kGJnXr1v0j9epK/Qb1pV7delK9enUpV66cytPUNDwPlr+m6HP+SdLVrKEzHye89holnYOY+kBJR4gfWE2GEEJIHkJJ5x1KOgcx5UlJF+JQ0jkDOjt0rCtWrJCRpjw7dOooxUoUy+kYIXmiY6KzE80ETcznFWUl0vw+01zsW7VqJe+//74cPnzY+vQDH9RPpyQd9oxLNP8OEuNyqWC74ILzpX2H9nLX3XfJyJEj5eUxY+Tll1+WF0a/IC+8YGIeMRt17NixMnr0aBk2bJjcfHMfadq0qRQvXlwPicAMPZz2erak69mzFyWdw5j6QElHiB9YTYYQQkgeQknnHUo6BzHlSUkX4lDSOQcOi/hi/nydadWoSSMpXKSwFCp0nkRER0p8UkL2pvcmqWmpTJAEhxvgc8NjGJZfRkZKpUqVZPz48XqIRLCAi3F+S7oixbNU0kGi4fnj4t3aD6WkpEiTxo3lkUcekU/nfCo//PCD3uicOXNGfjTPcfzH4/p46vQp7c/wGjZt2iRT3psit/a9VSqafsuzlx0+F3divMS4KekCCVMfKOkI8QOryRBCCMlDKOm8Q0nnIKY8KelCHEo658BhAgsXLZKHHn5YmjRtIoUzM7RTLBQeJq64WEk05Y9AjDCBHZ35ZT4rd2KCztiKdsXoZxkZGSlVqlaR115/jZIuF3h+W0mX+GdJl5qaKs1bNJfHn3hcvlrylZw6dcp6lmz+a/6XGxzQse+HfTLrP7Pk7v53S+XKlXUZOZaQY387SrrAw9QHSjpC/MBqMoQQQvIQSjrvUNI5iClPSroQh5LOGdDZoWNdsXKlPDdqlHTp0kXKliubs+F9dKxL4pMSNRA/TGDH81m53HF6WEFERLhEmUccLNG6TWuZ+sFUOXLkiPXpBz6on45KOtPvuOPjpRAkXVqqNG/ZXJ548gn58qsvzc+d+MubhV9+NX3a3j0yUyVdfzn//PNV0uG1ciZdYGI+T0o6QvzAajKEEELyEEo671DSOYgpT0q6EIeSzhnQ2Z02nfW2776TDz/6UB544AFp2qSpZKRnSHxCgs7MSk5LMcESyuzlk0wAB4ccmEfPDLAE8xmWLVtWWrVuJQ8+9KAsXrxY5VKwgPrpuKQz/55H0jVr3kweHfGofDH/Czl48KDOlrMDN0Hfff+9TP/oI7nzrruyJR3EqXm9+Kwo6QIPUx8o6QjxA6vJEEIIyUMo6bxDSecgpjwp6UIcSjrn+PW33+THEyfkewiFD6fLww8/LG3atJGatWpK2fLlpESpklKqbBkpV6E8E8gxn1WZcmWlZNnSUqpMaf2z2nXq6KmhL4werSe77t23V9tasICLcUBKui8o6Qoipj5Q0hHiB1aTIYQQkodQ0nmHks5BTHlS0oU4lHTOge4OUgCdNja6//DD6TJixAi5tW9fuap7N+l4eSdT3p2l61VdtZNkAjVd5couXeTyzp2lc5cr5eprr5Hb7rhDxo0fr+IKB4SgnflzgQsU8FoDTdINN6/lXCTdh5R0QYOpD5R0hPiB1WQIIYTkIZR03qGkcxBTnpR0IQ4lnfOg48MhElu2bJH58+fL+1On6kEDY18ZK6+Oe1XGTxgvEyZMYAI0+HzGjR8nr7z6qowbN17emDhRPpg2TVaaNgKhFIygTgacpBtBSVdQMfWBko4QP7CaTIEE14VDhw7J5s2bNeiTGYZhtm3bpo/79u3T8dK/sTKFks47lHQOYsqTki7EoaRzHnR8uDicOnVKDxfYv3+/7N27V3bv3q2fDTbBx++ZwAw+H2S3flbmz8xNBE5yxYUzWNsI6iQlHckvTH2gpCPED6wmUyBBv/7VV1/Jc889p3n11Vc1r7zyCsMwIZwxY8bIuHHjZNasWbJ27Vo5fvy41WvkHZR03qGkcxBTnpR0IQ4lnfP40/GR4CUYP1+8Zko6kl+Y+kBJR4gfWE2mQIJ7ytdff12aNWsml156qe7RyzAMgz6hffv2MmzYMJk3b55+EZ7XUNJ5h5LOQUx5UtKFOJR0hJCzwcWYko7kF6Y+UNIR4gdWkymQoO8eNGiQ9vt4q2FhYQzDMNofREVFSffu3eX999/XVSx5DSWddyjpHMSUJyVdiENJRwg5G1yMKelIfmHqAyUdIX5gNZkCyenTp+WBBx7wGigyDMMgV5oxKCXdn6GkK6CY8qSkC3Eo6QghZ4OLMSUdyS9MfaCkI8QPrCZTIEHfjYEs3ibDMEzu4H7zmmuukQ8//FB++OEHq9fIOyjpvENJ5yCmPCnpQhxKOkLI2eBiTElH8gtTHyjpCPEDq8kUSCjpGIaxC+43r732WvnI3NtR0v0BJV0BxZQnJV2IQ0lHCDkbXIwp6Uh+YeoDJR0hfmA1mQIJJR3DMHbhTDrfUNIVUEx5UtKFOJR0hJCzwcWYko7kF6Y+UNIR4gdWkymQUNIxDGMXSjrfUNIVUEx5UtKFOJR0hJCzwcWYko7kF6Y+UNIR4gdWkymQUNIxDGMXSjrfUNIVUEx5UtKFOJR0hJCzwcWYko7kF6Y+UNIR4gdWkymQUNIxDGMXSjrfUNIVUEx5UtKFOJR0hJCzwcWYko7kF6Y+UNIR4gdWkymQUNIxDGMXSjrfUNIVUEx5UtKFOJR0hJCzwcWYko7kF6Y+UNIR4gdWkymQUNIxDGMXSjrfUNIVUEx5UtKFOKEo6dDRIBiQ//b7b5rff/tdg8E/w5xLPHUH9Sl3/LmgBSp47ZR0JL8w9YGSjhA/sJpMgYSSjmEYu1DS+YaSroBiypOSLsQJ1Zl06CgPHz4se/ftlT179+Rk7969DHNOyak/ph2hPv2w/wc5ZOoW6pg/F7VABK+bko7kF6Y+UNIR4gdWkymQUNIxDGMXSjrfUNIVUEx5UtKFOKEm6dDJ4D3v2rVLpcLceXPl0zmfZmfupzJn7hyZO3cuw/gd1BnUnzlzTN0x9emL+V/I0uXLZNee3XL6LFHnz0UuEMDrpKQj+YWpD5R0hPiB1WQKJJR0DMPYhZLON5R0BRRTnpR0IU6oSDp0LqdPnzYd+35Zs3atzJgxQ1586UUZNnyYDBk6RIYOG5rzyDDnGtSdIUOGaH167InHZbSpW7NNm9qydaucPHVKfv3tN78ucIECXislHckvTH2gpCPED6wmUyBB3z1o0CCvgSLDMAwlnW8o6Qoopjwp6UKcUJJ0mD33ySefyGOPPy439ekjHTp2kCZNm0jjJo310ZOmTZsyjN/RetPEivk1hFL7Du3lnnvvkdffeEOWLVsm+/fv17YWLKC9UNKR/MLUB0o6QvzAajIFEnyRet999+UMEMPCwhiGCZKEh4frPSEePW04L0NJ5xtKugKKKU9KuhAnlCQdZMngIYOlZq1aUjizsMQnxEtsnHlvsbESFxdn4ha3262PDONvUGe03pi4XC6JjokWd7xbqlSpIt26dZOnn35aVqxYISdPnrRqY+CD9kJJR/ILUx8o6QjxA6vJFEgg6e6///6cAWJWVpYULVpUB80MwwR20FZLliwpGRkZEh0drfdvnracF6Gk8w0lXQHFlCclXYgTKpIOr/U/s/8jPXv1FHe8eX+m+oeFh5mE67c+4eEREo5vgBjmHwT1KSyskPl1uIq7SpUq6U3FrFmz5OjRo1ZtDHxwMaakI/mFqQ+UdIT4gdVkCiS4H8Vg85577lFZ98QTT2gef/xxhmECPPhCetSoUSqLateuLampqXkq6ijpfENJV0Ax5UlJF+KEgqTDgB6CZMrkyXLFFVeYTiT7ohEZFSmxcXES6zbBI8P806AuaX2KlUJhhVTUoU299dZbKpeCBVyMKelIfmHqAyUdIX5gNZkCC64NDMMEXzwsWbJEevXqJRUqVNBlsOi28iKUdL6hpCugmPKkpAtxQkHS4T1iT7A333xTOnbsmLNfApa4YtCemp7GMHka1KuwiHCJiIzU2XTjx4+XAwcOWDUy8MHFmJKO5BemPlDSEeIHVpMhhJCAZPXq1dKnTx9KurNCSUfOCVOelHQhTihIumwhcELee/99uaJz55zOBwIgIipSRUo4w/yPQf3JibmJ0GWvEdkiOCk5WRo1aiTvvvuuHDp0yKqRgQ/aDCUdyS9MfaCkI8QPrCZDCCEByVdffSU33HCDlC1blstdc4WSjpwTpjwp6UKcUJB0AO9zzty5csutt0pGZmEzaI/WgTuWvEZGmkTh1wzzz6LC19xIRJlfp6enS506deTmm2+WOXPmyLFjx6zaGPjgYkxJR/ILUx8o6QjxA6vJEEJIQEJJ5zuUdOScMOVJSRfihIqkw+B71bffynOjRkmbtm1UPJQuU0ZPIypmUrx4cSlRogTDnHOKe1K8hBQ1FzSkjKlbTZo0kX79+sm4ceNk7dq1enJdsICLMSUdyS9MfaCkI8QPrCZDCCEBCSWd71DSkXPClCclXYgTKpIOnQsG918vXy5vvvWm/N8jg6RHzx7SqVMn6dipo1x+xRW6FLYzYt4jw/gb1JsrrkCu0HqEP7vu+utlxIgRejOxceNGPbgENwDBAtoLJR3JL0x9oKQjxA+sJkMIIQEJJZ3vUNKRc8KUJyVdiBNKkg7v9eixo7Jt21aZM3eOGZhPkJHPjJSnR46UZ559Vp597jmdaccw5xLUm2dRf6w6NOr55+WVV1+VeZ99Jt9//71elCF//LnABQp4rZR0JL8w9YGSjhA/sJoMIYQEJJR0vkNJR84JU56UdCFOKEk6/O+333+T0z+dlt17dsuatWtk2bJlsmTpUllqHpd9/bXOtGOYcwnqjcaqQ8tXrFDBtXv3bjl16pRVA4MLtBdKOpJfmPpASUeIH1hNhhBCAhJKOt+hpCPnhClPSroQJ1QkXW4wEMdrxx5hJ0+elBMmeGSYvArkHOpYsEofXIwp6Uh+YeoDJR0hfmA1GUIICUgo6XyHko6cE6Y8KelCnFCUdISQvwYXY0o6kl+Y+kBJR4gfWE2GEEICEko636GkI+eEKU9KuhCHko4Qcja4GFPSkfzC1AdKOkL8wGoyhBASkFDS+Q4lHTknTHlS0oU4lHSEkLPBxZiSjuQXpj5Q0hHiB1aTIYSQgISSznco6cg5YcqTki7EoaQjhJwNLsaUdCS/MPWBko4QP7CaDCGEBCSUdL5DSUfOCVOelHQhDiUdIeRscDGmpCP5hakPlHSE+IHVZAghJCChpPMdSjpyTpjypKQLcSjpCCFng4sxJR3JL0x9oKQjxA+sJkMIIf8Y3IvlNZR0vkNJR84JU56UdCEOJR0h5GxwMaakI/mFqQ+UdIT4gdVkCCEkIKGk8x1KOnJOmPKkpAtxKOkIIWeDizElHckvTH2gpCPED6wm85fs2LFDFi1aJLNmzZJp06bpoHbGjBkMw4RwPjL3RHicPn263ksdOnTI6jHyFko636GkI+eEKU9KuhCHko4Qcja4GFPSkfzC1AdKOkL8wGoyf8nnn38ugwYNkuuuu07at28vnTp1ks6dOzMME8K54oor9LFjx47Sv39/WbdundVj5C2UdL5DSUfOCVOelHQhDiUdIeRscDGmpCP5hakPlHSE+IHVZGxB34oZM7169ZIaNWpIRkaGDjox2GIYJnRTtGhRfUR/0Lp1a1m6dKnVa+QtlHS+Q0lHzglTnpR0IQ4lHSHkbHAxpqQj+YWpD5R0hPiB1WRsQd86depU6dq1q2RlZXkNuhiGYWrXri0LFy60eo28hZLOdyjpyDlhypOSLsQJRUmHjgaDfLx3vAeGyYucseL5PeoYpI8/F7ZAA6+Zko7kF6Y+UNIR4gdWk7EFfSskXZcuXf61wSbDMMEdjPWwb+W/ASWd71DSkXPClCclXYgTipIO7/mAGehv3bpV1qxZI6tXr84V83v8GcP4G6vufGvVn7Vr18qmTZvkwIEDcubMGavWBRe4GFPSkfzC1AdKOkL8wGoytqBvxYAKAysMsPAjDMMwCO6poqKipGHDhvLll19avUbeQknnO5R05Jww5UlJF+KEjqT7r+lgfjcd5Gn5Yf8P8uWSr+Sdd9+VF198SZ5//gUZPXq0vIC8OFpGv/giw/gdrTcvZAe/f3nsWHnrrbf0RmXfvn1BKX5wMaakywavFX+OfxN93k+nT8upkyfl1KlTjuekeR3IafOacIOJ1+kJXrcngY55jZR0hPiB1WRsQXunpGMYxlc8ku7SSy+lpDsLSjrvUNI5iClPSroQJ1QkHTqXo0ePyrr16+SjGR/J008/Lbfddpt0795dul7VVbp175Yr3RnmHNJNrvLk6u5yzXXXyi233CKjRo2SefPmyY6dO+XEyZPy+1+IpUAD7SWUJR1eH/4NPNf+Awdk46ZNusky9nDBa8DpiZ/j0eSL+fkbz7+bnc/1zxYuWihfr1gua9aulc1bNsuOHTtUEB8+fFhlHm4+AxlT3pR0hPiB1WRsQd9FSccwjK9Q0tlDSecdSjoHMeVJSRfihJKk27hpo7z2xhvSs3cvadqsmZ58Vr5CeSlXoZyUr1heyldCKjDMOcZTd0xdQj2qWEGqVaumx90PeuQR+WDaNNm6bVtQLX1FewllSQehCrm1e/du+WL+fBnz8ssy4N57pd/tt0nffn2l7239TG7T3+d38O96/v3b7rhd7rjrTvPa7pH/e2SQPP7kE/LSmJfkzbfekpkzZ8qSJUtlm6l7x44dw1xifW+BiKkPlHSE+IHVZGxB30pJxzCMr1DS2UNJ5x1KOgcx5UlJF+KEiqTD4Puzzz+XW/r2NQP1NPP+wszFI0zCwkwiwyQ8Ojw7MdYjw5xDImIi9BF16bxC52m9wsXyEnMjdHf//ip6jpsLabCAi3EoSzr0bXsg6My/99jjj0nb9u2kaIni+t6R9MzCklEk05Hg304zwWPhrCL6ukqXKyvnV7lA6jeoLy1btdRZnf37D9Cl/B99NEP3TDx0+JD8/MvPWvb+3GzlJ+b1UNIR4gdWk7EFbZuSjmEYX6Gks4eSzjuUdA5iypOSLsQJBUmHjgWzYtDJdO3aVTt6VP9CYYXMwD1SIqIgWEwgWhjmn8TUpbCIcAkPNzH1rHBmprRs1UrenzpVjhw5YtXIwAdtJhQlnecm5Mfjx2XB/AV6U9X6stZSsnRJiYyJNp9vpESa54p2xehrdSJRiMuV/WgSExcrcYkJkmzeW5GiWVK6bGk5v+oFctElF0nHjh3l5ptvlsFDhsir48fJbNPPr9+wXpf+B9ISWFPulHSE+IHVZGxBH0ZJxzCMr1DS2UNJ5x1KOgcx5UlJF+KEgqRDx4u9mSZNmiQdOnTIuWhEmUE3xANkQFy82/yaYf5hTD1yx5v65HZrHYs0N0NY+vrGG2+oXAoWcDEORUkH8NqwD91r5s8aNWqkN2wxLpdEWHLOFWf6Q3dcdp/hWLL7LJd5HZB0MXg9CQkSbz6XhKQEU34JkpqeqjdYFU2/XaduXbmsbRu5e0B/eePNibJq1So5aN5joPThpswp6QjxA6vJ2IL+i5KOYRhfoaSzh5LOO5R0DmLKk5IuxAkFSYf3iIH9W5Peko6dOuosJ1T/WDO4xXtMTkmR5GQTPDLM/5Lc9Sc1RZKSkyUsPEyio6OkatWq8vrrr1PS5QLPH8iSbteuXfqeUsznib4Cn6Ubs9XMZ5tm3j+SXjjDsWRguat5TElPM+8jRT+XRFPnIOmi41xSyFp2jdeOYNZwvHn9tevWkT633Czjxo3TG3T0/dgr0Z+br38T8+9T0hHiB1aTsQVtmZKOYRhfoaSzh5LOO5R0DmLKk5IuxPn1l19DYk+606dPm0H7h9Lt6u66DBHVH8EFhGHyMipHzCNm0ZUoWUI6deqkNxVc7voHeP5Al3RDhw4VtzUjMiw8XBJNf5hWOF0FWeEimZrMrCKOJqNItqzziEPst4l+G7M6XXEuiXZFm/eeHcy6Szc3cJUrny+tW7XWG0bUyy1btuh2ALlBGSD5hfm3KOkI8QOrydiCdktJxzCMr+CeipLON5R03qGkcxBTnpR0IQ5mme3es7vASzoM6hctXiwDH7hfKlWubAb+aZKQkCBxcXE6ow6PDPNPg7oUGxtr6la8lK9QQdp36CBDhw2TJUuWyIkTJ6zaGPjgYhzKkm7v3r0yatQoqWA+Q5fLpWIfy1yxlBkz0hCUgeNJTMx5PfqaTBLx56b8ElMSTR+epP24Z5ZdjKmb0dExkpqSKk2aNJGBAwfqzRdOgMUXGZ6bMDx6fp0fmH+Lko4QP7CajC1ot5R0DMP4CiWdPZR03qGkcxBTnpR0BQQ0Hk9yk/vPz/5vILekGzRoUIGVdHjvW7dulXenTJbb77xDl71eeuklUrNWTalhBup4rFWrltSqzTDnGNQbk9x16aKLL5IbevSQp0eONG3rU9m5c2fQtZdQPTgCOXTokEydOlWu6naVlK9YQWLj4nJuWvCaCoWH6RJY5xOeK2H6HqNjonXPvETzWWF2nWdpLJbFYm899O14D5lFMqVxk8Zy7733ysczPzZl9t2fRF1+Yv5NSjpC/MBqMrag/VLSMQzjK5R09lDSeYeSzkFMeVLSFRDQeHIHg1hIAczeOX78uObkyZPaQaAjwt8Bv/waOpIOZbFjxw75aukSeWvSJBkxYoTcc+89cnf/u6X/gP6aAQMGMMw5B3VH69E9A3S2JuTWlPemaDuBVEK7g7zytLtAB68zVCUdwPJPvP+xr4yVa669Rvs+vFe8Huxpqe/dev+BknCcKmziEXU4WAJiLi0jex87CDvsqYfPDjMCo6OjJT09XS688EJ56OGH5OOPP9YywB51+Y0pd0o6QvzAajK2oA+jpGMYxlco6eyhpPMOJZ2DmPKkpCsgeBoPBsgYYGJPpRUrV8rs2bNlypQp8vbbb+vMkEWLFulA7PSp0/r30SmFgqQDKKPfTPmcNp0kZtUtWDBfO/sPpn0g06ZP00yfPp1hzilad6ZNy65HH06Xj2fNVPm0ZesWFcMeUP/8ucgFAnidoSjpPK8d/SL+nRUrV6io69OnjzRs2FAaNGiggdgKnDTQfrt27dpS5YIqUqZMGckonKFLX12xpu+Oi9PPKzU9LWc/Pfw6MjJSP7+MjAxp3ry5bnfw6aef6vvOb0x9oKQjxA+sJmML+lZKOoZhfIWSzh5KOu9Q0jmIKU9KuiAHjSZ3w4E4w2yxmbNmyWOPP64dZcuWLeWSSy6RFi1ayD333KOybvv27brUFZ3Snr175JM5BXtPutygvDCrcP/+/VoO35sBPR4Z5p/k++3fm2yXHTt3yr4f9qmgO1sm+XORCwTwOkNZ0v3+39/lzM9n5PCRw7J23Vq9AcKJqC+MfkGefe5ZeebZZzTPPvusszGv5VnzOp5+6ikZNmyY9O/fX7p37y4XXXyxlChZUvdHDAvDKcPROovOI+nS8RkmJOjyV4g8iDpcJ9C3r1+/XmfT+fM55hWmPlDSEeIHVpOxBX0rJR3DML5CSWcPJZ13KOkcxJQnJV0BAg0IA9h58+bJI488Iq1atZKSZqCmg7EYM/h1u6V+/QYy4J57dA+i3bt3aYcBWTV33lwZ9IhnJp27QEs6gAEoOmS8B4bJy3jkd35KjrwGfUkoSzqA14h/B/u04WRenIKNAxY2bNgga9auUXm3bv06R7N+w3pZt26dfLtqlXxlbrhnzJghL730ktx1993Spm3b7ENyUlMlzvTp8Yk4SCJZZ9Fh+avuU5ecrKKuUFiYlC1XVm686UaZOXOmuTbs1nJEGeQH5t+hpCPED6wmYwvaLCUdwzC+QklnDyWddyjpHMSUJyVdAQGdCwaSGChDorUzA7SsrCyJjIr8U4PDqaYXXXqJ3HPfvfLF/C/k2LFj5ucO6+A3lCQdIcQeXIxDXdL5Av8dM+xO/3Ra89OZnxwNZrzh/WJm8OHDh3UW9cqVK3Um9fMvvCB9+/XTsitdurTOmIuOidFTYDGjrkjRLElLT9c/x7UhyXy2TZs3lSefelJv3nE98eezzAtMfaCkI8QPrCZjC/pWSjqGYXyFks4eSjrvUNI5iClPSroCAAZSWFq3atUqeXXcq3L1NVfroAwbnLtiXRKfkCCJSUk66I0wg9V4M8CuXb+e+bvjZL/p6I4fPyYLFy6gpCOEKLgYU9J5g/+OfxuPOfnNuXheCx5xg4lZnGdMv3zy1Cldev3pnE9lxGMjdFZ1YmJi9jXB5dLlrp696eJM335eofPEFeeSShdUkmuvv1bemPiGnkiM58sPTH2gpCPED6wmYwv6Vko6hmF8hZLOHko671DSOYgpT0q6AgAGUtgTa+KbE6Vnr55SvXr17AFZRLie8IeBKU72S0xJkjCcAGgGq6XKlpFnR42SvXv3agNfuGghJR0hRMHFmJIuuMGMPxwKNGfOHHnooYf0wAvcfMaba0J8fLwkm/4d5YHrQowp92hXtPls06Ru/bp6M4mDh05ZBwz925j6QElHiB9YTcYW9K2UdAzD+AolnT2UdN6hpHMQU56UdAWAo0ePyldffqWHQkDQYdkSZtBB0EG0QdBhxkS8+fMI0zljeVOlC86X0S++KPv27aOkI4T8CVyMKemCH/TRWAKL04fvvPNOubThpVIkq4jepOM6kKifZ5r29THmmhEVE63//fobrpf/zP6PHDyUPye9mvpASUeIH1hNxhb0rZR0DMP4CiWdPZR03qGkcxBTnpR0QQ42Nd+yZYtMmjRJ2rVrJ3FxcVIorJDEuuNyNgfHwBSDapf5bxholyhdStq0bSPvvPuODsKOHT8mC7jclRBigYsxJV3BAP00rhGTp0yRvn37SrWqVfXEVyx9dSckSEaRTN2jzh3v1j/HctjWrVvrktet27bqjDx/bs7+Ceb5KekI8QOrydiCtkpJxzCMr1DS2UNJ5x1KOgcx5UlJF8RgQIlZEh9//LHc/+ADUqtObYnAQRGFztNZdNhzCJuDQ7ZFmk4Zf168RHHp0LGDbg6+fMVybdwQdZ99/hklHSFEwcWYkq5ggLLGHnUbNm7UwySamrIMCw/XE11x6iu+yMmWdPESVihMoqOjpWGjRvLsqOfk6+Vfy5Gj//4BEuY1UtIR4gdWk7EF7Z2SjmEYX6Gks4eSzjuUdA5iypOSLojBQPXrZV/LU089Je06tJcSpUpKZHSkhEeFS3xS9gl+GWYAhtP8IiOjTCJ1XyJ0FJg5h8EuTgdEZzdn3pxcki6eko6QEAYXY0q6ggU+mw9nzJBrrrtWP79IUyauuFhJTk2R9IyMbEkXFqY38PXMdWDQI4/IJ59+Irt37/7L8s4LTH2gpCPED6wmYwv6Vko6hmF8hZLOHko671DSOYgpT0q6IAaCbcaMj+XGG29SgYaBV0xcjMTGx+oANCU9VRISE3S2REJiohQvXlyuv/56mTx5suzfv1+f49fffpW9+/bqKYD/N+j/KOkIIZR0BRCU2ZKlS+W+B+6XCpUrSUJKkkSbcohNyD5cyCPp8GVOtWrV5PY77pB3zbVi85YtlHSEBAhWk7EFfSslHcMwvkJJZw8lnXco6RzElCclXZDhaSQYNB0+fFheGfuKNG/WTOLi3DozAjPoMODCQREQc3rCqztOKlSoIFd26aLLnVasWJEj2NAp4QRAzJigpCOEAPQzlHQFC7y3devWyejRo6Vdhw5SpnwZ/UInPCpCD5CApMP1ApIO14vrrr9eXh47Vr5dvVqvE/8mpj5Q0hHiB1aTsQV9KyUdwzC+QklnDyWddyjpHMSUJyVdkIFGgsHWiRMnZOOmjTJ06FA90RVSLcwMsDDwxEbgONEVcg4fc1JSkjRu0kSefPopmb9ggezP1bn98ssvOZJu0CAudyWEUNIVRPDevjfl8t5778lt5maudt3a5nNEX3+eljWin6lJqdKl5IrOV8hI09djXzpKOkICA6vJ2IK+lZKOYRhfoaSzh5LOO5R0DmLKk5IuCEEj37Vrl8ydN9cMtm6T8uXL6zKliMhIFWuQdCnpabrfED5mNLJrr7tORdyevXv+JNdCWdKhw2GYfyvBDF4/JV3BAu9t7959MmfuXBk6fKg0atJIUlJT9BrhkXSYjY1yKl6imLRt31ZGPD5CvlryFSUdIQGC1WRsQd9KSccwjK9Q0tlDSecdSjoHMeVJSRdkoJEcPXpUJdm48eOkW7duUrJkyZyONyklxQxE03T5kssdJ1GuGKlRq6Y89NBDsmXLFi+xBkm3Z8+ekFnuivLDAB/7+WE24rFjx3Jy1EruP2OYv0t2vTmqwe+PHz+udQt1DHUtGHUd2gklXcECZX7gwAG9MX9u1HPSqlUrSU9P1xsxLHVVSRdjyikqQooWLyqtL2ulMm/x4sV6nfg3Ma+Nko4QP7CajC1o55R0DMP4CiWdPZR03qGkcxBTnpR0QcgP+/bpQQ8PPPiANG3WVDuUcNN5uWJjJSk5WeLNYCs2Lk7izUC6pLVs6ZVXXpFDhw5Zz/AHv/7ya0hJOnTCkCibNm+WhQsXyscffyzTp0+XabmC3zOMv8muN9PkAxOIof/Mni0LFiyQzaaOoa4FI7gYU9IVLFDmhw4dlGXLlslLY16Stm3bSuGM7Bs6t+nzUd5RrigJjw6XrGJZ0rJVSxkydIgsWrSIko6QAMFqMragnVPSMQzjK5R09lDSeYeSzkFMeVLSBSHbt38vb789Sbpe1VUuqHKBLm2NiY2V+MRESTKD6OiYaIk0A9KMjAxp2rSpPPjggzJ79myfwiBUZtKhc8F7xWEba9etlUmm/B4w5YJlwFd27SKdu1yZE/y+C8P4mStNnbniys6aq7p1k169e8t9AwfK2+Ziv379evklSGecUtIVLFDmBw8dlCVLl8iLL70obdq00WsEbgVU0plyiYo15RQd8WdJt5iSjpBAwWoytqCdU9IxDOMrlHT2UNJ5h5LOQUx5UtIFIRs2bJDnnntWateurae4uhMTxG0GzZB1SakpZjAaKeHh4dq4sBwWp/lhAH3q1CnrGf4glCTdvn37dIbT888/L31u7iNNzcD/gmpVpEKlilK+YgUpV7G8lDe/xu8Zxt+gzpQz9adshfJSsXIlqV6jhjRq3Fg35x8/foJ8vWyZLjPEDUCwgPZCSVewwHvDje38+fPlqaeekmbNmklqaqreiOlyV1MunuWuxYoXkzZt28ijIx6VL7/68l+vu6Y+UNIR4gdWk7EFfSslHcMwvkJJZw8lnXco6RzElCclXRCyatUqeeSRQdoYw8LDzcDWJYmpKZKeWViSzSAUS1/x52XLlJG+ffvK5MmTdemdr84hlCTdypUrdXDaokULqXx+ZZ0tkpyWIokpSbmSzDDnnAQkOUnlFfaDRNusWbOmdO/eXevc8uXL5eTJk1ZtDHzQXijpChZ4bzhwaJa5mXv44Yfl4osv1pO/cSuQsyddVKSWE/Y57dipozz51JOydNlSSjpCAgSrydiCvpWSjmEYX6Gks4eSzjuUdA5iypOSLgiBIMMSVs8AKyomWkVBmhk8Y086CDp0Zhic4sCIOXPmyN69e31KtVCRdBigzpw5U6UJygblFm4Goy63eW8JcSZulRAM8z8Fs1lNIJnCI8K1fuHEZVzs27ZrKx9M+0COHDli1cbABxdjSrqCBd7bNvMe3508WW7t21clcny86etNXUVZu+PdEhkRqZ9pmTJlpKu5MRv1/POyYuVKSjpCAgSrydiCvpWSjmEYX6Gks4eSzjuUdA5iypOSLgjBKa1jXxkrTZo0kcKZmRJpOlyIOcTTIWJGRJ26deS5557TmXeYxeNroBUKkg6DU+zH9/bbb0v79u1zOp+omCh9f2fPimKYcw3aCpaaQ17FueN0X0itY9FRUrVaVXn99dfl4IGDVo0MfHAxpqQrWKDMsEfimJdf1n4cS7VRxhHmWoHPNS7erdeQyMhIqVSpkvTs1UvGjR8va9au/cvyzgtMfaCkI8QPrCZjC/pWSjqGYXyFks4eSjrvUNI5iClPSrogA40EndPceXO1wTdr3lyKZGXpwAqdITqxmJgYKVqsqC5XwlLXHTt26ODTVwMLBUmHjhcn27711lvSoUMHneGE6h/jclmCJSVbsjDMPwyWTENgYVYS6hhm1VWsVFHGjx+v+9IFC+grKOkKFigz9NuPPf64lnexkiVMWSSIyx0nyakp2ZLO9I24llSrVk3uuOMOnXW3ecsWSjpCAgSrydiCvpWSjmEYX6Gks4eSzjuUdA5iypOSLshAI8GsuG3btsms/8zSvYVatmypy5OKFi0qpUuX1pk7l7VtI//3yCDthI8eOWr9tDcFXdKhvNDxYqnh1KlT5eqrrxaXy6WdT3RMjMS53SpUGCYvAtHhCQRdYlKi7v2FWZyQS8EC2g0lXcEC/eCSpUv1VOvzq1bJ/kwTE/SzRBm7TV8ISYcb+Lp168pDDz8ks2bNkp07d8ivv3G5KyGBgNVkbEHfSknHMIyvUNLZQ0nnHUo6BzHlSUkXZKCR/Pbrb3Li5AndBBwz6nB664ABA+Tmm2+Wfrf1k0cGPyKvvf66LFy0yHYvOg+hsicdXitOdr3n3nukdJnSOcsRcwcXE4b5J8ldn1JSU6Re/Xpy2+23yWeffaZLroMF9DOUdAUL3IAuWrxY7rjzTilavJjp0906iw4Hnegp4eb3kHTR0dFyySWXyBNPPiELFy6U/Qf2/+vlYuoDJR0hfmA1GVvQt1LSMQzjK7inoqTzDSWddyjpHMSUJyVdkOFpJHiEeIKEw6mlaKBTpkyR96e+L1/M/0KXKB09dkz/zl81rFCRdCiDDRs3yKvjXpUuXbtIzVo1pXiJ4pKenq7JyMiQDNO5eYKOjmH8TXa9ydC6lJaWJllZWdKwYUO5/Y7bZeKbE2Xjxo3/ysX53wLthZKuYIEb0HmffSa9evfWzy/SlIkrLlaXuuLQIY+ki4mOkSZNm8joF0fLym9WyjFzHaGkIyQwsJqMLehbKekYhvEVSjp7KOm8Q0nnIKY8KemCjP+a/3lAgzlz5owu5dy5c6ds3rxZD5XYt2+fnD512vpbf00oSTrsCbZkyRIZN26c3H///XLddddJu/btpE3bNvrYrn17aWvSrkN7ac8wfkbrTbt2pu5kp0PHjnqK8ODBg+X999+XNWvWyOEjh//1JYN5CdoLJV3BAn39xx9/rDdcOFgIh0TEuuNU0KVnZvwh6WJidAuFCRMmyMZNG+XU6VOUdIQECFaTsQV9KyUdwzC+QklnDyWddyjpHMSUJyVdEIMGg8ETBl9o+KdOndJAnvk7qAolSYfXC6GJ/fww2Edn/NKYl+T5F56XUZ6Mfl6eH/0Cw/gd1Jvnnh+leeHF0fLKq6/KO+++I4sXL5YdO7Zrm4RUQh305yIXCOB1UtIVLLDcGgcJdezYUfdLDAsPUzGXkVlY45F02LOzTdu2Muntt+X77d/rNeLfrrfm+SnpCPEDq8nYgrZKSccwjK9Q0tlDSecdSjoHMeVJSRfEoMH402j+CgzAdu/e/ZeSDoIuR9J1Dl5J5wEDfAz0MfMQy7m+Xv61LFu+TJaaLNNfM8w55GtTd5YhS2X5ihWyes0a2bptqxw+fNhc9H+xal02/7S95hd4nZR0BQeUF2ZYv2be52WXXSbh4eEalDEEXXrhDD1EJ9x8njjspPOVneWDadN0O4X8KBNTHyjpCPEDq8nYgr6Vko5hGF+hpLOHks47lHQOYsqTki7EQafkmUk3aNCgAjuTLjcYdOK145Rc7Ld05OiR7ByxHhnmXIO6Y4L6hBlLqFuoY2cLDn8ucoEAXiclXcEAZY0ywQziMWPGSIsWLfRzCw+P0DJOK5whKelpuvQ12hUjWcWKyg09e8jsTz6Rg4cO5TzHv4l5fko6QvzAajK2oK1S0jEM4yuUdPZQ0nmHks5BTHlS0oU4GOxir7bPPv9MBg8ZopLO7Xb/IenMYNzltiRdpYpyZZcu8tyo52T16tU6Cy9YQWeDATny2++/ZceUhcbze4bxJ556Y+KpU4g/F7RABa+dkq5ggPd04sQJ2bBhgzz//PPSrGnT7Jl05rNzx8fr55lo+nqc9opyr1C5oh54snDRQjn+Y/6cSGzqAyUdIX5gNRlb0LdS0jEM4yuUdPZQ0nmHks5BTHlS0hGd/bNw4UIZPmyYNGjQIFvSmeqRlJws8YkJOqCFpKtYqZJ0vaqrvDD6BVm3fp3104SQggYuxpR0BQOU1dGjR2XVqlXy9NNPS+PGjXMkXRwkXXqa+TyTTLkk6AEStevWkYcefkhWrlwhp0/7dwDRP8XUB0o6QvzAajK2oG+lpGMYxlco6eyhpPMOJZ2DmPIMCkmHioH8jphBlCee2Stnfv5ZTv90Wk6eOsn4k9MntbxQdliSt3tP9p50gzx70pmBGzpWlXRJCX+aSXdF587y5FNPyTIzIMdzoVPDCbNe/4YJ/hz/Hf9O7s/N83kSQgITtE9KuoIB+mCUGU62xud0ySWX/EnSYamr23ye+GyLlywhjZs0lscff1xn3qEPzw9MfaCkI8QPrCZjC/pWSjqGYXyFks4eSjrvUNI5iCnPgJd0P535SfYf2K+b/C9btkzmzJkjU6dOlUmTJsnrb7wh4ydMkLGvviIvjR0jL778EuNnUF7jJoyXcePHy7OjnpN7B94nl3e+QipWriSJiYkSExMjKakpuuQVog6D5uKlSkr9Cy+UbldfLYMGD5YxY1+WV8e9Ki+/8rK8OOZFfd7R5hHB7/G5vPb6a3pK4FTTwGd/Mlu+/OpLWb9hvezdtzd7lgZdHSEBBy7GlHQFA2xLsHPnTr2JG3jfQKlTp46e4pot6dySbMokLsEtiSlJUrZcOWnTto08N2qUbNmyJd/2HTX1gZKOED+wmowt6Fsp6RiG8RVKOnso6bxDSecgpjwDTtKhEmCghMEBNmDf9t02WbR4kbw7+V0Z+cxI6T9ggDbSdu3bS/MWLaRJkybSsFEjuaThpSaXyMWXmuCR8R2rfFBejZo0lsZNm+if1apbRwVdkaJZkpyaIokYjKen6QAZv09OS9FTACHqKppBb5369eTSRg2lkSn7S81z5ZQ7Hi+9WB8bmv/erEVzadehvVx97TVyx513yIjHRsjENyfq4ByDwEOHDqmsw0ASn7s/nQAh5N8F7ZCSLvhBOWM23MaNG+WtSZOkT58+csEFF6ikQ3lA0qEcXCiPlGSpdH5l6dK1i4x9Zay59n6Xb/uOmtdJSUeIH1hNxha0eUo6hmF8hZLOHko671DSOYgpz4CSdKgAqMAYhGHmHOTclPemqJy74647pdMVl0udunUlq2hRiXW7pVB4uB5wgLeCjoA5t6DctPzCzYDNDGJxuh8GammF03VvojQzGM9Jerokp6TowDk61iVhprPUn8Vz2ZQ/nj8sIlwHgllFs6S6Gey3bddWbu17qzzxxBPaGX722We6V9L3ZlCNzx3CrqANlAkJNtAXU9IFPyjnU6dOyYqVK2XU889Ll6u6SplyZVXSRZoyQRljBl1UTJT2/dVr1JAePXvKGxMnyvbt2ynpCAkwrCZjC9o8JR3DML6CeypKOt9Q0nmHks5BTHkGlKTDN/47duyQqR9MlQceelC6X91dWrVuJRdfcrFUqVZVSpUppfIo3gwQIYoiTEcTZgZe4SaR5teRZqCBgQdzDjFlFu2KUUGHQyIwiPVIuvTCfwSiDv8NM+wwsIsx5R8VHe31fBgMe34dERWpwfNjyWyGec6SpUvJBVWqyIUXXigtW7bUxn/HHXfI0yNHysxZM2XLVt9LrPzpHAgheQPaGyVd8INyPnnypCxctEgGPfKItLrsMt13LiIqQmLiXNrnxyckSHhEuCSZz7Zu3bpy2223yfvvvy+7d+/Wm9b8wLxOSjpC/MBqMragzVPSMQzjK5R09lDSeYeSzkFMeQaEpEPDwOlz69ev14rQ7/bbpGbtWjp7CyeNxsbFSnR0tH7bHx0XI3FmkAVRh+BEOgwYMQsAgy5N7l8z3kH5WGWEpawYuCJY3goZl1vO5Q7+my6BNcHfx8/mPN9Zz59oggE9BoEY3ONzwuDYZT7LGJdLYk3w2aabz7hSpUrSqnVrue/+gfL2O2/rzLq9e/fq4LKgDZoJCQZwMaakC35Qzj+eOKF7ud5x551y8SWXSGZWEYlyRZvP062fo9s6KCglJUVv3B968CG94cNNMCUdIYGF1WRsQZunpGMYxlco6eyhpPMOJZ2DmPJ0XNJhOQ32JcPJc2PHjtU9c2rVqaMC7uzGHRYRJlGx0frfcuRSLrGEPdOY/y06c+6s2XN28fXzZwd/D4N5bEruEXYY5EfGREuhsLCczxSfsSs2VoqVKK4zJm/ocYPuW/fhRx/qARPHjh37ywE5ISTvwcWYki74QTkfN5/JxzNnSs9evaRGzZrm80vLnkWHA4HM5xiHrSNMOWdkZEirVq3kqaeekkWLFv1tOecl5nVS0hHiB1aTsQVtnpKOYRhfwbWeks43lHTeoaRzEFOejko6CLoDBw7oqa3PPPOMdOrUSUqVKiXxiYnicsfpEsy4+HgzWEvQGVkYUGD/nORUzPzKntHlCWbdMf8sucvTPr5/1lfw9yFRcegEZB3EKgbf2Uus4jXYry42Pk4HzlhuVbRoUalVq5b07ddXJr09SdasWaOizp/OgRCSN6C9UdIFPyhn9J8fTPtAuna7Kvv07pRk7XMTzLUU2xfExsXpzVhWVpZ07txZxo0bp589fi6/ysO8Tko6QvzAajK2oM1T0jEM4yuUdPZQ0nmHks5BTHk6Jun+a/538NBB7SRGjhypgq54iRJaKQqFh0lcYoIKnnTMyjLBbDmVPImJEmcGFbGxsbp0ErOwNC7ExfyjeMrx7+LrZ8+O+Xu5PiMsWYaQg6DD54h97zDjDo+JZrDscsdKobDszjwmxiW1ateSm2++WV599VVZsnSJ7N+/P982MSck1MHFmJIu+EE5Y6b6O+++I+07dpCSZUqb95+9BUGS6YezJV2s9rslzPX3uuuukylTpsjWrVvzdbsB8zop6QjxA6vJ2II2T0nHMIyvUNLZQ0nnHUo6BzHl6Yikw43/T2d+km9XfysvvPCCtGjRQmdQRcfE6KmhOBQC3/ZDzGUUyVRJp4Or+Hg9ICIvGz2Tf/FcHDAzEgK2sPlsIepS0lN1UA5RFxUTrfUgKTlZKp9fWa7scqU8NfIpmT9//p8G5+gsPPlfyf0cDJPXCWbw+inpgh+8n3379smE11+T5i1bSJFiRSU23q2iLsmUBSQdvkRB/1y6dGm58cYbZdasWbJnzx4tx/yqx+bfoaQjxA+sJmML2iwlHcMwvkJJZw8lnXco6RzElGe+S7rf//u7nDh5QrZ9t02mvDdFbupzo2QWyZSw8DAJj4zUwQOWRnqWV2LWVWJysg4mMDBEkpLMQDE1VffQwRKdollFVfIxgZUs09Ghw0gzn1Viohl0u926/xEG39nLl5P0kAl8xvisIWUxiMZ/izR1AbMly5UvK52v7CwjnxkpS5cu1Vkh/8tAGp0Lgk749OnT+jw7d+3Uerh121Z9RDBQ/04fGca/eOqQpx7hhGqIESwXxInV/lzYAg28Zkq64MVT5/B+tm//Xl548QW58KILta+Ndrn0c8QXJeh/PZKuXLly0q9fPy3jw4cP68zl/Kq75t+hpCPED6wmYwvaLCUdwzC+QklnDyWddyjpHMSUZ75LOjQCfEs/c9ZMeeChB+WSRpeaQUO0VoYoV4wOAAtnFdEZVhBzMebP0KFA3BQpmiXnX3CBXGI6l7bt2mnF6dGjh9x4Y2+56aYbTW5inE6f7EfMyOhhOulu5jNq3769NGrUSKqbwX7JUiV1YIgZc+Gmw400g2cMxvF54/PF7DoMpHECLDrkOHeclK9QXrp07SIvj31Zvl7+tRw+cvicB4/4+xh0Hj9+XL43A/gFCxfI5CmTZewrY2XMy2P0ufFrhjnXvGyCOvTSmJf0cfyE8bpkcMmSpdrXBeMybbQXSrrgxdM//vzzz7J+wwY9jOeCKhfoFx+R0dGmD8aWAxm65NWFPelMOVesVFH69++vhzjhc8S1Or8wr5eSjhA/sJqMLWj7lHQMw/gKJZ09lHTeoaRzEFOe+S7pUEFXr14tj5pBQ+s2l0nxkiV0E2vP4EwlnWkgOB0Uy3LCwsK0YULe1KtfT7pf3V0GPTJI9yqbPn26fPbZZ7Jo8SL58qsv5aslXzEOBwO8r75aIosXL5Z5c+fK9GnTZPz48TLcDPZvvuVmad6iuZQrX17iExL0s0UHHmM+e13anJl9Mix+jUDSRpkBZVRUtJQpW0ZPfn3l1Vfkm1Xf/E8dHTqyzZs363IuDFqvv+F6adGyhTRt1lRfV05aIi0Yxq80M3WmialDjZo0ksZNmkjLVq3kqm7d5Kmnn5Yv5s/Xw3EgS/y5wAUKeK2UdMENyhj7yi1fvlweeOAB3XMOM5Rxg56alqbXWMxa1+tsRLhUqVpFvzj75pvs/jU/y8K8Vko6QvzAajK2oN1T0jEM4yuUdPZQ0nmHks5BTHnmq6TDTf+hw4dl7rx5cuNNN+qeY3qCa4Jb4pOxzDV72SOWt2L/OZ1hlZEhVc3gAXuTPfR/D5nB1AStjBh4bNm6Rfbu3auDtkOHD+kMKyYAYj5jfCaYRbRlyxZZsWKFzJ07V09rffLJJ+U205F07NRJ6tapKyVLltRTXTFzDnUBy7Eg6iBlURdw8AQG11gui5l4vW/sLRPfnCi7du+Sn3/52apZfw86F2yGPnnyFB24t77sMqlWo5qULFNKSpQqKaXKlM5O2TIMc24x9aZk6VJSvFQJKVaiuJQwdbpS5crS6fLLZfCQwXpDAQGEpa/BAtoLJV0QY+6lUEZHjh7RL0wGDBggRbOyJCI8Qr/4wOnb6eZzRH+LcsY+sHXq19XPe/369fk6iw6Y+kBJR4gfWE3GFvStlHQMw/gKJZ09lHTeoaRzEFOe+Sbp8OH+dPq07tk06Z23pU3bNjpIwEmuCUkJZuCXpid9epY64oCI9IwMqV+/vgo9zKDC4QGbNm+SXbt2qQg6eeqkzlD59bdf5bfff2MCKOjs8NlgJseRI0eyhd3mbGH36aefyvgJE2TgwPulfYf2upw1IiJSZ3NAznoknWc2HZa8unCYSGKi1K5dSwaYQT1m7WFfOXz2/oDXs3DhQp1RUr1GDcnMzJSklCSJT06UBPOIZV/YSF2TipjfM8xfRetKiooOPOKwG+ypqScZu916WnXDRo3krv53q1zCUutgAf01JV3wgvLFlxg/7P9BZ5vfYW7esEdohOljo2OitW/N/kLM9IHYH9Q8NmzSWEY++4zurYifz0/Mv0dJR4gfWE3GFrRdSjqGYXyFks4eSjrvUNI5iCnPfJN0GFRBqixbtkyeMQMByLc47IVjXgb2KPMsdcSAN9wMptCJVKpUSXr17iVvTHxDlyliw38PqCxM8AX8fOaMitZP58yRR0eMkHbt22vHgg3MITdQBzCAxHIsz/JXHDqhdcUMJi9rc5m8+eabsnbtWhUfnuf9K9AxTp06VTp37izh4eH6XOFmwOqKj1OxAumAgSrD/JNg6SC+YED9QiCYG1x0oc4ihVwKFtCmKOmCF5Qvrpc4xOTjjz+Wm2++WW888XlB0uEzRD/r6fdwgnrrtm3kpZfH6IE6+Y15vZR0hPiB1WRsQdunpGMYxlco6eyhpPMOJZ2DmPLMN0mHzdO3b98uM2bMkIH3DZSqVaqKKyZGziuULemwiTUGDtmnzbmksBk0tGvfTjdjx/IbzMgiBQd0VLt379bZbWPHjpVbbrlFGjRoIOnp6XqgBIQdRF2mdYhIvBmwo65gSWzNWjV1Nt20adP0EIi/6zh+NQN6LMPFMtm2ZiCKqo9Eu2J0oIpTDhkmL4IZdRAfqKeoY7hBwY0K9tA8sH+/VSMDH7QpSrrgBeWLz2LDxg3yzrvvyPXXX69bR+DzwmFM6FtxrY1PTNQ6W7xUSbniys7y2uuvy959+6xnyT/M66WkI8QPrCZjC9o+JR3DML5CSWcPJZ13KOkcxJRnvkk67Me0bt06ed0MAnr16iXly5WX6KhoKRQWJskpKTp4wnIxJC0jTWrUqil3979bl+pA0PlTOUjwgM8Ty2GxbBkSFoeAoIOpVq1a9ubmZlCNQWR64XSdUYdlWZExUSo/cEJsy1Yt5fEnHlcx8HcD619+/UUOHTqos5k6Xd5Jnx/VPzomRhKTkvS5GSYvAnkVbwLBhINRok09hiSaMGGCHiARLKB9UtIFL//9/b/6xcTyFctl7CsvS+crO0taapruSYftJCDp8BmijCGXK1aupAfpvPvuu47UU1MfKOkI8QOrydiCvpWSjmEYX6Gks4eSzjuUdA5iyjPfJB0qJvYjG/X8KB0wlChZQpeFhYWH62wmDHCxVAwDh3IVykunKy6X0S+OlnXr18nv//1j4ORPJSHBgeezhKzbuXOnvPb6a9Kt21V6CmFCYvYAMtHUBwysPYNrHDKSlJwspUqVkptuuklmzpypszT/CtQfCAEs++rVu7cO+sPCw3S5K+ogBvDZiWaYf5TIqEiVQXjEssJixYtJu3ZtZdq0D3RvxmABbZOSLnhB+e7fv18WLFwgTz71pFx22WWSnJQsEeZ667IkHfpSlztWZ7HXrF1L+vbrpze/+OIkvzGvl5KOED+wmowtaPuUdAzD+AolnT2UdN6hpHMQU575JumwP86Sr5bIE088IW3atZGixYtKZHSkhEeG62AJezdBmODggAYXNtDljNM/nC47du74k6QjBRPUDwzyX3jhBenWvZtUrFRRYmNjddZbQmKCHiqCgSU2OYcMiYmJ0YHnuPHjdOYHDqv4qw4EnS+eH3vgXXjRhTo7z7N3GC4imPXEMP80nhsSPOLkYizZH/HYCK17wbRkH22Jki54wfvAdgKzzI3bQw8/LI0aNZKEhATdj1O3EjDlgLKOdEVJemaGHnDywAMPyqefzpGjR49Zz5J/mPpASUeIH1hNxhb0rZR0DMP4Cu6pKOl8Q0nnHUo6BzHlma+SbvHixTLcDPpatm4pRYoVkciYSImIjpCktGRxxcXqAMIdFyfNWzSXJ558Qr6Y/4U2xIIycCL2oPFj8I3O/blRz0njJo1V0p13XiFd4qqHSBTJ1D2UMPsS1bde/Xry6IhHZe267AMk/mrgjr4Fm6h/+NGHct/AgdK+QwepVbu2VKhQQU+XrVixIsP842h9Kl9eqlSpIl26dtEvJebNm6fCBDNGgwW0R0q64AXvA3vAvv/+VHPjdofUrVtP4uPjdb9PnD6MMo2IxvU3UjKLZqpMfvzxJ2ThokWmL/3Repb8w9QHSjpC/MBqMragb6WkYxjGVyjp7KGk8w4lnYOY8sw3SXfq1ClZZAYAw4YPkxatWkhmsUyJdJlBQkykSjoMHLAUB5KudetWegLsosWLdJYUJV3Bx9P4cQLw3LlzpVu3brrUFXsWYuYHTniFpIMcwEAT1bdqtapyV/+7ZM7cOXpaLPY9tAPPj45s27Zt8tnnn8v4CRNk6LChcvfdd8sdd9whd9yZnTvvvJNhzimeuoN6hN/fc8898sgjj8gbb7yhN0F79+7V/i+Y+jG0F0q64AXvY+vWrTJx4kTp0aOHVK1aVQ/fiTTlgFnrKanZp6hjWTa2nrja3PiOefllWbFypflcTljPkn+Y+kBJR4gfWE3GFvStlHQMw/gKJZ09lHTeoaRzEFOe+TqT7svFX8qIESOk9WWt/5hJFxWhgyXMpIOki3e7pXnz5jLiscfks88/k3379lHShRCYbbR582YZMGCAlCxdytSPSIlyxWSfAJyRruIOFxh0/BUqVpQevXrKm5Pe1MMnIEJ8dSL4MwQDe4i8o8eOqaxbtmyZzJkzR2b9Z5bMnDUzJ/j9rFkM419QZz6e+bHujzh79mztt1C3UMewDx3qNPowTz0MBvA6KemCF7yPDRs2yMsvvyxXdr7S9JUVJNGUaUycS7cMQDmERYRrX1quXDm55dZb9GCd9RvW67U6vzH1gZKOED+wmowt6Fsp6RiG8RVKOnso6bxDSecgpjzzd0+6JUt0E+v2Hdrn2pMuQg+OwJJGDKLwbf9FF1+sSxJ1T7odOyjpQgh81tjwHAeMNGnaRAoXyVSBi/qBAyOwPx025Ef1LV26tHTp2lVeGD1aDyVBR3V2J4Lfe5IbDPLx99HR79mzR3bt3qXBssTdexjG/2jd2ZUdzJqDRELd8nWgydn1MFDB66SkC15QPqtXr5aRI0dK69atpVTpUvpFBw6LSExJ0nLALOXo6Ggtn3vvu1dmfDxDvt/+/V/OSP63MPWBko4QP7CajC3oWynpGIbxFUo6eyjpvENJ5yCmPPNN0qFiLl+xXJ5/4Xm5ssuVUrJUSe0osHQRkg4DwChXtMSbAVTVGtXkhp49dEnixo0b/3JARgoWGCTjdMFp06fJbbffpvvOJScnS3h4hB4q4k5IkGhXTE7n0a59e3n8iSf0YnPs2DGvTgS/9yQ3+HfQIUOkYKYTBqYM80+DuoQ6haDf8lUfgwG8Tkq64AV92/Lly2XYsGHmZvwSKZJVRCUdPjdcb7MlXSE9gKdatWq69H/+gvmy74d98vMv+b93oqkPlHSE+IHVZGxB30pJxzCMr1DS2UNJ5x1KOgcx5Zlvkg4DWGzwP+H1CdKzV0/dXB3f4uPbfAwaMCiLjY+T+KQEKV22jLRp11aeevpp+eabb7ThkNAAg2TINgwYcSgETnDNzMzUkzOxNx0kHR5Rb/DnmG038P77Ze68eXL4yBG/OpGzwc8wTF4ku0Jl16lgBq+fki44Qdme+flnWbR4sdw78D6pXquGJKelqKRDcEo2yhRl64pxSc2aNeWpp56SZV8v0+XZTlxvzWumpCPED6wmYwvaPyUdwzC+QklnDyWddyjpHMSUZ75JOsws2bptq37Qd/e/W08/dLlc2oCTU8wAIjVFBV28Gfxh77E69erKAw8+qI2dki50wCD5RzN4X7Fyhbw0Zox07dpVihcvnj3rw9QXnO6KwXukuchoPalbR3rf2NsMyD+UA2bw7k8nQgj5a9COKOmCE5TtyZOnZM7cuXJL31ulTPly+gUYBB3ef7r5/HIknelT69SpIy+88IKsWbNGTp446UgZmNdMSUeIH1hNxha0f0o6hmF8hZLOHko671DSOYgpz3yTdKj82K/p888/1yU4GBjExcXJeYXOyx48pKdJonmEpMNMqdKly8gtt96qJ3H62tuJFEzQCZw8dVLWrV8nb7w5Ua7vcYPup4SOPibWpXIA9SU23q1it1yF8tKuXVt58803Tf3a51cnQgj5a9COKOmCE7yHo0ePyowZM+S6G66XwllF9AAe9Jt6SnZm4ezlrqZsY821tkGDBvLqq6/Kli1bdLm2E32o+Tcp6QjxA6vJ2IL2S0nHMIyvUNLZQ0nnHUo6BzHlmW+SzjNw+GblN/qt/cUXXyzx8fFaCXTwUDhDl+FgEBgWHi6pqanS/eqrZZapeFgq60/lIMEPPufTP53WQTb2pbu1b19dGo2OHgdGJKokyBa6cW63pKSkSPUa1WXUqOdk+/btrCeE5AFoR/kt6bKKF6WkywNwo3no0KHsgXq3q7SPPM+UIz6zdHOdxWE8npl0cXGxctElF+nJrjhAx6n+0/y7lHSE+IHVZGxBG6akYxjGVyjp7KGk8w4lnYOY8sw3SYcPF5Vz69atMnHiRGnStKkkJiRqJYCkw7f7GEBAwuDP3G63dOzQQSvGqVOnHBs8kPwFn/PPZ36WH/b/IPM+mycD7rlHKleunH1hMQPtJFM/UFcgCrD8NTIqUjdFHzJ0iGzavIn1hJA8AO3o29XfyvD8nElXjDPp8gLMhtu3b5+8a242L7/8cklISNBrao6kM/0lysFznW3UpJF8MO0DFXtOYeoDJR0hfmA1GVvQt1LSMQzjK5R09lDSeYeSzkFMeeabpAMYWGHJKz7sy9q0yf6G37wMiDkMHnIkXaHzdClsq5YtZdKkSbqZdUEYPBH/QEeJfemwkfmgQYOkatWqORcWCN3CpgNNNx0RJB3+HDMy773vXlm9ZjXrCSF5AC7G365eLcNHPOqHpKutkg6niZ44ceIfSTqc8B2X4Kak+x9BuZ4+fVq+N+9/woQJ0rZN25wZ6x5Jhy85ki1Jl2j+rGXrVjJr1iw9sMcpzOumpCPED6wmYwv6gIIs6fJy0M8woRbPWIqSzhtKOu9Q0jmIKc98lXT4gPFtPQYEV3btKkWKFpVC4eG6Dx2WMGK/HEgYHBKAvXKaNGkiY8eO1WWMGHiQ0AD1BIPwDRs3yBNPPCG1atXSjh6z5jCTLjPLknSxLq0rmCly5513yJKlS3RpNCHkn4PTuEc8NkKqVa8uqel/lnTos8NzSboRI0bIihUr5ORJ/w4eQBuH0Pv8iy9U0jVs3OjPks48v5eke5SS7u9AueBLLSxVHjVqlDRv1jx771dzuU9MMp+d+Rzx+WG7gHBrFnLnKzvL3Hlz9fNwClMfKOkI8QOrydiCvrWgz6RDn4bD55o2bSrt27fXGcMdO3ZkGE2HDh2kVatWKol81Z9QDiWdPZR03qGkcxBTnvkq6cDx48d1oNWrd28pX7GCRMfF6oAP3+xjT7psSRemp86hE3n22Wdl3bp1+nPBPoAi58aOHTt0/8L69etrncDm55hpiT2VMBsEB4yEmT+HpOvT5yb55NNP5OChg3rQyO+//a71BYNWdLwMw/x9PPILjznLXf9K0oWHS+1atWT48OE68/XY8WPZ7e8v2p7nQo8bCyxpv6v/3XJpw0ulSNHs5a6+JF3z5s3l0RGPyhfzKen+CpQ9lrouWLBAD2i65JJL9AsvlCMkXUpamiSnpupMRRy+U75SRenZq6csWLhAD+xxClMnKOkI8QOrydiC/rWgSzq8r7vvvlveffddWbRokaxcuVKWLVvGhHiw5QaydOlSmTlzpnTv3t1n/QnlUNLZg/tTSro/h5LOQUx55rukw4w4dKJ3m4FZ7bp1JMkMmjDwg5zDAAqPYeFhEhMTIxdeeKE89thjuowKM/DQgEjogMHm+PHjpWHDhhJhLiqRMdEqB9Izs/cvjI2L1bqCfZWwQfqbb70pa9aukf3796vURbCECzNLGIaxDw71QdBeTp44KcfMrzH4eejhh6VK1ar6BUqc7hX35+Wu4eHhenDL/w36P126umv3Ljl8+HBO+zv73zl85LDuMYq+HO10xsczpG+/vnLhxRfqDNnoWJfXnnRpqWkq6TCrb/6C+ZR0f8GZn3+WHTt3mnL9WO697z6pU7euuZZixnGYfsGBE7G1bE0ZYPZ6nfp15S4z2MWgxsnZ6pR0hPiH1WRsCQVJh8H/008/rXIO1y18OYHrChPawTUMwa9xPYe08FV/QjmUdPZQ0nmHks5BTHnmu6TDptZr1qyRwUMGS5NmTSWrWFEd+EG+QNBlS7pwiY6Oljp16milxsw77GWHnyWhA8TsO5PflXbt20myGVzGuuPM4DJBUtLTLEkXp5IAM0Wat2iudWrye5N1to1+q7Ys+xu1r5Z8xTDMX2TJkiXaVtBuln+9XL4yN2844OfmW26RSpUra5tzJyXoMkmVdKbPjjQ3erhpqlSpktzS91Z57Y3X5bPPP9cbNM83217/lvlvGFhBpi9evFjGvDxGul3dXWrUqikZRQrr7K6EpCQVSjkz6VJTpVmzZrrv3XzTtiEBKel8g/e+ecsWmfT22/rZYT9PXEtxTUWZJuoMujidrViiVAlp2aqVDBkyVFZ9882/cvPoL5R0hPiH1WRsCQVJhxP/scpi48aNHBcQn+BLwAEDBvisP6EcSjp7KOm8Q0nnIKY8813SoRFs2rRRnh75tHTo2EFKly2j4sVlBg7xOghMkvCIcO1EsOfEHXfcIdOmTdMBFPelCy0wqwczQm7o0UPKli+ng2rPkjvsX5iQmKiHR2AmHeoK9qG4+Zab5f7775fBgwdrHnnkET18YtAjDMP8VdBWBj8yWIaYdvPwww9Jnz59pFnz5lKiVEmVWzrjOTVFJR0eIc3R/oqXKCHNW7SQG/vcJAMfuF/bm7a9wabtnf3vmP82dOhQFW64YcFSy4suuVjbd1rhDP03IOSTUlIkLt6tN3jJycnSsFFD/dnPP/9cb0j+ilCWdJhBgO0hXh47Vq6+9hopX6G87uUZbm5uIenizXuPdkWLKy5WKp1fWbp176aD3Q3r1zu6nyclHSH+YTUZW0JF0r344ouyefNmrrAhPqGk8x1KOnso6bxDSecgpjwdkHS/yNatW+SlMS9J96u7S8XzK4krPlYiXVH67T4GEhhMRUZGagO/2jRIHB6B2XdObmxN8h90PJiZg2VbDS66UDKLFpHYhDgdvEPSYQle9oA+WfetQueEDqV06dJ6E8cwzLmnXLly2veWKFFCMs3NiqedYd9QzKhD20M82xPgEX8Psq50mTL6876eNzvZ/61C+QpS3vw9CMCMIpmSWjhDn9vz/HhOlXRhhVQs1a5XR+68+y75+OOZKu//Sqb5J+liC6Skw8Edq75dJSOfHSkdr+goJcuUlIioCI3OTnS79UYX20nUql1bbu3bV96aNEm2bdvm6IwUSjpC/MNqMraEiqTjTDpiB9rAnj17dN9CX/UnlENJZw8lnXco6RzElKcjM+lwWiv2D7v51pulZu2a4nK7JDwqXJfhYNAXFR2tkq5Y8eJy2WVtdFPyr5YskaNmcEZCBww4lyxdKo89/ri0bddWSpQuqTNAolwxKg6wPA4HSOh+WWbwiTqD5a/oyPFrhmH+t0QgUZESY9ob5A7kFtoZZrthqbknaYXT9b9j3zP9Ob/bXvbfi4qJkVjTdjGDDv8GnjPD3GTg34pPTJCImEhxJ+KAg/LSsVNHGWauBbM/mS3r1683N2n79Yubs2dSnP7ptGz77juZ/tGHNpIuocBKOtys4QAPHPjRuk1rKV6quH4BhuDaitmPOGwHku7SSxvKgw89JB/PnCm7d+/WfZ2cwtyDUNIR4gdWk7EFAylKOhLKoA1Q0vkOJZ09lHTeoaRzEFOe+S7psJcQOs8PzQBq4P0D9VS/uHgzcIgI04MAUtKyl1FFu2KksGkoF150kdx1910y77PP5NChw9azkFAAy5txwuSYl1/WGZXlypeTGFMvcKokBts45bVwVqbOvIlPSJBoM/DE0i4VDAzD/KNERkdpX6xLXNOz94H0BHLcE8yyw0nLuPHz9TzeibASqW02Lj5ekpKTs8W79dxo05BKmPWGbRDSM9OlYuUK0rhZE+l1U295auTTKpc2bdqkB1Tkvnk4ZfqNrdu2/aWkcxVQSXfk6BFZtBgHfjwkTZs1lWIliquQRLL39YzV2Yk4Pb1Vq1byxJNPysJFi3Rp0NmyMz8xnx8lHSF+YDUZW9AXUtKRUAZtgJLOdyjp7KGk8w4lnYOY8nRE0h04cEBPAnzs8cfksjaXSYIZNOGUTgz0MIjCyYHYewyzNqpUqyo39LhBj9PGz5HQAXskbdq8Sd5++225BRvYV6qkm6DjpEIMOHHKq2dAzzDMvxjTF589iy53fP7M/xDv58zQwyqi42KkUFSYnBdRSGIT3FKrbm25/Y479MZhw4YNfxJ1fz+T7s970vUoQJIOJ9/OnTdXT0+/+JKLpWjx4iol9cAd894hXXHTjMN2OnXqJGPGjJFVq1bpybt/dRjHv4357CjpCPEDq8nYgn6Qko6EMmgDlHS+Q0lnDyWddyjpHMSUZ75LOgyCcGT6N6u+kbGvjJWuXbtKcnKSfrsfE+vS2RTZMygSJMkMKrCh+JVdrpT3339f9uzdYz0LCQVw87V9x3aZ8fEMueeee6Ry5coSHRWtHUd8YqIkp6bqwBMzfTz7ZTEMk4cx7Ur3ozNBf+z59Z+CtueJr+f4u1g/m3vPO88sPcyWxTUB+5VGREfIeWHnSVhEuEq8evXrS8+ePeXJJ5/Um7a169bpwQmQTTgN/KMZH8lt5qalYsWK2bP8oiIlNSNNT43FTG08VqlaRa6/4XoZN358gZB0+37YJx/P/Fh69u4lVapVU7HqTkrMPpXXlCNOxD7P3DTHmUdce19//fWc2YiUdIQEPlaTsQUDqVCQdJ6DI5zst0jgAonTv39/n/UnlENJZw8lnXco6RzElKcjkg77CG37bptMnjxZevXqJampqdqQsZQRAwkM1uLNwAIpWryYzrab+OZEFTYkdECH+cP+H2ThwoV6GmSdOnV0cImqGxuffcorBp949Pwa+2MxDJMHydWePG3MLr5+xq/kar+eQPzhOuCZWQexhllv2KMO+9e5TB+AR0j6smXKSpMmTaRfv346G27Lli26TB6zrmfPnq3fpEPu46YUJ5ziubGtAm72XK5YqVqtql6DXn/jDfn+++/N9Sm4B3y79+yW995/Ty7vfIUeyuG5juKaivJUSWf6Txwgce2118q7776r11Xs/+mkoKSkI8Q/rCZjSyhIOnzxMm7cON1LkxBf4Au7Bx54wGf9CeVQ0tlDSecdSjoHMeXpiKTDIAoNbNasWXLbbbdJRkZG9kw6S9JhNgUGFliagxkW2LduzMtj9FszEjqgrmCGx7p162TChAnSoUMHKVqsqETFRGv9UCFAMccwQR2IOZVJWJaZEJ8T/B7/PTktRUWdZxksrg/YUw5bJOAyFh8fL9WrV5cbb7pJppobic1btsiuXbtkwYIFMnjwYKlVq5buwaYzyOLduuwVP4el8/Xq1ZO77rrL/NxU2bV7l/wW5JJux44d+oVWs+bNVEhixiD29EP55cykM+8dkg5ycvqH0/WLkJ/O/OTXDdi/hfm3KekI8QOrydiCdlzQJV3JkiV1wIsvYtauXauzoDEjmAntYIzoCQQUrnG+6k8oh5LOHko671DSOYgpz3yXdPiQsYzx8JHDundO/wH9pUhWli5hgqTzzJ7AklcMMBDMdnj88cd1iezPv/zs6Df+JH/BiYOHDx/Wi8nw4Y9Kh44dpdL5laVwZmFJNnUkOTVZ0lFnGIYJykAeob+HQMNhFdhzEpen8wqdJ+FREfplDYSTZ/krrg+Qd3rAUEy0RJobzuTkZHOdqCY9zU35y2PHyuLFi1XuT5w4UVq2aqUiT58zV7BPXbv27eS5Uc/JkqVL5NDhQ0F7bfHcPG3btk1eeeUVadCggbmeuvSQHZQVyg7lhlmEeO8oj759++o1GLPosGTMnxuwfwvzb1PSEeIHVpOxBe24oEs69F9169bVL24xaIcQuO666xgmJ126dNH9aH3Vn1AOJZ09lHTeoaRzEFOe+S7pwK+//SonTp6QRV8ulgcffkhKlSmtgzPsSZdmBmwYiGEGXfaArZCUKVtGHn74YVls/j5+Dg2JhA74vLGsYdas/8jjTzwhPXr21JkiF110kVx08UXSqHEjadyksT4yDBM8aWzSsFFDaXDRhXqIQ/mKFaR4ieI6uxpyyZ3g1v3oMKsOBwpB5kHqeQJJjy9ycFKsO96ty6BwE/fqq6/KN998I/+ZPVv3pcOALisrS9LT01XopZrrS8XKFWXAPQN0D7cdO3fo8pj//u6cqPonQC5CtOEQjVGjRknNmjX1hrZQRLiWWWZWEUnP/EPSJSQk6FJgyMxAuJ5S0hHiH1aTsSUUJF14eLj2YejPMzMzdVDNMLmDewjP9jjMH6Gks4eSzjuUdA5iyjP/Z9KZ//3+39/ll19/0ZlxOOEVm3djeZPLDCAg5/CtP5Y0QdLhZWJqOwZT+NYfsx0wm46EFifNABonNs6fP19Pe3322Wd1duXjTzwuT498mmGYIM7wRx+VBx58SE9s7dmrp1zR+Qpp0rSpVK1eTbKKF9XrA/aUw6w5CDsIOnyZg2sF/ltkVKT57+ESExMjVatW1Vli70+dKp/OmaN71T3yyCNy4403SufOnaVdu3bS+crOctvtt8k7774j6zesz/nyx5+bkEAEgg7bSKxYsUL7RZRBmBnIForIPgk7s2i2pMM1FtdUDHDvu+8++frrrwPiPZvXQElHiB9YTcYWtOeCLukw8A8LC1NZh4E7w/gK6oiv+hPKoaSzh5LOO5R0DmLK05GZdAAfNvYQeGnMS3LxpZfoYCvODLawP1FqRrpudI29x9DAixcvrgMqnNaHjbFRyf2pLCT48XzOGIRiWdbBgwdlx86duufEho0b9Aj+TZs3MQwThEE7xnVg7bq1snz5cvniiy90Zhv2VYOA733jjdKwUSMpUbKE7iuHmzSXO073osR1QveoM9cKzLKDgML1IiUlRS6++GK5b+BAeefdd+WrJUtkxcoVMu+zeSr433zzTXnvvff095u3bJZjx485vtzzn4JtAQ4dOiQL5i+QQYMG6WEZGMBCXKqks2bSuWKzJV1SYqLOTl+1apX1DM5iyp6SjhA/sJqMLejHCrqkYxjmfwslnT2UdN6hpHMQU56OSTqwfft2efOtN+WytpdJydKlVNDFJcZLkhlUYLNw7DeEb0KKFi2qG4BOmvSWGdBtVFnjT2UhwQ8+Z08IIQUTtG/sVYqDYvbv36/ybNHiRSrUcGODm4T69evpUljMnIuJi9UvdfBlDkRdmrWPKWbU4UAI7HPauEkTGTp0qCz7epkcPXZUZRw2GMcprnv27JEjR4/ogQlYKhrs4MZv566dMnPmTBkwYIBUqFAhe5ZJZPaJtph1iP1ecTIuZiRi6e/w4cN10/VAwHz+lHSE+IHVZGxBX0pJxzCMr1DS2UNJ5x1KOgcx5emopMNA6f2p70uXq7rqYQAYTODUvoTkRN1rCAdJ4AQ/VDpsAjp69Gj5evnXcuzYMR4eESKgU/CEEFKwQb8OWaezZg8d1C9ysCTz/fffl+GPDpdOl3eSoiWKS2RMtIRHReqpsNgaAZIOEioRM+piXXpoQoa5blxxxRV604XnwXJQPO/pn07LmZ/P6JYLBeU6gveGGYlYvnvLrbdI6dKlsyWdKSNcVyEyITQhNrHXHw5jeva5Z2Xjpo3WMziL6d8p6QjxA6vJ2IJ7JUo6hmF8hZLOHko671DSOYgpT0clHWZMzPzPLOlz881Sp24dM5BIl2hXtG4UjlkRGGxhoJGWliatW7eWYcOHydx583RZDyUdIYQUTLBvKZagYhnniRMnZNeuXboU9oknnpA2bdtKmXLldOY1lr5CPGH2NURURmaGxJvfYz827F9Xu3ZtvTGaZ64buKkrqNeNk6dO6h6vr7z6ilx73bU64xBLXXEzjmspRJ07MV4SUpKkeMkSevDOuHHj9DTYQICSjhD/sJqMLZR0DMPYhZLOHko671DSOYgpT0cl3aHDh83Aa7488OCD0rRZU8kqlqXLc3DKK77tjzUDMCxfwh5Dl5gOpf+AAaaiTLMGW79Zz0IIIaQgA7mGfh8Hxzzz7LNytblRO7/KBRKFk12jo1TUYTYd9l6DlAqPipBC4eFSvEQJnU333HPP6aEKuAkriEBk4vTzkc+MlMuvuFyKmHLAF1xY+ovyiE+MN2UVrdtIXFC1inS/+mqZPGWK7Ny503oGZ6GkI8Q/rCZjCyUdwzB2oaSzh5LOO5R0DmLK01FJh2WrWMr0zDPP6ECqVKlSugcdTnWFpMM3/zFxLklKTZaatWpJ7943yhtvTNRlsphlQQghJDRAn4+bESzrfOONN+TKrl3MNSJBl71Gx+I64VnWmSKx8XEqpXAdOf+C86VHjx56WARkVkEEe/nh9PPBQwdLy1YtJSMjQ8LDI/TwpcQUzDiMlbCIMEkrnCYXXnKR3HX33TLL3NTt27fPegZnoaQjxD+sJmMLJR3DMHahpLOHks47lHQOYsrTUUmHAdO6detk4sSJ0rNnT6lYsaK12XWkntaHveliE9ySmJosFc+vLF1NRXlpzBhd+kRJRwghocepU6dk6dKl8tjjj0njpk2kROlSKuuwD11iUpKe9oovdnK+5ElJ1hNisQcbvuDxzKbz54YjWDh69KjMnDVT7n/gfmnUpLGkpafrfnSeWenY37VQWCEpUrSI4KCmEY+NkIWLFuq+fxIAxWA+C0o6QvzAajK2oF+jpGMYxlco6eyhpPMOJZ2DmPJ0VNJhs2uctjdjxgy58847pVq1qtoIseQ1W9JhNl2CJJpBFgZibdq1ladHjtRNwCnpCCEkNIFsm/3JJzLokUG6v1rhzEy9GYyNi5OU1OwTX3H4EGaShZvrScVKFWXg/QNlzdo1engE8OeGI1g4cuSIfDDtA7nzrjulwUUXSmp6ms4kxAw6SDrPSemlzHX0qm5XydhXxsrKb1bqqbeBgPksKOkI8QOrydiCfo2SjmEYX6Gks4eSzjuUdA5iytNRSXfmzBkdbC1YsEAeeughqVOnjjbCcBPMooOcw+l9kHWFi2RKw8aNZMiwobJ582bdUJwQQkjogRudnTt2yGxzY3LrrbfqLGxc0iCjcEhCRmZhFVWeGWRZWUXkxhtvlAULF8iBAwf0ZsyfG45gAYcpTZo0Sd9jjVo19b17DtWApIuKjlJJV758eendu7e8O/ld2bBhQ8As/zWfBSUdIX5gNRlb0K9R0jEM4yuUdPZQ0nmHks5BTHk6Kukg2g4ePKgbej86/FG56MKLJDIyUpe8YtlSclqqijrMpos3qV6rhtzV/25ZsXKlnDx1ynoWQgghoQRuFjATG1/YPP7443LJpZfocldXXPbMsbSMdElJT9XlnpB0uHHBzR1mbX///ff6s/7ccAQDv//+u37Z9dJLL8kVna+QMuXKWqe5JugXXCgPnHQLSVe5UmXp16+vzPj4Iz3ZFUuHAwHzWVDSEeIHVpOxBf0aJR3DML5CSWcPJZ13KOkcxJSnY5IOH3bujcCffeYZadiwoUq6MEvSYTYANgOPS3BLRHSkDj569u4lX8yfr8t7CCGEhC5Hjx2T115/TTpd3knSMzL0yxxslYDrBg6QyJZ0YXqQQufOnXX/0zWr1+ihRf7ccAQDv/72q4pH7DPXqHEj3Y9O5VxKsso67MmHU9Lx5VeVKlWkf//+Mm/ePN3b9d+4YfxfMJ8FJR0hfmA1GVvQr1HSMQzjK5R09lDSeYeSzkFMeToq6cDPP/8se/ftlbGvvCzNmjc1nUekfuMPSZc9GyJNYuPdWlmKFMmUrl27yqxZs/RUOu5LRwghoQtuqqZNn65f3pSrUF4PjdCZ15aoc8XG6vUkNTVVWrVqpSeJL1q0SPbv319wJJ0pg81bNsv99w+UatWr6RJflAFmousXXcnJehgTJF2NGjXkwQcflCVLlmgZBMq2EeazoKQjxA+sJmML+jVKOoZhfIWSzh5KOu9Q0jmIKU9Hl7sCfOjYF+etSW9K6zatdSbdeaZRY4lOuqlsaRkZ4k6I18qCgVb79u21suzYsUMFnz+VhhBCSMHjt99+l08++UTu6t9fatetI4WzMnXmNb7YwQwyHCSBm8TExES56OKL9PTTGR/PkB07dxSYawdE27r166Rvv75SunRpc/08T+LM+0/NSNcDNFAOOIwJkg77vg4bNkzWrl0rx48f1y+6AqEczGugpCPED6wmYwvaMyUdwzC+QklnDyWddyjpHMSUp+OSDvzy8y8y9YOpcnnny8Xlckmh8LAcSYdgCRNeblJSkrRo0UImvvlm9qbXJ08WmIEWIYSQcwP7sS1ctFCGDh8mLS9rLcVLldATTaNcMbrcE7IKM+niE+KlRs0aclOfm2TSO5Nky5YtBebagZu+b775Rnr26iVZWVl6rYxzx+lMdBygAUmHw5gg6erXry9PP/20SsqfzpibRVMEgVAO5jVQ0hHiB1aTsQXtmZKOYRhfoaSzh5LOO5R0DmLKMzAk3S+/6BLW62+4XlLSUiQyOkoSrOWuaYUzdI8hvNyE+ATdt+6F0aNl6bJlcujwYR2kEUIICT3Q/3+z6hsZM3aMXHv9dVK+QnmJiYmW8IhwvW5gFnZ4ZIRKukqVK0nXq7rKK6++IuvXry8wkg43aLgpvu6663JuLuPcbr124lR0LHeFoMMNLg5nGv3iaDly9EjOtTMQysG8Bko6QvzAajK2oD1T0jEM4yuUdPZQ0nmHks5BTHkGhKRDw/js88/kjjvv0EEWBlfxSQk6mw57DCUkZks6d1yc1KtXT4YMGyqfzJkju3bvlt8o6QghJCSBaMKsuPfee0/uHtA/e0+2mBi9McR1IyE5UaJiY/R6UrpsGWnVupU88+wzOvOsIHzBg2snblbnmOtht27dJLNwpl4rMYMw90y6sPAwFXWNGzWWCRMmyOmfTlvPEBhQ0hHiH1aTsYWSjmEYu1DS2UNJ5x1KOgcx5RkQkg774qBRDx4yWPcNytR9heJ02RJOqfPMpMNS2GrVqsld/e+WKe+/J5u3buHhEYQQEqLgpmH37t0yZ+4cGTZ8mNSrX09iY2P1epGQmKCHR8QmuFXWFS1eTK8vQ4cOlaVLlwa9pMN7P3XqlGzbtk2mTp0ql19+uZ5ii/fukXTYkw7LfjGbEPLysjZt5G1zExooB0Z4MO+Fko4QP7CajC3oFyjpGIbxFUo6eyjpvENJ5yCmPANG0n276lt5/oXnpePlHaVMuTISExcjEdER4k6Mz5F00WaQUaFiRbmhRw8ZN36crFm7RhsVIYSQ0AM3DYcOHZIlS5fo9QM3nu647NPAsZepzsROTsre4zQjXapUrSL33XefLFiwoEBIuqNHj8qqVat0dlybNm0kLS1N3zskHU5GR/D+Y+JiVdpd1b2bfDBtGiUdIUGK1WRsQb9ASccwjK9Q0tlDSecdSjoHMeUZEJIOg6VNmzbJW2+9JX1u7iPValQTV5xLl+hgA2wMsLBUJ9oVI6XKlJYrOneW5557TpYvX05JRwghIQpuGo7/eFxWr1mtX9w0adJE3O5sSYeZdBBTyRB1SYkqrrKKZkmfPn1k9uzZASeqzhW89/3798uXi7+UUaNGSdOmTSU5OVnfuzs+XpJTUyQxJUmX+mJGYYVKFeWWW2+V/wTgezfvhZKOED+wmowt6Bco6RiG8RVKOnso6bxDSecgpjwDRtLhtLmPZ30sD//fw3LRJReZQUb2qXyxcXG6p05UTLSKu2IlikuLli1l2PDhsnjx4qAfaBFCCPnfwf5qW7ZslrffniQtzbUhPj5eby4wky49s3D24UOJiRIRGakCDzccWB6KpaLBDK6butR3zqcyfPgwufjiiyXRs39rQrwKurgEt85GzypW1FxXL5YHH3pI5i9YEHBfblHSEeIfVpOxhZKOYRi7UNLZQ0nnHUo6BzHlGRiS7r+/y/4D+2XR4kXy7HPPSqtWrXSwgdlzsXGxOiMA+9PFxrulSFYRaXBhAxk48D6ZO3eunDlzxnoWQgghocavv/0qu3bvkukfTpe2bdv+SVSlZ2bo4QmQdLhZxDUFy0LfeOMNOXz4cFDvaQpJ991338m06dPkPnM9rFOnjsS7LUFp3jtm0EXHxugXXuXKl5OOnTrJ0yNHytcBOAOdko4Q/7CajC2UdAzD2IWSzh5KOu9Q0jmIKc+AkXS6t863q2TCaxPMYKKjLtvxSDrsK+ROTJA4M/BIzUiXyhecL31uuVkb6okTJ6xnIYQQEorg+vHF/C/kyi5XSnJKit5cYHkrrhc4PMEj6TA7u0WLFvLyyy/Lrl279IbJnxuPQASSbvPmTfL222/Lrf36StXqVfV6ifeOWYSQcxGREfpnF1SpIj179ZJx48fLmrVrA05Oms+Ako4QP7CajC3ozyjpGIbxFUo6eyjpvENJ5yCmPANC0uGDP3nypGzZskXef/996datm6Smpqqkc5kBRmp6mp5QB1GHTbCLFCsqXbtdJZPeniSHjxy2noUQQkgoghuflStXyvU9bpDCRTLlvELnicsdpwcnQNRhfzoIOlxTGjduLCNHjpR169bJsWPHgnY2HV732rVr5dVXx8m1110nFStX1C0hCoUXkoSkBIlzZ28ZgVPRa9aqJXfedZdMmTJFr7OUdIQEJ1aTsQX305R0DMP4CiWdPZR03qGkcxBTngEh6QD2ltu7d698+umn0qNHD0lPT5cwSLrYWDPIyj6lLj4pUU+pwwyJVq1bydhXxurG2YQQQkKXn831Y/3GjdLv9tukdLmyEh4dpdsj4NAIfMmjki48TKXVhRdeKIMHD9YbVNzo/fzzz37dfAQaEG0rVq6UZ555Vtp36CCly5YWl9tl3nuEHrbkkXQxMTFSv3593e915syZsmPHDp2FF0iY8qekI8QPrCZjC/oySjqGYXyFks4eSjrvUNI5iCnPgJlJB44fPy5Lli6VW2+5RTJNRYOki4l16Ql92AAcJ/RFmsEXZkNccuklesIrNs72p+IQQggpmOBLns2bN8sDDz0oterWzpl5jUdsl4Dln7huQFrVrFlT7r77Lpkx4yP5/vvvs5e8Ws8TTOCGEjfZg4cMNtfDSyWreDE9KCLGHaunuXokXawrVg+VGDZ8mHw6d47s3rObki6IaNKkSXXM/syLNGzY8ELraUmQYjUZW3A/TEnHMIyvUNLZQ0nnHUo6BzHlGVCSDodArFu7Vu68404vSYclTIlJSXpCH146Nsl+9NFHdekOfs6fykMIIaTgAUm3bds2eeLJJ6Rlq5ZSvGQJFXOYdZ2UnKwz6XDtgLQ6//zK0qt3L3lj4huyfsMGORmkp7zihnLeZ/PkjjvvkAoVK0pKWlrOlhCYee6RdHFxcdK4SWN5euTTsmDRQvlh/w+UdEEEJR3JjdVkbMG9MCUdwzC+QklnDyWddyjpHMSUZ8AsdwVoIN+ZgdY9AwaYipahy5NySzoMtiJN54KXXr16dbn//vtl+fLlumk4fpYQQkjogf5/586d8sqrr8jV11wt519wvp5wGhUdbR4TdI+2qOgovWEsU7aMdOnaRUY9/7ys/OYbvcEJRiAmZ3z8sXm/16iExLUSkg6CLq1weo6kc5tHnJg+duxYWbFyhRw5eoSSLoigpCO5sZqMLZR0DMPYhZLOHko671DSOYgpz4CSdNhjB8tXH37oISlevJiEh4dJtCtGJV1GZmFJSk7KGWidf/75WiHnzJmjP6NLljibjhBCQg7cXO3bt0/en/q+3HnXndLgwgaSmJgo4RHhEueOU0kX7YrWQxWKlywul7VtI0OHDdObSRweEYxA0uEgiA4dOujNK05yxezBjCKFJaNwhr5vSLr4+Hjp0LGDvPPuO7J5y2Y5deoUJV0QQUlHcmM1GVtwH0xJxzCMr1DS2UNJ5x1KOgcx5RlQkg4DBxwE8eSTT+pMOXdCvLjcsbr5N0QdNsOOjjEDLdPoy5cvL7169dJByqZNm+TEiROUdIQQEoLgC55Dhw7JZ59/JsOHD5dWrVrqCeG6J1tcrCQmJepJ4RFREZJZtIg0bNxIBtwzQJeL4ueCEdzsTZw4UVq1bKXXRMw8h6QrnJUpGZl/SLqEhATp2rWrzPrPLL2xRVkF2rXSvB5KOhso6UhurCZjC9o2JR3DML5CSWcPJZ13KOkcxJRnwEk6DJgmTJgg7Tu0l1Jly+jG3zjVFRth4+AILOlBoy9VqpQOPF555RVZuXKlzobwpwIRQggpWKDvx43KN998Iy+//LK5NnSRzMxMvVa4XC7dKsFzOjgOIapVp7b07t1LPvzoQ9m7b29QXjuwzcOrr74qzZo1UxmHWYM6k868v/TCGRJrSbrExCS5/vrrZfHixXLy5EnrpwMLU/6UdDZQ0pHcWE3GFvRllHQMw/gKJZ09lHTeoaRzEFOeASfpMPCYNm2a3HzLLVKnXj1JM4ONmNhYHXzEJyWIy5J0RYsWlbbt2upG4YsWLZLDhw8H3BIeQggh/z64ecAyTsyqfuutSXqDmJWV9YekS02RJJzympQoyebX5cqX1yWgb016S3bs3GE9S3CA94qlrtiDb9SoURAvf0i6hHiVdJh57jLXTfx5qnnfN910k6xYseJfuUHMC8x7oqSzgZKO5MZqMragf6CkYxjGVyjp7KGk8w4lnYOY8gwoSYcKgMr2+eefy+DBg6V169ZS1FSQCNOhxMbF6fLXWHesnFfoPEk3g5DGTRrJgw89KJ/O+VQOHjxISUcIISEIrh24+YG40i95+vSR4sWKm2tFIZ19rVsmFM7QR3e8W9ILp0uDiy6UMS+Pka1bt1rPEhxguerxH4/LmrVrZMSIEXLhhRfqjbBH0mEWXYp5n9jPNcz8WZGsItLvtn7y7epv9ST0QMR8fpR0NlDSkdxYTcYW9IWUdAzD+AolnT2UdN6hpHMQU54BJ+mwHGf5iuXy4ksvSrdu3aRMmTISHh6up/TFmcFVXIJbCoUVkuSUZKlTr4707ddXpk2fppuGU9IRQkho8vPPP+ueprNnz5Y7zM1KyRIl9Qud6FiXpKan6QnhmGEWFRMtUa4YKV+pojz51FOybv36oLp2eN7n4i8Xy0MPPyS169TWG2E9OCIhXt8rtonAe4w077VMubIy4N57ZO26tZR0QQglHcmN1WRswX00JR3DML5CSWcPJZ13KOkcxJRnwEm606dPy3ozaJr45kTp3bu3VKhQIVvSmU4FM+mwXCkyJkoPkTi/yvnS9aqu8vobr8v27dt1hgEhhJDQA/0/lrx+uXixDBw4UMqULq03GTGuGBVXmVlFdJYZvvAJNzd7xUuWlGHDhsmqVav05gzXH39uQpwErw+ibdfuXTJn7hw9/KJGjRp6IxwZFamSTmcLJiaIyx0nyampUqd+PRn26HDZsmWLLpMNRMz7oqSzgZKO5MZqMragj6CkYxjGVyjp7KGk8w4lnYOY8gw4SYcByHfffadLllDhLrjgApV0OgAxAw8MQDCbDodIlChVUpo2ayqjnh8lmzZvoqQjhJAQBdcP5Ntvv5UhQ4boCeC4zOFEcCz/hKTLKJwh0dHRuldbkawseeihh2TJkiUq9wLx1NOzwevDTd53338nH874SPrdfptUqVol+8Y7OvuLLMyig6CDqCtZurRc1ratjH5xtC4Fxk1oIGLeFyWdDZR0JDdWk7EFfURBl3Tow0uUKCFVq1aVunXrSoMGDaRevXpMgARbMNSvX19XQrndbh3D+focmfwPJZ09lHTeoaRzEFOeASfpsJRn7969MnfuXJ0NgVkC6OB1KU9Sou4rhE3AMRjBhtjVqleTocOG6v48gToAIYQQkj/g8Ignn3xSKlWurMtdI6OjJCklWZe7YiYdpB1uHDMyMqR///4yb948PVUc1x5/bkKcBK8PQnHjxo3y9rvvSO+bbpSKlSrp+8HA1R0fr19m6WzzlCSpaq6P15ub5bfeeku3hAjUL7LM+6Kks4GSjuTGajK2oI8o6JIuLS1NOnXqJPfff7+MHDlSRo8erYfoMIGRMWPGyPPPP69CpXTp0np4k6/Pkcn/UNLZQ0nnHUo6BzHlGVCSDqCR4ITXpcuWytBhw/RbsogISLpwlXQZ1r5Cse44XcaEE/zuueceWblyJSUdIYSEODgI4plnnpHzL7hAD46IiI6ShOQkFXS4dqikCyukA70+ffrI1KlT5fvvv9f9UAN9bzrcJJ04cUKX6L7yyivS/eruOTfC0TEx2fu2YuaCuZnFl1gNLmwgd9x5p0yfPl0PV6KkCz4o6UhurCZjC/qIgi7pMIsOX+KjX8Op1Rs2bJA1a9bI6tWrmQAItlZYu3atPPbYY1KnTh1JTEz0+Tky+R9KOnso6bxDSecgpjwDTtJhkIQZDRs3bZRnn31WLr74IpV0mE2HGQKFsWQps7C44mIlLDxM4uPj5ZZbbpGvvvwqYDfFJoQQkj9AuOGb/Hr160tMbKxExbr0Cx7sS4dEu7KXu6akpMjVV18t48ePl9XfrpZjx44FhaTD68RN8FNPPikdOnTUAWsh835wii1m0uEkdLw/zBRs0rSJHi7x6aefypEjRwL2/Zn3RUlnAyUdyY3VZGxBH1HQJR22MnjhhRd0RjHGCyQwmTRpkjRt2lS/EPP1OTL5H0o6eyjpvENJ5yCmPANO0nnA0pxx48bpjSUEHQYd8Ql/SDrMpIOkc8XEyA3X3yBz58zVigr8qUiEEEIKHrt375ZJ70ySDp06SrESxVXQYR9TLHnFTDrMwMb1JMFcTzp06KCz7r5c/KUueQ0GSXf48GHdDgJLvZo2a6Z762HmHGbR4YusGJdLpV1mZqZcdtllMuKxETJ/wfyAlpDmfVHS2UBJR3JjNRlb0EeEgqTDFzHbtm2z3jUJRCZPnizNmzenpAugUNLZQ0nnHUo6BzHlGbCSDkte3570trRo0SJb0mEmXUK8ZBQprMuWPJIuJiZGul3VTQ+a2LN3j36rFugDLUIIIf8OBw4ckFnmhqXfbbdJnXp1JR0zr92x2fuYpqeJK9aVMwsbA4ghg4foTDPc9AWDpDtw4KBe73r16iW16tQx18PCOosOhykh2ZKukBQrWlQ6deoozz33rB6Ocfz4cUq6IISSjuTGajK2oI/gTDoSCHAmXeCFks4eSjrvUNI5iCnPgJV0qHTTp0+TTpd30hkCUTExOsjCTAjPnnSQd5B0HTt2lNdef03Wb1gvx388Lr/9zlNeCSEkFDly9KgsNjefj454VNq0a6Oz6aJdMSqyIOli42KzDyKKj5eLL75YBtwzQD6Y9oHOwAt0SYfXt3fvPpkw4TVp0bKllChZUhKSknS2IE6wTUhO1PeKmXSlzH/r3r2bvPrqq7qH3Y8nfqSkC0Io6UhurCZjCyUdCRQo6QIvlHT2UNJ5h5LOQUx5BqykO3HyhHw651PpdWMvKVm6lCQmm4FIYoIuWcJAK84j6aKjpWWLFrp/HToGzKL49TceIEEIIaEIbli+/fZbGfvKWLnm2mukdJnSelMaaQKRhS99sC9dQlKC1KhdQ27sc6NMfHOi7mUXqAcreIBk27lzpzz99NNSvkIF/ZIKp7rimohtIHB9jIrJ3nOvXLly0rt3b3n33Xf1xFucCuvPTZYTmNdFSWcDJR3JjdVkbEEbp6QjgQAlXeCFks4eSjrvUNI5iCnPgJV0GFAsXLRI7hs4UOrUryeZWUV0Jh2iAy1L0mlnc8mlMnjIYJV6mA2BhkYIIST0OG2uHThdbsp7U+TWW2+VChUq6HUCs+dw7YhPSpBYd6zOOitfsYJ07tJZnn/heRVZgX7tgKT77rvvZMiQIZKenq4yDqIOW0AULpKZLemisyVdpUqV5PbbbpOZs2bKrl279GAlf26ynMC8Lko6GyjpSG6sJmML2jglHQkEKOkCL5R09lDSeYeSzkFMeQaspENFxtHqTz71lLRp11ZKlSmtS1wxSyA5NSVH0kVGRkrdunVzlixhAPPLL79Yz0IIISSUgIzauWunzP5kttx7371ywQUXSHRUtB6uAEmXlJqsog6SLrNoljRu2kQGDxmis+8C/doBSQcB+fDDD0tSUpLKOOyxh1l0f0i6KP3zKlWqyH333quHRhw8dFDfmz83WU5gXhclnQ2UdCQ3VpOxBW08FCTd6NGjg+KLlVDm7bffpqQLsFDS2UNJ5x1KOgcx5Rmwkg4DrQ3rN8j4CePlhh43SKXKlcSFDbFNg09KTsqWdBHh2mirVqsqN998s0ycOFG/WaOkI4SQ0AT9//79+2Xxl4t1xlnNmjV1thm+1IGkyxZ1KZKA60hCvFQx14877rhTD1f4N26g8hIsx92wYYM8+OCDkpqamr3lg+vPM+kiIenCw6RGjeoyaND/yfIVy3X7iEDeq5WSzh5KOpIbq8nYEgqSDrOjx44dK9u3b7feNQlE3nvvPZ7uGmChpLOHks47lHQOYsozYCUdprDjePUpUybL7XfcLtWrV5fY2FitNNifDstesRdPtBl8VahYQbpe1VWef/553SAbP+tPZSKEEFKw+P233/Uk09WrV+vebfXq1dMveDC7DGILBw+lpKfpSajhkRFSolRJ6dmrpyxcuDBgJZ3neoZrG2aYDxgwQFI8ki7WpZIOW0LkSDrzXmvXrqWHZ6xfvz6gZ9EB89oo6WygpCO5sZqMLWjnBV3SlS5dWkaMGCGLFy/WLW6OHj2q+1EzgZETJ07IoUOH5OWXX1YZlJKS4vNzZPI/lHT2UNJ5h5LOQUx5Bqykw6ACG2TPnDlTHnjwAV3SitP48LITk5L0RDtsAB5rUrxkcWnWvJk88sgj8uVXXwb03juEEEL+XXANwCwLDBJwgiu+4PFIOiwNTSucbq4jiXo9ySicoV/yzJs3T06ePGk9Q2CBZa4I5OP8+fOlb9++kpycnCPp0nLvSReDpb3hUr9BfRn5zEjdAiLQMddrSjobKOlIbqwmYwvufQu6pMvIyJCrr75aHnvsMXnttdd0YP3WW2/Jm2++yQRApkyZovvR4TqF7SY8YzfG+VDS2UNJ5x1KOgcx5Rmwkg6NBY0QAxJciC+55BJJTMweVOEx2Qy2Es2AJN4MtHCyXfXq1aRfv74yd+5cbQT+VCZCCCEFD/T/+CYfA4ZGjRpJXFyc3ixC0kFmQdRhRjauJynJKdK+fXuZMWOGHDlyJCCvHRB0EI979uyRjz/+WHr27Kl70kHSuWJjVdJhNl1iSpK43LES5YqWSxs3lDEvj9GZJoGOKXNKOhso6UhurCZjC/qvgi7p3G631KhRQ1q3bi1du3bVgXv37t2ZAMm1116rjxdddJFkZmbqqidfnyOT/6Gks4eSzjuUdA5iyjNgJR0GJRgwrfxmpbw05iXd1wAzB/CyExKzxVxqRprOHMCePLgQdO7cWRvv6dOnA3KgRQgh5N8H/T+W3EyePFnlBGbS4WYRS0TPlnRJ5nrSokUL3dMUWywE4vUD10PM8sOhEe+++67OIsGXVdmSzmWuhemSnJaq++whhbMypePlnWTimxNl3w/7rGcJXEx5U9LZQElHcmM1GVvQdxV0SYdZ0RA/+PIFs7QSEhKYAAy2mYBYyUtRw/yzUNLZQ0nnHUo6BzHlGbCSDpXh1KlTsnXbVj0hqF27djmbj0LSpWdk6EALJ71ik2wMwnCKEBoYBjP+VCZCCCEFD/T/kG3Tp0/X2RYYMBQyA7vklBSdcaazzixJh//WsGFDGTVqlO73hi+HcEBDIAFJd+zYMd1nb8KECfqFFAannpl0+NIKs8rjEhNU2FU6/3zpdWMvmTptqhw4eMB6lsDFfF6UdDZQ0pHcWE3GFvR9BV3SMQzzv4WSzh5KOu9Q0jmIKc+AlXQAAyVsQop96TAowT4UeNnxZiDiOc3OI+lwel+DBg1kwmsT5OixozqoAf5UKkIIIQUH9PtYHvrpp5/qTV3RokX1QAUcFpGclpIzC/u8QueJO84t9evXl2HDh8kXX3wh+/bt05u1QALXQizfXbZsmYwePVrat2tnXnecSrrYuFhJTUuVGHesBrPo6l/YQPrfM0BmfzJbN1UPdMznRUlnAyUdyY3VZGxB30dJxzCMr1DS2UNJ5x1KOgcx5RnQkg5gVhz2pcPyHixpxcv2SLrcM+kw9b1OnTry/AvPy46dO+TMz2f05/2pVIQQQgoWOAkVN6H33nuv1KtfX091jUuIF3divCSlJqukww0kZmHXrFlTBt4/UD6e+bFeP3BwUSABSad7tC6YL08++aS0bNlS5ZxH0qWkpUpkTJREuqKkSLEi0rR5Mxk8ZLAsWLhAl/0GOuY6TUlnAyUdyY3VZGzBPS8lHcMwvkJJZw8lnXco6RzElGfASzoMtDB74MYbb5SSJUtqpcGyHgy4IOpU0kWEq6TDQGvEYyNk9ZrVcvzH4zmz6QghhIQWEG2rvv1WRj7zjHS64nIpW66cLg2NiY3RL3qSIenCCumephdUuUD63tZP3p08WbZs3aKz8AIJ3DzqaeezZsrDDz8slzZsKHHuOImIjJRY84jZgeFR4RIZEynFShST9h3ay1NPP6XXztOnTlvPErhQ0tlDSUdyYzUZWyjpGIaxCyWdPZR03qGkcxBTngEv6XSgteob6d//bh1IRcfE6MbYmDmAfXgg6cIjwyUqOkqqVKkiDz70oCxctFAbMAQfIYSQ0APXjk2bN8sbEyfKTX36SLXq1fXLnIjICBVc2V/whEm0K0rKVSgn191wvYwbP17WrVv3r9xI/RNw84hDIya9/bbc2rev1K5TR9wJ8RIVE20e3ea9JOuMclwHS5cpLV2v6iovjh4tq775Rn46TUkXzFDSkdxYTcYWSjqGYexCSWcPJZ13KOkcxJRnwEu6X3/5VQdNQ4YMlksbXqoz6Dwn2GGQlWISGRmpnU6lSpXkrrvuklmzZsmO7TvM4CSwBlqEEELyB9xwbd++XQ+PuPe++3TPUlwndImoJekioiMkKjZKipcuIe07dpCnR46U5StW6KFFgQSE45o1a+SF0aOlS9euUqlyZYlPShCXO1YfVdJZJx6WL19eevTooQdMrFu7NuCEoy8o6eyhpCO5sZqMLZR0DMPYhZLOHko671DSOYgpz4CXdNiLZ+vWrbrX3OVXXC5lypWRhGRrcJKYoDPq0OFA1JUrV0769OkjU6ZMkU2bNul+doQQQkIPXDv27t0rc+fOlWHDhqmkgMTK3sctTlLTU811xCUxJoWLZsrFl1wiDzz4oCxcuDCg9nHDjdEv2Pbh669lyNCh0qRpUylavJi5Dibq/nqJKfjCylq6GxMj559/vvS7rZ9MnjxZNm/enLM/ayBj3iMlnQ2UdCQ3VpOxBf0FJR3DML5CSWcPJZ13KOkcxJRnwEs6VIpdu3bJW2+9JTfedKNUr1ld4hPdOgMiJs6VLelispcwYc+6a669RsaPHy+rV6+W48ePW89CCCEklMCepAcPHtQbxmeffVZat26th0R4JB1mZUNwQXThOlKhUgW9xsyePTugrh24BmLrBsjDu+6+W6pUqyqJ1mxyvH68dswKxM1wziEYD9wvH8+aKdt3bA+4QzB8Yd4jJZ0NlHQkN1aTsQX9BSUdwzC+QklnDyWddyjpHMSUZ1BIOjRGNMp77r1HLr7kYklIStB96KJjY3SAEu2K0Zl0qEwdO3WUp595Wr5a8pUcPnLYehZCCCGhBCTdsWPH9AubV199VTp16qQSK8ySdDh4KBXbJyQlSpzbLWlpaTpbe+oHU+Xo0aPWszgProGQdPPmzZNevXtLseLFJTI6WiVdSnqavgecVHteofPEbd5H/fr1ZcTjj+XszYobz0DHvEdKOhso6UhurCZjC/oLSjqGYXyFks4eSjrvUNI5iCnPoJB0mA2BJUtDhw2Vlq1bSooZkITjRFdXtqRzxcXqbLpM07AaN20i9z/4gMyZO0f2799vPQshhJBQApIOe8t99913uvSze/fuEhcXp3u3xZprRkZmYckokikJSUkSFR0t0dEx0qxZM5n45kQ5eOig9SzOg2sgJB1uwq7q2lWSU1LkvLBCkmiug2mFM1Q2qqQzl/T4+AQ9+fXFl16Sb79drZIS5RDomPdISWcDJR3JjdVkbEF/QUnHMIyvUNLZQ0nnHUo6BzHlGRSS7sjRI/LlV1/Kc889K507XyHp6em6ZAkDK0g6NzbQjo+V1Iw0qVajmvTo1UOmmgq1e/du61kIIYSEErh24KYLX/LgBqZnz5460wySDl/sQNJlZhWRxKQkCTc3f/jziy66SMa8PEb27NmT8xxOg9eAG7uPPvpI2rdvL/Hx8TprDktcVTSaeCRdYmKiNG/WXCZOnKhyEj8XCO/h7zCvkZLOBko6khurydiC9k5JxzCMr1DS2UNJ5x1KOgcx5RkUkg4VECfbvfbaa3LD9ddLZmamzqTDkp/U9DRJMoOVuMR4iUtwS1rhNGnYpKG8/MpY2bptq/UshBBCQpHTp0/rfm633HKLLnfFTSMecyRdMiRduEq6evXqyciRI/XABRw8EQiz0H77/Tc5euyovPvuu9KyZUtxx7nlPPMeIOkKF8mUjCJ/SLqkxCT9O5g5CNEYDEtdgbnOU9LZQElHcmM1GVtwz0xJxzCMr1DS2UNJ5x1KOgcx5RkUkg5Llr7//nutJP369ZOiRYvqvkKR0VEq6dIKp+tJd5ExUVIoopBUqFReHn/ycVm/Yb31LIQQQkIRyLaVK1dK//79daaZzqRzuXSZKCQXJB0OHsKf49CFoUOHyvLly/WEV/ysU/zX+h+Wuu7es1smTJggTZo00SW7uPHVmXRFCkt6rpl0ycnJ0qZNG5k+fZocOHDAr5uqQMC8Tko6GyjpSG6sJmML2jwlHcMwvkJJZw8lnXco6RzElGfASzqAQQqWLH322Wdy//33S4kSJXRAFREVIekZ6VI4q4gkp6WqtMPbKlq8qAwaPEi+Xf2t9QyEEEJCEcyG27BhgzwyeLC5NhSTSHODGh0To1/wQNTh4IjIyCi9maxSpYoMHDhQrzXY0xTXHn9uTP4t8NpPnjwpmzZtktGjR8ulDS/Nng0Yli3psCddqgn2p8MS2IyMDOncubO5YZslR48esZ4l8DFlTElnAyUdyY3VZGxBf0VJxzCMr1DS2UNJ5x1KOgcx5RkUkg4DFSxZwuyG4cOHS5kyZSQsPExnP6RlpOuSJQy4cJAE3lZWsSx56OGH5ZtvvrGegRBCSCiC6wf2Z3tu1HNSq05tvVbExrtzTkdVSWduWguFhUmlSpX0Rgc3gZi97fSebpjJh8MfsN3DM888IxdffJHEulz6WiHp8PrxBRXeS0ysS8pXKC+9b+wtX3zxud64BQumjCnpbKCkI7mxmowt6K8o6RiG8RVKOnso6bxDSecgpjyDQtIBDLQwGwIDFQykIiMjJTwyQgcpWLKEgRc2A8fbwnLY++67T5YsWSK//PKLo4MsQgghzoH+H4cIvfb669KmXVspU66cbo8QY64XiSlJEp+YqIcQYXY2bip79eolb731lqxfv163WnDy+oGbxkOHDukXVI8//rg0qF9fl+riSypIuuS0FEkw7wHvB4co1alXVwbcM0CWLF2irz1YMGVMSWcDJR3JjdVkbEF/RUnHMIyvUNLZQ0nnHUo6BzHlGTSSDmzdulXGjBkjtWrXklh3nEREReqhEVjygwFKbFycVqoimZlyW79+MmfOHJ2FAFFHCCEk9MCNxb59++T9qVOlR8+eUqNWTRVcYVHhethQfGKCxMS4VNJhKwXckLz00ks5+9LhCyKnwLULN6OLFi2SIUOGSJ06dcxrjdE9WZNSk1UyuhPjJT4pQbKKFZUmzZrqst5Vq1bJmTNnrGcJfMxn5Kika9GiRVygplGjRg18Cbf/JQ0bNmzi698IlFgfB/kLrCZjC/o7SjqGYXyFks4eSjrvUNI5iCnPoJJ023dslzcmviGNmzbRvYRi4lzWkqVUnVHgkXTYl6eXGYxNff992bVrly6V9adyEUIIKVig7z944KDMnj1bBtxzj1zS6FK9fpwXdp7Ovo5PiBdXbKyKL9yc4eCFESNGyPz58+XY8eOOSjqINlzD8NoH3nef1KheQ6KjoyXcvNbklGRJSEoQlztWRV2psqWlXYf28tTTT+usc9xwBgvmM3JM0jVp0qSpL6HF5H8aNWrUzvpYiA1Wk7EF/R0lHcMwvkJJZw8lnXco6RzElGdQSbq9e/fK1A+myhWdO0vZCliylD2LALMJMKtAJZ3pENLS0qR79+7y+uuvy8aNG7UCOznQIoSQfxMccoC+DqeYrlixQh99BbPD8Ii+9N+4WQhEcGNx5MhhWbBggQx/9FFp3eYy3bcUBy3EuGIk3lxD3PFu3ZcuLT1dLrroIrnr7rvlw48+ksOHDzt67cAXTFu2bJHJkyfLrbfeKpUrVdYbbNysYjagOyFeolzREhsfJxUqV5SrunXTWYD4GSdPpj1XzGdEScdQ0vmB1WRsQX9HSccwjK9Q0tlDSecdSjoHMeUZVJIOA6a5c+fKzTffLHXq1pH0zIycWQRJKUkS547TDiElJUUuv+IKeWnMGFm56hs5euyo/PZ78AxYCCHEXyCRpk6dqhKnWbNm0qRJE2nevLnPNGzYUFq2bKlfYOzcudN6hoINbiyOHT8mXy//Wl4Y/YJ07tJZSpUupdeK6JhoXe6K01Fd5vqRZB4rVq4kXc1NyYTXXlP56aTsws0Xlq7iWvb/7Z0FnFVl+sdlursASUFKTMDOXQS7wFX/YmAXIna3YqBid2GLq4sdsObaCQYYiKKuomCvtfv83+8797B3h3tmzszcmTvx+/p5PoMz9554z5u/87zPs9NOO1nv3r19PFYERUS62rAPGd6rfOgqK9ue48fbDe66SZQhkS4aEunajkmka5hYkwmF/k4inUwmS2QS6cKRSLesSaRLIa4825VIR3y555571o455mjbeJONrfvy3S3LLbLYslRcGhPp0rpYcUmxbTp6lJ01+Wx76pmn7KtFX9nvf7SfrT+pIErji0oyjyVqYcsb3jFsY3vzzTddO3jOZs2aZU8++aS3v//97/7nyy+/7D/D5xG129NCXTQNRLo77rjD9thjD1tzzTVt+PDhttZaayW01Vdf3XuKXXXVVfbxxx/HjtCxoT8ittzbb79tt9x6iyun3W3FFfv7CQgJI8ju6rO8MoYUFfiM4ettuIFNueAC73GYyja0ZMkSP5E+/fTTbdTo0X7CxAQ7OycnFoc1z9Iz0y23INdGrDnCJhw6we66624vwEqki4ZEurZjEukaJtZkQqG/k0gnk8kSmUS6cCTSLWsS6VKIK892JdJ9//0PfrvW2WefZVttvZX3hiDDa7DQyi8ssC4ZaW6hlW9rr7eOHXHUkXafa8wLP1tov/3eeskjFi9ebPPmzbPXX3+93q1niQyRhcUkgmRrL7LYWoXXBteQ6NrCLLhHxCPuXTQfBovPPvvMC3MEjcc7hm1sF198sZ133nl20kkn2dFHH23HHHPMUjv22GPtjDPO8J/h83fffbc99thj/vksWLDAfvzxx9jRRUcCkY5nve+++7LI9d5yiRbAGAId3nbXX3995/Gkc//Rt300/yN74MEH7OCDD7KVhgzxExA80opKSmLJh2ozhONdN2DgADvxpBO92J1KsWvRokXee3zixENtrbXXsuqaGsvJzbW8ggIv0uXm1WZ6zS/Mtw032tCOP/54e/Chh7y4SL1oL0ikk2ES6Rom1mRCkUgnk8nCTCJdOBLpljWJdCnElWe7EukQGd6a/ZZdetmlPubciiuu6ANo03AJ/s221/TsDO9VsNLKQ233Pfawa6+7zm/9+fXXX2NHaXlmzpxpkyZNslGjRvmJZ6JtZ2HGInrcuHHeMwqhrjVBHNxyyy1t3XXXTXhtYbbJJpv4hf+2227rvblE0wkW1ng5XXbZZX5rN8+E8qWcoxqfx4L6hycOAyeDkOhYSKRrGPr/f375T3s25om92mqr+cljRmaG97yu7lpjlW5yk5eX77O8MtE59NBDbf78+SltM2y3nTFjhhvLdrfBKw2x8soKN87Vbs+tcP/Oza3NSltUVOQTXpxzzjn21NNPe3FPIl00JNK1HZNI1zCxJhOKRDqZTBZmEunCkUi3rEmkSyGuPNuVSIc3xNx5c23arbfYvvvvZ0NXHupFuvSM9FhcoRLLKcjzQbR79ellm22xuU12ixa2/5Elr7V49NFHfXwoxK5hw4Yl3HYWZiweR48e7b2l8MZrLb766isfnJwF/qqrrprw2sJsxIgRfpsdYhBeH6LxfPfdd96L8a677rKpU6faUUcd5TvGkSNH2nrrrefFFYw6hfG7MOPvweeDZ7T11lvbYYcdZldffbXvzBGuRcdAIl3D4A3HllfGgjPPPMP3VwyBjB14Ydd062pVNdU++RCTSpIP7b///vbOO++06gueujARJVnSmLFjrM8Kfb04V+iul3h0CHZ41SHSlZSU2I477ui3MePBzTZZiXTRkEjXdkwiXcPEmkwoEulkMlmYSaQLRyLdsiaRLoW48mxXIh1C28cLFtj9Dz7gt7ISe4lGy3YfRLrSivKlGV/ZCjRsxDA78sgjvPiBwNdaIFThhcFiGNEk0WQ0zOg4EWbGjx/vsxG2FmwjPuuss7zQhsiT6NrCDGEAw+MLD0ARHcSDhQsX+g4WLxieO88A4RNBhfpA2SYq98bY2muv7Y+1/fbb24QJE/xini3KLOZF+0YiXcMwuaCtffHFF14Epy0wBAYinfekq6nyIh2iFyLd+L3G+63/P/z4Q+worQ/bVu+48w7bYsstrGv3bt6LDpGO8Y3YeYh0Xbqk+WRJe+y5h91+x+1+izxe51EmVG0Fd60S6WQS6SIQazKh0O4l0slkskQmkS4ciXTLmkS6FOLKs12JdL/99rt98eWX9vRzz9ppp5/mOxky3ZEsApGu3C1aMIS67Lxc67tCX9vLLbRefPFF++mnn2JHaXmaI9IFggxbl/CqQlyM0jCay+OPP+49rZp6zZhEusaDUHLJJZf4zI2Uu1swJizjZBnHxxByEAMRd/AwagrUS4QPxPMohkeSttsmH4l00cFj9brrrvN1HzEuw40fiF7EpEP0IhFDrUhXbuPG7Wqz/j7LJx4iO3hr9MN1WfDJArvxphtt4z9tXJvNtbCgdquru1Yv0uXk+ElweXm5996ecf8M++zzz+xfv/wrJdfbVNy1SqSTSaSLQKzJhEK7l0gnk8kSmUS6cCTSLWsS6VKIK892JdL94RajS7791mbPmW0XTZ1qI/880nc2XbosZ0XFRVbpFlqVNdVepOviFlqVlZU2ZswYe/qZp5ssRDSF5oh0GItshJQrr7yyVQKA0zHddNNNNnbs2KUCTqLrCjOJdNGJ7+Tw8Lzgggt8B0j5Bd5u/DtROSfDeLacI9gGy5a+6dOnN6l9ILwhgJPEgqQVDECJ7IQTTvA/zz33XL8VXCQXiXTRwcPstttus+23386PGSSK8J5plRX+BU/gSYdnGv3hvX+71+Z/PN9PrKJMUJLNvPfn2aWXX2Yj1lrTC3S5BXlerKvyMfSqakW65Wq35zLm8LLl62++tt9++y0l19tU3LVKpJPRf0mka4BYkwmFdi+RTiaTJTKJdOFIpFvWJNKlEFee7Uqko4L89PPPPlPldddd70UhOhtuhQVXVU2V37ZUXFJS+7vC2mDaZLhszW19yRDpMIL9k5mzpb2P8DI8//zzl56/sSIRn8ck0kUDj7K5c+f6uIMk2whizCUq2/osKPfAEn2mIUOURahj0EMQbgwIHnh7EndxpZVWsjXWWCOhEWeRnyRSYathlI5eREciXXSYIP3tb/f5beVkBy8pL/MiHd5pCHV5BbUx6YjxttVWW9lNN99ks9+ebd99/53959+tV29pI3ipvjV7tp1z3rk2dJWVLTMn23Lycv1WV8Y5POmyc3K8qFhTU+PjWD7z9DNecOe77amduWuVSCej/5JI1wCxJhMK7V4inUwmS2QS6cKRSLesSaRLIa4825VIBzSir7/+2u64807bYcwYv0hZDk86t9BaKtKV1op0BQUFflvTfffd57PkQZRK1lySIdLRgQZeTi0ZuJzy+Oabb+zkk0/2Mf4SXU9DFohEEumiQUIQ4sJtttlm9QoqrWXUNdpJYz3qEHdpWwh9iD+Jjo0F97jDDjt479DWaIOdCYl00UG8emLmTDviyCNtmOvvui7f3Yt0+UWFVlpRtlSk4wUPsUHJJP7CSy/Yoq9bN1sq18lkjph4p5xyig0YOMDSMtItKzfHx17FYxyPuqzsbMt0E+7effrYye5zfB4P1/bWxtz1SqSTSaSLQKzJhELbl0gnk8kSmUS6cCTSLWsS6VKIK892J9JRSfDgIfbOuN1381tb07My/U8CfyPSlZSW+sqFSIeAcOutt9r8+fN9A4xSyZpLc0W6YKFNRk68rVrSk27x4sV2xx13+A6V7Y+Jrqchk0gXHerugw8+6D08EUwYKBOVaV2jfPksWSlXX311/29EBOoYP/k7v8erjW2z/H+i49Q1Psd18B0GkBdeeCF2pQ0jka5tIJEuOpTV866OkyRn5KhR1rtvX5+MAQ+1krLSpSIdYwdt7Iwzz7DHn3jcFn620P79n9YR6WgfbFf99ttv7amnnrKjjz7a+rrr9JPrnOzazK5Vlf5lFLFXERiHDF3JbyefPXu2F/jaG+6eJdLJ6L8k0jVArMmEQv8hkU4mkyUyiXThSKRb1iTSpRBXnu1OpAM8y56Y+YQdePBB1qN3L79IYcFSVlnu4/QEnnT5+fm+I7rmmmvs7bff9qJCa3hDNFekC4zvcpyvvvoqduTk8/HHH9uBBx7ohZ76Fvf1GcIAJpGuYYIsupRXlCy6gehCPd500019ggnqBHHgzjzzTL8lmp94QvJ7hBpiafF56k+UZ8pnOA/fu/TSS704EAWJdG0DiXTRoayIBUk9H7PjWOs/YIDlFxZaRlamHzfyCwt8tnBEujWGDbOJh020u+6+y97/4INWGTuA9oE3HN7fjz7yqE2cONF69erlPcYR6RAT8abDAzDXXS+C3ZrrrG2XX36599Jtj7h7lkgno/+SSNcAsSYTCv2HRDqZTJbIJNKFI5FuWZNIl0JcebZLkQ5PATqX40843lZfY3Wrrqn2MYVYtLB4KXY/ub28vDzvHUYcLMQR4tK1J5EOr6lddtnFC19RhZPGgniJVxfnSnQNUQxhAJNIVz8MAAjG22+/vRe2oghoQdmyHXW//fazO++8c+n2Z44XGG2Chf37779v1157rY0ePdoPwomOGWa0lb322suefPJJnwWzISTStQ0k0kWHsqLP4/733HNPGzxkiOW6cWI5N5EkQziWmZPlxboBgwbaX3beyS67/HJ74803W81DjfZBVm+eD5PRgw48yHr26OmvMSs320rKS73xcgovwOV79rA/bzrSbp42zRa002fq7lkinYz+SyJdA8SaTCj0HxLpZDJZIpNIF45EumVNIl0KceXZPkW6f/9hr772qp1z7jl+wdmrTy+/3TW3IN97QwSJI8h8R8D6M844w2bNmuUD47fGQitZIh1bEAlezpZXEg0kG2LR3XPPPV4AaupWVywQkiTSNQzPMhBRKLO6ZRlYUKZ4OB5wwAFehCHeVBBbMQwGmYULF/ptcldccYWPa4gwE8VrjzpAfcMz76OPPoodMRyJdG0DiXTRoawQskl4Qh+9yqqr+oyujBeFRUV+/CCDan5RgXXr0d3W22B9H+vtOTeZbU2Rjm3xeMWRiZYkF927d/eTXWKw4klXXFZieYVuvCsvtX4r9rdttt3W7nJ1oLHJX9oK7p4l0snovyTSNUCsyYRC/yGRTiaTJTKJdOFIpFvWJNKlEFee7Vakmz1ntl1+xeW23fbbWf8B/a2gpNAycrK8ZwEinV/QZGf7rJOHH364r2AffPCBb4QtTbJEOjpRRBo8PhBdks2zzz7rt00i0jXnOgNBSSJdONQ74iKSgTGKIIrQQpnuvffePqYii/bG8tlnn9m0adP8NtYonnv8nc/RIUcZvCXStQ0k0kWHusd9P/TQQ37ChAcxW1sZDgtJHlFe5pMQ4aWGZ3bvFfra/gce4DOEt5ZIx/PEk/X111+zK6+60v6y01989layuObk1sbO4xpzCvJ8RtohQ4fazrvsUjtx/TL5E9fWwD0XiXQyiXQRiDWZUOjjJNLJZLJEJpEuHIl0y5pEuhTiyrNdinQsYubOm2s33XyT7bb7bm6RMsQtqvKtS0aaD/yNNwRxhbKys6xfv35e5Lr2uuvszbfeatFMqQHJEulYcPOT7ah4ftC4ozSSKLA1km2R2223XSQBpz7jOjGJdOHg4YJnGzHl6hO0AmMA3WSTTfwzQmxr6nP/9NNPfawqOlk8MxOdK97wuKM+kOm1IWFQIl3bQCJddKh7TO6eeeYZmzJlii+v4uLa8AgFRYVWXlnhQyYg0nXJSLec/DzbYexY++u997XKCx7geeLl/NTTT9nkcybbFltuYZWVlZaenm65ebneiy6/uNCy8nJ8siRi5yHmIzy2ZPzSlsQ9l5SJdODazMZt1Vwd3TtRW26KuWMdnOgcbcVij0PUQ6zJhEIf19FFOhbr9NtVVVXWrVs372ksazvWo0cP69mzp5WVlXlBiBdMiZ6jrPVNIl04EumWNYl0KcSVZ7sU6agoeCWxVfOQCYfYsOFrWKFbtHRJ72J5blGFp0FmVqZl52RbDzdQkCX1nHPPtWefe87+9csvsaO0HMkS6TA3cfUiCOIGQg8LuGRA9sALLrhg6YKexWrdc0c1vovVFemiNOj6aO732xJsQb3ooou8V1tDIh3PhLozbtw4LyY0B+oLW1ePP/74pc+4vmeNSMffb7rppkgL/kceecTXz/oEwKCOjRkzxm644YbYN8OJf+7NqQON+W6q6xqC6BdffOG9fUlswHOfOXOmb094vL744ov25ptv+mdS91pTLdKluuwaA9dKfE/Kkro4atQoK4mFR0Ckq6iu9MmHiE1HDLh0Nync3PVrd9x5Z6uJdHjssa39/gfut2OOPcY22ngjKysvt4zMTMuPvYTKyc+19MwMq+nW1dbfYH2bNGmST6a06OtFsaO0L9xzSalI15Zx/esqidpyU8z1DWvHDivaKbEmEwp9XEcX6fB+XmWVVfxOE140M7fgJaAstUa8ZWznnXf2xq6RiooKLwoleo6y1jeJdOFIpFvWJNKlEFee7VakQ/R45NFH7MSTTrQNNtzASspK/Nua3JhIl5OX6626a42tu956dtTRR7vPP+oDcrc0jRXpWFiHCScsuDGyeL722mtJ2XKFNyFxmY477rgGt17Wd22BBZ9J5EmH+IDo8Oqrr/qf9Rn3R1B3xAo8/ZoCdYPvz5kzJ+E54u3111/3huDL9rIoHVBTQWAloySdXUMiHUIZZclW5GRla7zkkkt8dljqEoNzUK/qGtfGT7zvKBdg4KJMgzJD4ODfL7zwgr8nRLr6Yt4F9QexnHrMd+s+H549P8MSViA0NlSHuLa33nrL1228/BoL5+beOE6i48cbn0Pkam6doT/iGT/wwAN2yy23eDGeuIUnnHCCHXnkkXa067f4N+V2/vnn+wkEE6v4+JpcQ3NFOoQr7ivKvfOZd955x18DYn9T4Jr5PsdJdI54C+ocAubixYtjR2g6TJKo23iBbrPNNlZeXu4nI8ShQ6Crqqn220m7pHXx3mssBEnK0NQ+qbHwXCkb4tHtf8ABNnzEcL8NNys3xwuJXBtZXhnvevRY3jbbfDM79fRT7bl/PGeLlzS/fFKBqw8S6UKQSCfiiTWZUOhbO7pIxyKaJFcXX3yxT6bFop2X9rK2YXh1z5gxw788IuRQYWFhwucoa32TSBeORLplTSJdCnHl2W5Fui+/+tKefe5Zu+DCC/wipaKyolaky831C5qC4kIfWLusotwGrzTE9t53H7vHVbKmLN4bS7I96ehMyezJQrypi+J48NK47LLL/NbLKAkFGrL6RDoW4Ygz3AOL3fqMY9AZXHXVVfbxxx/HjtA4KJ/rrrvOv1lFlCLeXqJzYWwn5RmRWOSll15KmpdiIhoj0uGVxvWzPXbBggWxIzQd7uvqq6/2b5wpY55F8MzijbpGfeAnghDPDhDo8KyjPLm++DKk/Opef5gh5lHm8d8PjHPyk8E9EUH8sLrfizeOTR2k7QXX3hg4N55VlEWi42NBfeJzlFFzvKuoqwid1D+OSflQnhj3Em/B7ykn3lCzOAnqRjI86Zisbbvttv5v9bUZjOOQdZr6TL1uCpQb7Zx74XwNtVPK+5hjjknKdnpEMDwS8VTcaeedlk5q8FKrqKq0SrKF+5AJ6V6k435pPwiZQR8RZbLSVCgbtqlf4865i5uQDnaLnJKKMj+eFZUWW1FJkfcUZ7zr27ev7bjjWLvk0kvstddfi5SVuS3iylMiXQgS6UQ8sSYTCn1TRxfp+vfv7188vvfee60SwkY0DeIpM37jTZfoOcpa3yTShSORblmTSJdCXHm2W5GOxQjeOLfceosXm2hU6W7RkpOb40U6FlkIdXgddFu+u411Cxk8VdqKSMdimkU5i08EGYz/5/d1P4dtttlmdvLJJyelY2IBeOCBB/oFMB11/PnijYUzjZMFeaJrCyy4xkQiHUIAHnvcJ5l2EVrw3uNnXRs2bJgXGHbbbbcmb/Okbpx77rle6Ao7T2Ccb8SIEXbWWWd5D6yWFOmIKzd16lS3oN4xsicdHXoysvpSJgS+P+WUU7zYS/wqBJ1ExttpfhIDkWsGvFYRKSjT1VdffWn5Ub6NEXmpI7SHRM9l1VVX9T/DnvsRRxxhgwYNWuZ78cbz5Bzc3+zZs2PfjA7n5tmsttpqCY8fGNfP5xDXmiLSLVq0yE+OKNPDDjvMe3NRthjHpUwpp7rG7zk/90g9Ou2003x7w7sMkY4swPytKSIdix36F4TY+GecyIYPH+6vBYEN78bGED/Ic77gnsKMsqbf4Lr5PNt+k8G3S771z2D83ntZz949bbm0Lj6eKYkYKqqr/PiRnlEr0nGNvAz6eMHH3vORe4i/j2RDnUKARYjddrttbYX+/ay4rNTHoSMeHWMaW18R6QYPHmT77LOP97rjGTYlwUxbwJWnRLoQJNKJeGJNJhT6po4u0q244orNepkrWgfmJawzJNK1HZNIF45EumVNIl0KceXZbkU6KjoLGSomwgIViQVVdk6tSBefpY+fozYb5RfFVOaWJqpIx9/xMtt///39Apv/D1tgs1il06Pza+5C7JVXXvFeVSw+uY665+IaEOiIn4a7OkIC1xYm6HEMLJFI98MPP/jMtIiCLLoTfT/eOAeCYOA1GKVTCODzbIvE44bySnT8eAvOhZfY119/3ahzNRYGFDz8EDwRYxJdT2CUP+XNYBTmWdZYKJdZs2Z58Y3tIfxMZHfccYf/iQAebA1HpEPUoayoM4muublGmVCHwiYNCL2IR4m+GxjPEzH4oIMO8tumGwvn5q0vglCi42NBe+Fz55xzTqNFOl4uPPjgg34LK22Qa26oPtQ1vsNzoI7QPu+9917vGUs/wvU1RaSjT8GrjyQ7iHCJvhtvtGXOwzbdxk46aGe8KDj44IMj9QmUD9fMW/lkTcy4XzzPJkw81AYOGWSZudmWV1hgJeXlXqgr8iJdhn/xg5B/+hmn25tvvem3k/LMW7Kv4Pi013POPcc2HT3KevTq6a+nsKRo6bjmr82NdwjKZC9nexEL1paYALYGrjwl0oUgkU7EE2syodA3yZNOtAXkSdf2TCJdOBLpljWJdCnElWe7FOmAxsS2zaefftoLQGQTqhXpsv0WV7YtEZsutyDfMrIzbd3117MLL7qwVbLfRRHpAiEGD7pjjz3WB/ZHGAv7PAtVArISsyqIFdYUEDYJmI7HTJgYwTUguBEPiy19CAr13Ut9Ih2wTQwvmCiLf8qFQZ2spmyli9IpBNBps0UUD5/6hBYsEDNGjx5tTz75ZOwILQfiDPUCL7UowgRlTZkjqCF0NhfKEU9BtvpFsXivQol0/zWukZ9NEeloB9QBXipwv5Rn3eM3xXhTjTcVAlvQFhN9DgsT6YDFDoI8nmuJvhtvwXEQnhvrzcB5ad+8BIgiUCK481yJT5csuNf35r5nJ550ko1wx0cEKygu8h5rZHet9VbL8N5qCGHHHnesD6/wxT+/8N9tTL/UWDg+HrSnnHqKTwpR1bXGCt31cI2MbUXuOhnrMPoSYleSXIRt6e11werKUyJdCBLpRDyxJhMKfZNEOtEWkEjX9kwiXTgS6ZY1iXQpxJVnu/WkQ0TAq4FYYodOPNR69e5l6WnplpVdK9IR/JvFFokkuriF1hrD1vDeEB/N/6hRC+umENWTjsELTzq8YPDmYtEe5gFGh8pinAU+nmlNhQD9Z599thcEwwQXPEcQugj8ikiEQNIckY7yJhHB5ptv7u+xPhGB++Tvp556qt/ahmAUFbxzzjzzzKVegomOH1gg6ODBmMzFfxh0zGypxXuoIbEJQ0CkHBCg8SpMhlDXVChXiXS1FtTdxop0eHmynRZvN9oS7ZxnXPf4jTGuhTbJ9bIdfosttkj4uXirT6QDMhBvtdVW/tjBvSYyzksZ8Fwa2x+R2IMt6Wzzra+sMcqIvgpx+8MPP4wdofnQr3D/vITYdNSmPiRCrbdasZWUl/7PltKhQ4faxIkTfSZjXnK0tLcaIRlIlHHkUUe6cWuYf9lEtlkERC/SlSDSpXmRbr1117PJkyfbG2++Yd8s/sbXxygTqbaGu2aJdCFIpBPxxJpMKLR/iXSiLSCRru2ZRLpwJNItaxLpUogrz/bpSRerJz/8+IOPPcVCceCggZbpFlVkvQtEOn7m5uX6iraSW2gdfewxXihhq1O8p1CyiSrS8RPhiu2Fzz33nBfG4v8Wb/wuWLDy+cZuBQ1goTlhwgR/bXTSdc+DISAgDgXbiYN7Cft8sKAPE+m4ToSmPfbYww/YYcfBuEcMMYMsUY0RVNkixr3hHVffOTDukY6HDrmpwe8bA/WNQYW4cNwf15DoOQcW/A1hjLJAMMW7pjW2a9clEOm4nkBMw7iP+u4hkQXfrWuBaEU7SER7F+nITEpMQu6zIWGqrnHOoKyD89c17j2oV/VZfSIddZSBOEpsO/5G3aRNs0W6Mf0pfTBbNBEWw/rHwKhvu+66q918881J9YKmT/ryn1/a1Vdd7eOV9l+xv4/39t/kDMVLkzMMGDDAxznkPlsj7hsel9TF/Vy7X9GdmyzlxFflpRMe4lxbWnqan7CS2XzKBVO8VyB9A+JjU8aFVOOuWSJdCBLpRDyxJhMK7V8inWgLSKRreyaRLhyJdMuaRLoU4sqz3W53BYQqtn6ed955fvFbUFjgFzTF5WVWznbX8lL//9zqgIEDbMKhE3yn9PWir/13W4rGinR0OGwZYxEflnE1WKAj0rFVjA6qsULjL7/8Ytdcc43P4sgCu+4iPP4ciEl4dHBtJHJgoA1btAffCxPpgEyKBP+vr0yw4Fh0CmxdbcxzwiMOkYa6kOjY8Ybgg6DX0l4x8bCAZgBg8EpU/mFGeVBuRx55pI891RrJT+KJF+kQeYJnFFjd663P6n43sI4u0iFSI/Tw/ajPPbD4cgrO31RrSKRjcsXWdK6xPqGbv1OH2YJPn9KYdsr2crz+OEZD90MyELbbI1wlEyYbJPBgEbHX3nvZyquuYkVlxZaZm7VUqCN0AhPMPr17+625l1x6qU+Ukexrieff//m3D+NAope/uLGgumuNH78KigqtsrrKv3xCpMM7nAnrhptsaBddcpH3Mvzxp9qXT1EmUm0Nd80S6UKQSCfiiTWZUGj/nUGkI7s4Ly5bci4vmgcJjSTStS2TSBeORLplTSJdCnHl2a5FOkQPGipZnkZvNtpqunX1ixkWWCUV5T5DXyDS9Vuhn4/b9Oijj3rRIcjS1xI0VqQj8DuJCxC42A7JdtNEi9dgUUtWR5I/NGYrKDCZufDCC5ceu+45OD6GKIfnCm8oubZx48Y1W6SbN2+eF90QABsSQTC84diWG/UZseDGw5DrrE+ki79nhMjWhu3ZPD/Ksr5yiDfqEB5FCBtsdyYGFduj2T6JtyPia0tClle8iMgoylZiBAsMz0/+n2uML9cwoz1Q3/kuxwqOg7H1kZ/U60S0V5GONsozIuYk34k/Rn3GvdAPEB+OdkVZUz6UH38LMp5GOVa81SfS0da4VuJeIsDVJ9IF52ULPltko/RFHH/JkiU+y3bU4/OTrbHJXohxLWTFve+++2zipMNs7XXX8S910rPSLTc/d+nY0aVLmnXt1s3d56Z20skn25NPPen76pbit99/s08XfuonoWw7Li0t9eNXYVGRVbnJF0IdIh3ZaNMz023kqD/bVddcZQs/W2i//Or6AdddttS41pK4a5ZIF4JEOhFPrMmEQvvvDCIdIVTwUG/sy2rRejBvZL4hka7tmES6cCTSLWsS6VKIK892LdIxOLPowxtix7/saP1iW5byixHqSvxihph03Grv3r1t3K7jvEcLb9+I8RWlwjWFxoh0bPmaPn26b2QskBFwwuJ+IexwPLaiIp5F9eIBFrlMaBA7woK1c3w6bhJZkJADkY4tp8nwpEMUZastIl0UTzeuA8+xb775JnaE+iHWHrGZKPP64qZxD1wrHT1B7xtThskAMZHnjeDGswwr00TG5xFu8C5C5MLDCLGFzvn111/323ZbYis3bYz4gIisbDHhJxNkfpJJN6rgQl1nKyXfRVjnZ2Acl59hSQjaq0jHM7nxxht9gpgoiVM4PnWCxC48YwZd4qaRmZry4Zw8d36PsMlngzqd6Hh1rT6RDhB8GYz5TH3PNDDqJJ53bEVtqN7x93fffdcuuOAC/936js89Ua8oN9ppS4h0eMQ99vjjXnz786YjraKqwtIy0iwnN8dK3PiRX1hg6ZmZVlFZacNdu2P76QMPPuCTR7QUCG3zP55vd0+/27+oKC4u9uNXkfuJQMd2V+LTdXHXmZ2bbVttu7Xdctstvo3+8e9aobSlxrWWxF2zRLoQJNKJeGJNJhTaf0cX6Vj8T5kyxcfuDObyjF0sgPkpS60BcyNeJtPvlJeXJ3yOstY3iXThSKRb1iTSpRBXnu1apKPCIEogWI3fa7wNXWXl2jh0BXl+IYNIlxcT6Xq4irbDDjvYtddda6+9/ppPOhGlwjWFxop0JGdgCyPG1jGSSbBAZaFa9zv8Do8aRI3GxOJgCxUJKsK202LBYh9vOwQ9FsYISskQ6WDOnDneEyiKSEfWQs7L1jgyozYEZc52Wq4zrMwxBibuA280BpJkC1pRwKtw0qRJkWJyhRn1g3uljnE/PFfqBNtFGbySKWrQTignBjAMryl+8lzouLmWKMIWWyMR9vguBMeLt7A22V5FOrJuIrjxnIPv1mfcA+WJ1y8vFJjwUiZBmQfnY6Dn/Nxv0G4THa+uNSTSAQI97TTKcWnLJHV4/PHHG2yn1KGo22kpL8qY2HW07ZaAiQ3PnMUeHqFMzNLSa5MPkawBbzqyg5eWl9mAQQNt2+23s9vvuMN7YrcEPGdeZtA/MFHk2QYiHeNZeWWFv5b8okLLyM7yL6R2Gfd/NuOBGUkXMVsbd+8S6UKQSCfiiTWZUOhHOrpI17NnT/8ymYUp/SUZ6JmzkpRIlnoj0zjziyAOb0lJScLnKGt9k0gXDvNriXT/axLpUogrz3Yt0gEV/tFHH7GJhx1ma7sFKN4GWTlZlucWVyxs8t1PbrXa/X7kqJF29uSz/ZalL7/6ssUEmqgiHcYCnrdNeEJwPSzMCZTOApWFbKLv8fvD3P0yEEaFhSUeeGxPS7Q4Do7LNbMdjUbPwg8vRbbahV1P8F2sIZEOr6IzzjjDx8RrKEsoYgJiJd5xDPr1QcdKGdKRJBI3441751pZmOPV01J1oD4QXvB8494Qrrim+gSLRMY9Urcop2B7NPePpxoiCGIv23/JvBkmxjQXyv3+++9vUKQLngciOdfVFNqjSEf74QUCzynMezXeOC/iGGIzMcka8iLFI/iGG26w/fbbz993Q20K4xwNiXQsds4666xI2Vc5J5/DA7gh8QqhkXaK+E451tdOOS7XyZZ34sAlGyYbvOAhiQVlwYSyZ4+elhbLEI5IhyBW4MYQMr5277G8bbjxRnbd9df5OKgtAdfEOEDfgOckdayoqMiPX0XuOsoqK3yGV64J8bCmezfbZ7997VFXV6JsN27LuHuXSBeCRDoRT6zJhEI/0tFFurKyMr8bgZc4xKS++OKL/U9CI/BTllrjhTECHWsZhJq8vFpnCVnqTSJdOBLpljWJdCnElWe7F+kQPJ5+5mk75dRTbNTo0da9e3fLyMyw7NwcH5+OLUvLdVnOL7rWXGdNO2zSYb6BE/enLYh0iGYkgmAbJCCqsM2TbaFh3yUeFcIZHWzUTIMsdANxLBAa4o0FM2ILohFx+wBPPUQAxJX6xK/gXhoS6diWgJcOYiHCUqJjBca5KD8GeWKv1Qd1gIlB8N1E9xcYAxOLX8QCYktF6XSSSfz5WIwj9ARxxrD6rr0+43sIKmyF5RnjGbTnnnt6cYtn+MILLyytY8kCz09iejVGpCPeWVPKvD2KdGxfZ1svnw9ry/FGOZHJl23heFRFAQ9ZhH0mRFHOEUWko51SX6g/DW3RpTwwBnG2nNcHQtKpp57qyy74bt3jBYaoyXXykqAxLyOiQh1kskRGaITUQw4+xFbou4IX6TKzs/x4gShG2IQ8N4Yg2K22xup28aWX2Lz358WOkly4Ju6VMeDc8861ddZdxwoK3Pjlhmq2u5LdFcEQkQ4vun4DVrRDDzvM/v7k3yXSdWAk0ol4Yk0mFPqRji7Spaen+74Rsa6qqsovTPkpaxvG88B4yYQgRJb0RM9R1vomkS4ciXTLmkS6FOLKs0OIdASbn3rxVPvLTn+xvn37+gE8MzPTCooKrKCk0LpkdHELmwIbvPIQ23Xcrj4pAtnwWmph01iRjphLgYDCwp4FNB52YWIBC1hEGAQPFpkNwTERpeo7JsIO2y8RCMmSCpRtfdlgAwvupSGRDogDhadXlMU/5+OaESHqS/TB30gCgUCV6FiBBcdEFGvoOluL995773+2vnKNia69scbzQgzhJ/WQTpaYZlFF3ShIpAsX6bhHth6zrZrvcG11jxVYUD4I5JRPY7axA5/H842+hOPUV4eiiHTAMfHW5YVAouPEG8fkpcKMGTO8wBcGZUW/GOWYbJGh7Qd9UUuApyOx9Mg8TWzFAQMG+MUEL3kQ6Yj/hudaVl6u5eTnWf8BK9rZ50z22/abUocbgpdGeOnNuH+GHXvcsb6+Bx4IiHMlfqurG9OKC62ypspWH7aGHXfC8b6epcIjOJm48pRIF4JEOhFPrMmEQt/UkUW6ZC76ZbLOZhLpwpFIt6xJpEshrjzbvUjHQguh49bbbvVb/YYMGeIbcrpbaOFFhydERk6WF+v6DehvW2+ztV8IE8eiLYp0LI6J78R3w4QsOle+R6ZPPNMagg4TDxaOiRiX6Jj8nk6Vc7PlCgKRju1syRLp6ARxhWcBzjHrExS4T/6OuITQmGghSnmxbRWhqyGRLhBx8OTDi60twPVzLZRzsB2ZZ9FcwY5nxf1yLEQUjkUiAgRSMm4hftCxNweJdPWLdIjLxGvjO2FtB+NZU4YIRcRgbAqI8ExeGjpXVJEO2BLOliKOGdx3IuOYXD8xL+lXE0FfyzZaYu01JNJx/Yh+fJaXKS0Fz46+7plnn7ETTzrRBgwaYF181tQM7zlX1bXGe9Nl5+X633Xt1tWOO/44e/GlF1skBhz9mx/Lbr3VDjzoQGMsy8nJ8RMlPOnIWp6dl2N5hfm2fK8etvGfNrGzJ0+2l19ufKbvtoZrLxLpQnBtSyKdWEqsyYTC2NPRPelkMlnTTCJdOBLpljWJdCnElWe7F+lYnBALiQrKQp4FIF506RnpXqRjsZXrFjWFboHTq29v28QtbC648EJ755137I+QBXZzaYpIh0dH0ADw1GA7K4vVRAvuYCHOd4k7xoIxrPGw8CP5A1vXEBbomOseC+NaCcQbHwerJTzpuB7imCFIJbqeeONvnJPYbWTxSiTScb10qgwIDcX9wjsHoeq2227z8fFSTfwzQ4RE8CK2F1t8ebbce1AGlG+ie4pqfJ/7p31wfGK38Bw+++yz2BU0Hol09Yt0bGNncOPzYW0HQ0ilDNkaG8Uzti60CwZQtspyffWdK6pIxzEffPBBmzhxov9efcekj6M8EICZnCUi2JZLv0Y9THScwGjH1FGER/rFloKx44cff7CXXnnJzjjrDBsydIilZaZbRlamHzequ3W1iuoqy83LdRPN5ay0tMQmHDrBby/le3y/KXU5DI5HP3elqwe7jhtn/fv3t+zsbD/JJQkS4RsQC3MLcq3fgH62w9gxdvkVl9tbs9+SSNeBkUgn4ok1mVDokyTSyWSyRCaRLhyJdMuaRLoU4sqz3Yt0LCYXLfrannvuHz7IOItQOiAfs8ItasqrKv1WIaxr9242fM3hdtoZp3vvpd9bwBsCGiPS4TGCEEaHE4hQLGgJhEvDSOT5Fv9dhID479YFIYVsrSyig+/WPRYLcM6FxxrCXEBLiHTAli6ESYSo+gQRBhGMrazEyEq0EEXUmDBhgo0ePdp/NtFxAkPkoROLGu+rNQk6PzzrEF5JBoC3IWWO1X1uzTGeJcej/MkszBbkpiCRrn6Rjnvlnvl8WNvBOB/HIzZaU7wbaftRvfY4VxSRjutHwKV/4drqa1uBSEfCC7aOJuKtt96KnNEYj9gTTjihyfUyKtzjb7//Zm+/87ZNvWSqDV9ruOXk5/p4pmx3rayp9ltec93vGC4LCwtdGe9jDz70gH216CvfP4b1u02B/u2ll1+2KRde4DPJ9u7Tx7JzcizdTUzJNJtfUOA9/fIKcm2VVVe2/fbfz3uQ472YzOtIBe5ZSKQLQSKdiCfWZEKhX5NIJ5PJEplEunAk0i1rEulSiCvPDiHSUUHfeONNn02IRSodEAHAEenwhCguLXX/LvKBtwcOHmhHHHWkPfvccy3SWCCKSIexmEbguPTSS+3jjz9eutBC/Hj22Wf9ojdMnOG7/O3MM8/0gmMiAYtFJF55Rx99dKj3CsfB+AwCW/xxELMQ7tjyFgg7iY7B77GoIh1CFMkp+G59CSSCa0N0QQxKdI/EY2I7LuXc0PVhxAhr6yDSIkoivODxRsc7duxYP6jiCYenUUOCZH1GmXIMjIGUbYrUocaKlxLp6hfpiBPH5+K/l8h4DnyOreZNEVv4TrJFOqC9IRxyzEQvCwKj3KkDbL/HazfR8yVbLXE0+XzY9QVlxPHqK9tk8h/33/yP59tN026y0ZuNsqqaast34wZhEsorK2pFulhcOAKV77HH7jb9nun2yaef+PrflOcVBuX97HPP2ulnnGEjR21qPXr1tNyCPMvKyfaJIshYzoS3sKjA1ll3bTv+hOO9tyPPsSltqi3hrl8iXQgS6UQ8sSYTCn2BRDqZTJbIJNKFI5FuWZNIl0JceXYIkY5KjzcBXl94l7FFKC09zW93xZOOgNtk6MO6Ld/d9t1/P79o/L6eIOfNoTEiHT/xdHv//feXilD8pAO66KKLQgUyvksnyzbWadOmJYyRtHjxYh/fiM4yTKTjGBwLgZOYUfGLThah/B6Pq2SKdEBMtJ122smfu6Hj4slHWdRdtLMVjvhqCBz1baELzrHbbrvZjTfemFDsa4sgmiGyEpAfIQ3Rdty4cV7sop4Hzy6wRPfekFFuiJyIgXPnzo2dORoS6eoX6dg+3lCCFCwQ6RrKYhxGS4l0wDXRTrm+sONyTuoA7R9RP74vohyI+3bLLbf4z/CMEh0D4/h8hi2xJPdpibhvifjin1/YvffdazvtvJOt0L+fFbvxorC4yHvTIdTl5ufZcm6iiUhHcqIbb7rR3n3vXfvuu++SKtJRl2bNmuWTRqzrxo1uPbr7RBF493Etefn5luauo6Sk2Lf/86ec72OSMlY0pU21Jdz1S6QLwbUJiXRiKbEmEwp9gUQ6mUyWyCTShSORblmTSJdCXHm2e5GOSoPoQlw6BKktttjcxxBCpGNxReBvDC+EjMxMKywqtF3+bxffyL/++mu/yIpS8RpDU0S6ugIZnQUCFLGZ6lsgIwKQMCNRVkXinHEdCBeJFsfBgp7rZPspHlzx14AIc8EFF/jzB5+ve4zg91hjRLovvvjCJ5Cg8dcnimBsf0u0TZX4Teedd56//oY8ffh5/vnne/EmmQvrloR6ybVi1AeeD4PfFVdc4QVHBA2eTfAc6953VKOOsuhnmy3CQ1Qk0tUv0pEpuaFrxhDpKH+yVDcF6kdLiXR4+FLfxowZ468z0TEDo50yCYnfsks5IP4isvOZ+kQ62jDXRtiCV199NXaElodx4JFHH7W99t7bhgwd6l/s4E1HiAREujw3jvhtpnl5tuVWW9qFF11oL7z4gk/2k0zBH8/nhx5+yCZMPNRWXX21mFdfgTdi5HEdZJ8tKyvzfS0xDF959RX7ZvE3SR/DWht3/RLpQpBIJ+KJNZlQ6Ask0slkskQmkS4ciXTLmkS6FOLKs92LdAEstBAMdhg71sfvIfg3Ih1bXCuq3aKrsMDHqcPLDs8skgcQc6m+pAtNpbEiHQtYshjWFY/wksAbhwV82HHY/ojnyYsvvuhFkwDuiS2TbDFj8RuIC/HG+REbWIA/8sgjsW/+l5YU6X788Ue/pReBsSFvIxb/iFIvvfTS/9wjnRLlzPXVt/jnbwhJiLiIUMl+3q0J5UZMP+oGWwuJGUb8LhJiUBcoq7DnHWbULb5DWbINOSoS6Zov0gVtkPrdlGuGlhTpeMYvv/yy7bHHHr5+JTpmYMELA7agU0+BayNOHdvpua762ilendQlxOL4BDYtDZ5+ZNU9bNIkW9NdQ3XXGr/NFM/rMjd+eHGMlz65ubbRxhv5TLAPP/KwHz/Cnn9T+PGnH+2ee/9q4/cab/1W7G9lleVWUFzkxcLSijK/7RaRrry83Lbffnvfn815e06779PAXb9EuhAk0ol4Yk0mFPoCiXQymSyRSaQLRyLdsiaRLoW48uwwIh2V9LHHH7fd3WKyxjWwHLewyi0o+B+RLi093TdykgxcffXVfossi9C64lhzaYxIx6IaDy+8Tep6ZbAFFlGjvgQL/J7tisGW2QC8rljsIvCFbQXl2igLArqz/bQuLSnSca9kWCUjZH1ecBj3iLA6ZcoU73EIdKZkf0ScYmEfJkwE10wZscW5I4HAjEciWxKpJwcffLAXbNkiHQgiYc8s3oLPUFdOP/30yAH7JdI1X6TjmmmD9BeN3W4c0JIiHSCYcS/1lQtGO0Y8Ihszns1AO2eLOdu067s2/sb36UNaauIYBmMHLzROPe00G7npprZ8j+UtOzfbJ5BApGPs8C998vJs2IjhdtDBB/mEDR/N/yipW3KXfLvEpt0yzcbsONYLhWR0RaArKSvz1xGIdJWVlX4LMpOmD97/wAuiTWlTbQl3/RLpQpBIJ+KJNZlQ6Ask0slkskQmkS4ciXTLmkS6FOLKs8OIdAgGeHAgVPTr188vcEgcQTy68qoKnxkPkQ5vOkQFxCe2l7EATeaWJYgq0tFJ8neEkUTJH9jCSsNDeAgT2lj0cj94zBHPKIDjISIg8IWJYGxfY1GNNxZbY+vSkiIdsL0LsbQx2WPxeAm+izBJGQefqfs9jPIlo+TEiRMTCpHtGTpMjHqDUEPnT/IBvC+pM5RnWLkksjXXXNPGjx/v61EUoU4iXXJEOq6Zfuu9996LfbtxtLRIxz0Saw6PW45fX52iT0F0pP8JvktyGzIV1/fd+HKIf9nQGiBysXWeBD6I/n3dxDIzM9NPCIkFR3y6nLwcyy/Mt0FDBtlfdtnJLr70EnvnvXd9EpxkQH0hxuaVV11pI0ePstyCfG/F7vwkr/Cx8QjjkJZmVVVVPgzCQw895J8hfWF7x92/RLoQJNKJeGJNJhT6Eol0MpkskUmkC0ci3bImkS6FuPLsMCIdFZ84Rscdd6ytvsbqPp5PYUnR0ix98SIdC0k8uBDTkr1lCRoj0iGgnXbaafbaa68lFAsRG+jswkSsYOHLIviee+5Z6hVIg2XByzVwnrrfwyiH/fbbz3sUJjo3IiFCRPD9sAV2cA2NFekAbz/uD9GjPnGBa+AzbPHkHjHi0TXkhUf22MDrhEVwRwdxDTES0YYBAdGBsgurA/GGgLP55pv7rYmByFIfEuk6h0gXLPrYysqx6zs+Qi/XQNbRAOphff0gxksItvwSh7M1t7oCsS7pA9k+ShkOHjzYT2IZKxDpeOGTV5hvBcWF1rtvH9t8yy3szLPPsrdmz06aSMcz/Ozzz+yCiy6y9TZY39LdZBRPPs7PWMaLppyYSFdTXeMz6bLlvaXiqrY27vol0oUgkU7EE2syoQT9tUQ6mUxW1yTShSORblmTSJdCXHl2GJEOb4LZbtHEVqs//flP1qtPbysqLa4Nul1R5kU6Fj4svFZbbTXvWYXgQyy4ZC20AhrrSYdIl8iTDti2SiB1PN4SCVLBopxz4ZXGFlLuZ9q0ad7zJZG4x3cwhIaTTjoptOER6+iMM84I9eILLDheU0Q6POOOOeaYBsuKe+B6b7jhBr+VjrhsxGJrKJg9ogGiDZ6CLGY7CwgPbOEjayvCG+XHM0pURoHxd+oknlCILA2J1xLpOodIx/H9dtBTT11aRxIdGwuOTzsl6QT9EX1tQ30Ifz/qqKO8F11rZXUNoL+kLPBM4xoYH3JycrwgVlJa4o3YcFjX7t1sQ3e9x51wvL3m+uxfk+DFRl359bdfbf7H8+0sN36NGLGmnxxlZWclFOm6de3m6zhjBm0wOEZ7xl2/RLoQJNKJeGJNJhT6Aol0MpkskUmkC0ci3bImkS6FuPLsMCIdCy0WuYgAO+70Fxs4ZLAX6bJys62kvLQ2rlBmhl/kDBw40AdCZ5vnnDlzvMAXpfJFJZkiHY2PpA54sYQtdOOPwxZexLWLL77Yiyf8va44EyzkaXhkbgwTKfHKYmFOMoL479c1joc1RaRjIY9gQDy0+sQR7pFzsO3uqaee8lvT6KzDvhNcE8elXJItxEaFesVzRXjgGhoyPsfnm1sfg++/++67dvjhh3uhrr66GBhCMPUGATsI/h+GRLrO40mH2EYGaO6ba050bIz6w2emTp1qM2bM8H0s/UyYmB6UJ3UIz9iG6lxLwDPEy5ZwCbyU4FrJ5EpGV0QyMqvikY1IR+bX4WuO8EkmSGSTjAkXz4/7fufdd7yHN3WG4TkrK9MLhF6kq6zwnnXpbvzqsXwP36aJz9nagmZL4eqYRLoQJNKJeGJNJhT6a4l0MpkskUmkC0ci3bImkS6FuPLsMCIdixUEHxarhxw6wQf4Li4rsfSM9KXx6bJysr1Q12eFvrbdDtv7hA2IWjSaKJUvKo3d7srCkJhIiUQ6Og28wBCawhbHLMr5G+e88847/dbZ+rzM+DyLY7zo6KQTnRcQ6U455ZQWFekQSMkoynHYmlr32IFxf1w3nmG33HKL7bPPPj7WXH1lgrGFjgQTLIRTAWWLF9LNN99s11xzjfd25Gciu+qqq/xPBrhkbfmjXVAfEIyCsgmEkURGfeTviCsLFy6MHSUxEunqF+mOP/5478lZ9xjxxjVTj2m7bTVxBFCPGKQ5PnUk0bEx+jvKBnGfmJFMGuoTiLlW6g/bslPVTmmjZHhlmzgxOLmm/Px8P7ksLSv1SRt8bDoSORQX2aAhg22vvff2XsBMjpoLZbto0SJ7/oXn7YgjjrChQ4fWTqSzs3ymckQ6hMLM7Gz/kqln7152zLHHeo/isL67veHai0S6ECTSiXhiTSYUxh6JdDKZLJFJpAtHIt2yJpEuhbjy7DAiHY2LRvvEzJl22umn24Ybb2hlbmGzXJflrLCoyC+uCMSdlZtjy/fsYX/edKSdcNKJ9uxzz/mtgVEqX1SiinQsBvk7DZdOLWzBj5CFxxuLeRa0dUWWYGFO7DXEOTxeWLAnEumCz3Jt06ZN8153YffeGiIdsDimE+C66t5bYPwNmzBhghdsWPjz+7DPB6IeW2m5plQtZnmmxLoihhTJPcgyy8+6RvKMrbbayv/EWxCvqmTWycsuu8xvY6VswsoMC+rrRRdd1OA1SKSrX6RDWA/uvb56jbcn9eOdd96JfbtxtIZIB88++6zvY7j3sHPwe+oDsS7x/qW+c7762inHo7/EYzgV8KyIv0lcOoRynkdBQYGfoODJhkhHlnC86Rg/evTqaWN3HGsPPPCAF9eaIyxybiZtvIh5+JGH7cADD/Se3n4inZPtRbqK6iqfQCIjO8uHbOg3YEU7+dRTfGbnf//RMbbwu3KQSBeCRDoRT6zJhEKfIpFOJpMlMol04UikW9Yk0qUQV54dRqRDhFm8eLG99PLLdsmll9hmm29mlVWVvpIVFhW6xU6xTySRV1RgNd272lrrrm2HTJxgjz/xhN9qFKXyRaUxIh0dJYtZGgDbHRPBveEhN27cuHoXyCyEEa/wMkPs4diJPsPPrbfe2mbOnBk7Q2JaS6Rjscn2XDqC+gQSjPunXBECEv09sODe8Yxhy2cqPHSA8/Ls9txzT3/tlBPXnsh4rvydMmeQS1ad5Brw4COuIWUSVn+woL5OmTLFC131XYNEuvpFOmJJUlfjv5fIENMRhl52fVdT4Pm2hkiHpzICMs8xzEs3MMoHo24k+ntgeOVxPZRllGQlLQV9L0mE8NKlHysqKvJjR3EJIl2FlVVWeJGuS3qa33rK+EKSC7zZwupAFKgnCIT0URyPMAxkJ+fc2Tk5XqTj3Ih0CIQ5+Xm22hpr2Lnnnee36KaqX0s2rhwk0oXg2pBEOrGUWJMJhT5FIp1MJktkEunCkUi3rEmkSyGuPDuMSMdiBa+wOW/PsRtuvMG23W5bq6mp8ZWMra5sV2KhU1BSZBXVlbbyqqvYnnuNtxn3z/BiVJTKF5XGinR4nbDIDhPpgMy1JMUYOXJk6HYzjsUiHY8pFv2JhAGuh7/TmDlmfbSWSIdIipcOXiTDhw9PeI7AuEfuIdG9xRuf4yeL7mQ/38bAeRGy9t9/f389PDueeyLjb1w3wetnzZqVtGumbbB9lUQiXAPnCsqprsWLdMRrrO8a2qJIR93G27IpXmnJFunwRtxiiy3+53uJLBC88MzCa7ax8HyJIdjSIh3PmzhsTL7WWGONhMcPjGsI+qNEfw+MOJvUH4RsMpWmCspwiesn/jZjhvcW5AUPglxhcbH3okMoYwzBMxsBb8ONNvTJMXzioWbENOV79E+vvf6aXX3N1bbjX3a03r17+3ErJzfXikpKrKS8zAr9S6Zi696jh43efHMvurMlnuvuCLhykEgXgkQ6EU+syYRCnyKRTiaTJTKJdOFIpFvWJNKlEFeeHUako/KwiPzoo4/s7ul32192+ot1697NVzKSRrDQKY15JOAR0advX+9ZRINMtkdCUzzp7rnnnnpFOgRIFvF4CtWXKTFYpIctjvnu2LFj7bbbbvOeI/XRWiIdZY83HUHT6xNIolpw73gLPvbYY7GzpA628R122GFejOB5173ewILntvfee3vRIpkgjrH1kPOE1Q2srYp0xx57bIMiHedBnMZr8a233op9MzpMLJIp0iEQExORzwdlkMgQZzke29QbK5wB52oNkQ7wViZuWrLaKfdOv0HShlTzs5s8ES6BeHM9e/W0zJwsKygp9mMH3nNl5eV+wpmfl+/7UbaQ81Lohx9/bPL4wbOjTP/x/D9sygVTbMutt7Tuy3e35dx5cr1IV+zHqzw3hlVU8XJpVdvD1W/6B+LoNaUttUXcfUikC0EinYgn1mRCoU+QSCeTyRKZRLpw2qtIhz7w0EMP+V1EFRUVCc/dVKMs0AzQKKLMN913RLJw5dmhRDpELhouiQjoIHr27OkrWX5BgfeGILYPP8mSh1fE+hus72MQIVYFMcuiVMKGaAmRDtgSRdyy+kS6hgwPGLy6ogQ8by2RDvAg4lmwTRfRpz6hoSGjzInfN3HiRB/vLtWQjRaRCSGmvvoQCEDUm9NPPz1pmRsREMicyfnjz5PI4kW6trTdNYpIh+GVxn2SrKOxJFuke+aZZ3yMSL5TnzhLmVOGHI8kH42FcyHaIO5yrpYU6bhftrzilcm56qtLDRllEmS2ff/992NnSB20Nzx6Jxw6wQYMGuhf7iCQ8WIHTzpi05HxFfFstdVWs7Mnn23/cHVm0ddfh9aDhuDZEddu5qyZdsqpp9ifRv7Zqmuqvcdebn6uj6XKdSAYVnetsQ1ceR9x5JH+rSl9eFPaUlvE3YdEuhAk0ol4Yk0mFPoEiXQymSyRSaQLp72LdMylKytrw3wly7p16+YTu0mkSwGuPDuMSAeIEcT3+cdz//BeJcG2ITL1scCq6lrtF1sZroMi3s/KQ1f2GV7xvgsEkSiVsCFaSqSjUyITLEJWfcdNZPELaoSDKIkUWlOko9zvuusuH5MJAaQ5Ih1ZYtmyRpniJZlqECDwuqGMGorlheFdRPxBhJfPP/88dpSmQb1mWzP1MYr3U1CvLr30Uvvggw9iR0lMY0U63saQvbYpkIm4vuy/gSFgc76nn3469s3o4PHY0L0EbSiKSEfmaNor32moH+C81Nlp0xrfFTNAsxUeYZrjBdeYyJor0nFfLADps7ju5rRTnhWehtTzZGUzbg70iS+//JIdd/xxNmz4MCuvLDcyhGN+y6sX6dIsJzvHhgwZ4jOskuzhk08/bbDvDoPypF9/8MEHbdLhh9u6669rFW6MQqTLK8y3guJCv+2VhBEsuOljzzrrLC8AJzuWaipx9yGRLgSJdCKeWJMJJeijJdLJZLK6JpEunPYq0vHC9vHHH7ejjz7aBg0aZIWFhT7cV/fu3b3I1hRj22xVVZWtyu4Nty6nzKPMN919imThyrNDiXRAI8N7CkW5T58+vmHk5ef77UrV3ar9z4zMTNfYM61/v/526qmn+m19ZHiFKJWwIVpKpEOARATDpXXNNddMeMwwY+HO+ejgiE8WZVHZmiIdPPnkk95jqqFya8goG8qIQPcIt6mGuoXnC/HJuK/6RBSMz7Btk44RAWPhwoWxIzUO2sLs2bPt3HPP9Vu7o4h0CIT8ZDs02/DqI6pIF9wv9z916tTYtxsHghjniT9eIguuA8EX8SoqlBOCPd+tr+4F544i0tGvcEy+E6U+I+AefvjhPstoVC/KQOChrkQRgJsr0tGe8FKkX+C+6L8SnSeK0U6Jv4gYnCyv0ebAvb355pveQ+5Pf/6Tde/R3Scbyi8q8EIdIl1aepqf4Pbv39/2d/32bXfcYe/NndvkiRfnRIi/xy2q991vPxs2Yrg7T5mlZaR5gY54qlnZ2Zaenu7Hs5133tl7MuJxmeys5KnE3YdEuhAk0ol4Yk0mFPoEiXQymSyRSaQLp72KdLyw5VkSBzuIPc6uOxx6CHPUFOP7GOVNTHB0jSi4+xTJwpVnhxPpYK5bNBEDjA6C28zLz/NeEXjSIdJlZmVaZmam//sxxxzjF50IEnhSJGPR01IiHddGcHWExSheRfHGebgWFtdkkWxrnnSAqIZ4gEAVRVCqa8F18H3KqKneLS0BdZI6QWKDKIIN94EoxUQbLzyeBQv6qPUz8KBjmyvJRqKKKYh0lB+eOg2BSDBjxowGRbrAqEdHHnmkF/caS9TstMF9IvZSFymzhuB6gqQsfJeyjz9mvAV/a0ikA8QXkgtEFZ25drzhqCcIfPVB+6VOIEbyHcqkvusOrLkiHfWP8AAI/ZRB1HoVb8F1Um8QkJtSH1oC6gohBa648gobM3aM9RvQz3KL8iwzN8uLZYwdeLQxdhBKYedddvGfff2N1+3HJt4D5yRDLKI4kyFizpVVVVhWXm1mV7a7ZmZn+cnpgAEDfObuW2+91d577z0/2UvGeNUWcPchkS4EiXQinliTCYU+QSKdTCZLZBLpwmmvIh3rPebl7N5hTYZzx7333uvLCUeKphrHwAmAnUmsz6Pg7lMkC1eeHVKkm//RfL+lc6WVVvIxhIhJV1ZeZpXVVbUiHYuezAy/HZZsKMSw+3Thp0lb9LSUSAfEbsOTgoU5i9woC3OM8yDAXHDBBX77ZRTxorVFOu6NLYccs7EiJEZ5YmwVvemmmyLdY2uBOzL1jAy2UYQNypPPBUIdSTWuuOIKnyBg5syZXmjFYxQjkyn2+uuv+9/j9sy2Ut5+sIWSOhjlnHwOgQ4hIGriBZ439SqKZyeeXsSlI94dnoWIiFwz94BnEP9GOOKtUF0Qu7gXjsMzrnvswIL2QNIQvNLuuOMOH2eM8lmwYIEXRMjIybmoa9OmTfPXQ8yFwIuwPguOH0Wkoy8hIQJb7xEAGxLqODb3hpBLu2OQpFy4drzNuH625pNhlUH44osv9n0HwlsUERBrrkgH3DOLQK436nnjjXsM6nVbaqdcB+XLJG3/A/a3VVdf1XILci3djRV5BbXe2P4Fj7Nu3bvblltt5esASR++/+GH2FEaB+ekPiJCb+H6z/4DBlhJRbnlFRFHtaxWpHPnQxxkiy3jCvWC66S/TMZ41RZw9yGRLgSJdCKeWJMJhT5BIp1MJktkEunCaa8iXVvC3adIFq48O6RIx0IcDyISQxS5RU5RcbEVl9YG/2ahlRXzTGACQybIO+68w95971230EpOIO6WFOnwoMF7hlhOUT1ZAmGB7YZknCT+U5T7bG2RDhBsEEwom+C6oxplwffYlz9r1qxI3oKtCdsvWYwTm417i/rsELd4BptvvrmNHz/eZ9ck1hl1HE8kxBqMf5955pnei3S77bbz9Y/ySHTcRIZIteuuu/o6QrbdKLA9sDFJBPgM9Zbt6MTW4pqxs88+2//kuX355Zexo/+Xu+++2ydG4BhR7oky4/5pJ8cff7wvH4Q+RCGeAeeijfIsuJ6o9S34TBSRDoiJiJcUwnEUEZDroF5suumm/llzDq6dpCpcPx5sPHu2t9KeEbsSHSfMkiHSAZ6WiKZB2SU6V5hxf3yPxC6ItW0FBDPeRiLennDiCbbBRhv4pA3pGemW672xKywnN8eyc7J9EgfKnpdB9HnfNmJrdTz0UYiwbItex9WPbj2W98kqCkuK3XhV7kU6XigxXq2yyiq+b0PsZws840Uyxqu2gLsPiXQhSKQT8cSaTCj0CRLpZDJZIpNIF45Euubj7lMkC1eeHVKk+/yLz+3a6661sTuOtRX6reBjCRW4RQ+LH/7NIovGTmBFBIbLr7jcXnn1lQZjcEWlJUU6wJNq0qRJDR4/MD6D5x2eRXgvRSUVIh3iEKIEE8wooka8BaIXnlFsW2PR3dZA1EJc4zobe3+IAogbPHcMr7dExt8aI94EwhPfReRrzDZhBHHizCF2IQDVPXaYcR/x18w1cN2IR4li8AWZUvluY7y3gvLiHHizBcb/87fGilyNFemA8kSE5Jzxx2jI6pZRcO3cT1OuHUuWSIfrOx69eEZGiYUXb9R7roHyw6OxrUB/QTiB51943qZePNW22norKy4u9vHgcvJqRTpEOwQ7vLJHrDliqdDY1LEDke6111+zE0860QYOHuRj35EwgrGqvKrSi3R40TFekZn75JNO9m2BjLBtIY5fspBIF45EOhFPrMmEIpFOJpOFmUS6cCTSNR93nyJZuPLskCId3it/vfevdsiEQ9xCak2rqK60HLewyisoiHlD1GbLq6gst9GbjfaBwp96+qmkZQJtaZGO+GYskFmwRxFG2DqKiML+chZ3UUmFSEd8KrYnsi10+PDhCc8XZoFIN23aNH/tTFbbGnjTUT/2339/L7SQ4TKqaMPnuEfqFEJHmPF36lbU41KHqCPB1u/GwEBJeRPQPuoW5eA+4q+Z7/ITLzeEv7rgXYewxOfYWhtFoOI8lENQXtxnYPw/11C3nBoqs+DvjRHpgPa91157+S82HskAAFE1SURBVPNGERnrllGia4+/Vu4Diz9GIuP7yRDpaKdsu2UihniU6FxhRp3n+bFlF1GsrfDv//zbvv3uW5s9Z7bdeNON3lOwrLTMe9IxZjB2FMYSSeCVPWjIYNtj/J529/S7E3p/RgGRjnKcdPgk69qtq2Xn5nhBkGyylTXVXqRLS0/3k1PKDQ9QhH62hLc1T+HmIJEuHIl0Ip5YkwlFIp1MJgsziXThSKRrPu4+RbJw5dkhRbolixd7sYhtYaM328yqa2os03VK2Tk5fqGV6xZBiHQlZSW2/oYb2DHHHuu9IT777PPYEZpHS4t0LJAfe+wxvyUuSiwwPkNcLLxfGiNcpUKkw5sFbzpisCEoJDpfIgsEC2KRNVZoam3YUodAwZZPnmEgsMSLLq1hnI/6ieDEwMc1keygMXWEWHtPPfWUz6ZLXU50niiG8MTP6667LjSbLQM/23EReJpzrkQW1OGGnkHw98aKdAT6v/TSS5cmecDqHrspxvVwLK6H/ibRZ+ItWSIdsG2erdeNbac8a/qKlpogNhXq/Y8//WgffvSh748JhVBRQbIIRDo3dlRVWkl5qRWUFFlxWakt37OHbbv9dnb9DdcnFJajgDcccQsZAwqLCr0gh0hX4c7Fllov0qWl+ckpdZ4kMsSjQ6Bri57CTcWVvUS6ECTSiXhiTSYU+jGJdDKZLJFJpAtHIl3zcfcpkoUrzw4p0v3www9+W+cVV17pM/B1797dNe5My8jM9NtdcwvyLD0rw28tWmP4MDvgwAPt7un32McLFjRKoAijpUU6YDsnC128KxIdGwtEB66DzoFsnI0hFSIdEBAdjyriqiHIRBE0KGcC7lPubWkLXRg8a+oJWUjZysj1U4aJ7q2ljPNRf4h9Riy4pm7ZY2AjZlqU7KthFkWkwwvxySef9B5pUb32ohplQV3DO5WfiT6DBc+osSIdkLH1qKOO8rEF6+sXGmOUNUbZY1xXos8FlkyRjnsnmUkQYzFK/aW/GzVqlBd1582bFztS24F2yUuCIMlLVVWVZaRneA83RDo86NiKml9U6LOvbrTxRnbR1Ivs/Q+iJeOpCy9cZrp+gBiDTJzTuqRZfn6+VdVUW023rktFOjLKUi+JSxg1XmR7QiJdOBLpRDyxJhOKRDqZTBZmEunCkUjXfNx9imThyrNDinQsfBCxCNi+3377Wa9evbxIR5Y+gnEXFBdadl6O94oYMnSI7eIa/Q033mjz3p+XFO+E1hDp2CZ25ZVX+i1ZYUJdsIAneP6N7v4aIyhAqkQ6QDRC0GioDANDtGFSSjk2detZa0P5ko2VTKyIFogXeD0S44vnFkX0aIwFzwmhhnMgSFHGDzzwgC1ZsiR2VU2DQZkEDVx/fcJxmEUR6YAyw5sIAZd7aK7Yxfc5Du3omGOO8bHjEJ2C66lrwTNpikiH+IyAzPeCc9D+654jinEdlDPPEC9ZvPROO+00f13UnUTfwZIp0rEYDGIFcj1R7oVrpj8i6y6eeG0N+n/EYLzbiPtZXV3tJ4Z4YVdUV/ktqHjREZeOBESrr7G6nXb6afbW7Lf88406flB21B36KrK17uzqnxfp0tIsv+B/RTomuVwDYj5jWlsst+biykMiXQgS6UQ8sSYTCn2LRDqZTJbIJNKFI5Gu+bj7FMnClWeHFOloBGztvP/++32yhH79+nlPhLSMdC/S+S1LxYX+Z+++vW2zzUf7QOGz58xJSpyfxx9/3Mf3wvMBAYDOMJGxSGfRzCKb7JWNEenYJvX+++/7BXLYOYLjIz6wJbEpIt1JJ51kq622WsLjB4bQwU+28iGuJYMPP/zQe2exMOUeEi044g1xCM+XBUnyhmxN2GLKoIMgShbQrbbayt83YktQxvw7EO4Coag+Cz5X9xj8DU8uhBLO9/TTT/stq80F4WDGjBn++gNhNThnfdcc/I1nzGcRLBvaOoiXLMlBSFpAG2vsueLLhO/jgUbyC9otHlRsc0SYDj4Tb8G5OA6CXtQ2FV8nyWCMUBdsfQ2OXd/11712frJVesKECV7weu2117wQz2coy+CYdS3YHk+WWNpKc+Ce2LrNsShHjl/3uusa50cY/uCDD9ps4gP6YZ4RXq411dU+cQQiHckiqrt1tdLyMu9Zt1yX5WzQoEH+fl544QXfjqLWB8Q84srRh998881edPYiXXqtSIcYGGx39efPzvL1Zfr06b5f7mi4uiSRLgSJdCKeWJMJhX5ZIp1MJktkEunCkUjXfNx9imThyrNDinQs/kgCgTBFbDMWUsSkI95PeUVFLLZQmd/uWlpRZmsMX8NOPe1Un+H199+bL9IRLw6RjklxQyIdf2+KSAdsX8WbDg82Fu2BZw6GmMBinZ/nn3++31oW1csjIBDpVl111aXiRCLjvPw9mSIdW5bx8MJTiDKqu9gILBAvEIZOPfVU783S3gieC96RbOecPHmyj72GUEf5UrY8Xyy430RlEVjwGYzv8H3+TRkhACLsUkeDwYJJfTLAGw9PSrwC4+tLcC31XWvQTqKIdIDAhIjLgB1/rqCM6jtX8FmMcqYNITbhgUv5s/WQZAjxnwssOBfHaYxIV5fZs2fb0Ucfbdtss83SZ1Tf8+V3/D24BtoFIhLtjTrPFki8EPkcZRlfJvGGSMZnkiXS0Qfhvcr1cPxE1x5cPz8R80h+QFm3VWiP9JeI2F6kS0vzIl3g3VaGSJeT7SddvAAitiQZt79a9JXvw6O0J14GfbP4Gy844wXJVn3/IilOpAsSR3CuIvdzu+2380I4nn4dDVdmEulCiIl0f02GuT5EIl07J9ZkQqH/kUgnk8kSmUS6cCTSNR93nyJZuPLskCIdCyBEHrxLzjvvPBs6dKjvlLq4xRaJI1hs1WbqK7bMnCzr3bePTTpiku+wmrrojocFOF4tp59+uhcJEY8SGYtA/s6C+cUXX2z0uVlMkgkVLyC2unG8usfn93gI4ekUZfEYDwtpxEPEgPjj1rXgvCy+33777di3mw9bA5lo1ie88DcMsYV4TY0VItsaLMCpPw899JCvF5Qp5c+2be5x22239eIdYgsejquvvvr/GNsJKQ9EEwQ54s3xbC688ELvsYOoQ2y0ltoyh7BLnUQw4rxs5R4zZswy18xP/p/fI+7iScQ9ksAlSmw82jjespQTmY45F56UbCOt71wkFgnKBHHukUcesfnz5/tjUnfYJs/v2brLZ8KMdsVEoamet4hbeGvhGXXJJZf4YzL5YMtz3etnKzfbWHfccUdfnrQ3ypet0oFgw/Eo94b6HCYJfAYxtTGZnuuDLa9k961vqy2/R6Dj+bT1dko/iYB5zuTJtnz37l44Y2srnnSBSEciCYbQPn362N577+3rwoJPFti/fv5XpH6Wvh5hlRdJZBenbGpFunTLLyjwiSPI8FpYXGzFbpzq1buXq7d7+r48GZ6vbQ1XZhLphIhArMmEQv8jkU4mkyUyiXThSKRrPu4+RbJw5dnhRDomKBiNjS1VLLjxBPMinessEOdYaLHgwkuBYqh0C6L99t/PL1x//SWaJ0R9IICQzfGVV16xl156yS+mExl/w9555x0fm6ixC1euk44K0SU4Xt1jcw14CTXWSw/wSKQM6XCD4yay4LyIak1NPpAItoLRISPQhYl0DDQIAIgqbN1MxnbltkDgHYXoyUIesRTR7oILLvAiDDEPEbUQbeJt4sSJ3kMLIQeB75ZbbvHPZu7cuUl9Ng1BG+C8eFkhQnHNbM0Mrpmf3AO/P/PMM+3iiy/298gzb6iuxrdPPksMO87FwgSvpPrOhWh/6623+jrLNuN4YZx/U0a0J7Yvcsy6Ft/GEPea0lfEf4ctj4iNHJfnG4hs8c+Xe2FwJxYf5cln6yYPoO+gDwn6nPjrjDdeBvCTMkvWZIFzsn0acTFMpMOzDyHqyCOP9DE72zI8H8qXeosXdm5ervdmI2kEL3jY7srvunRZznr27On7qGm3TPMCL88zSj9OXfv0k0+9KH3CiSfYOuuu40U6trbiScc4VeDGJxJUsO11jWHDfNkhxHKOjoYrc4l0QkQg1mRCof+SSCeTyRKZRLpwJNI1H3efIlm48uyQnnQBNGIW5MSXys7O9p0F2V0Dka7ALYAohrKyMttjzz3soYcf8l4KzRV6mCSxUOM4UYzP8p2mEOVcURaNYTTmPrCm3kci8DRiG1h9iQgYaFj8I3CwsE7m+VMJ9xH/bBFMMUQpBDw6+jDj7xif5Tt8vzl1rClwLs7LoFffNde91sbW1fgyinKuumVSl/jjNWSNvdZE1H3GQXmEXTv3yGcTPcugzKNYMq49gC3CxDlEoAsT09l6z3ZrvOiam7CipaEcCZdw0003+b6lqxsvCgoLfDZXH9O0rNTy8vN8TDr+tu2229gll15iL73yki35dkmksuVZf/TRR34xTdzU4cOH+wmoF+ny870QmJWXbTkFedajd08btdloO3vyZC+I4jXZ0XBlLpFOiAjEmkwo9F8S6WQyWSKTSBeORLrm4+5TJAtXnh1apMObh8kKXgp5eXlLRbrqbjU+U18g0pWUlPjsjnffdbcXemhETHRE6sDLCS8wFvZhMemCLXRslSTGmhCi9aCPJI7itGnT/FZXJn2J2inCHZ50xN8ja2pbh/ti7Lj33nv9FvOhKw+1cjdukNG1qLTYi3V5BfnWJa2L98IeuelIO+PMM+zvT/7dvv7may+CNgQiHXHv6OPwllxl1VW8Jx2TUDzpSstLLS0z3XLyc6zfwP628y672JVXXuU9azviJM+VuUQ6ISIQazKh0H91ZJEumYt+Wecw1Zn/mkS6cCTSNR93nyJZuPLs0CIdgexJPrDpqE19HKH0zAyfKIKA3CSPCES6oqIi23abbe26a6/z2wKJ85RMTxPReIiddsQRRyzNFJpo8c/v8bRja+Cbb74Z+6YQorVg+yWJSBDiwkQ6fk8mWmIG4j3W1mGRS2xF+qCjjznGNnF9ULflu1tmVqYX5wiTkF9Y4EW60rJS/xLoyKOOtAcefMBvOY4i0uEVieBG8pPddt/NBg8ZbFnZ2T72XUFRgZWUlfjj5+bn2kqrrGQHuLK7/fY7fPgBvtvRkEgnRDRiTSaUji7SyWSypptEunAk0jUfd58iWbjy7NAiHQstPKx2/MuOPjkEC6tit6githAedT4mXZflrLCw0EZvOsoumDLFx3LCO4TGKlIDZU9g/O233957yoXFucLDjqQEfLatb6EToqPBYhCRiYQW9cWNZKsrnsrEB22JiVWy4b5IPPTKq6/a1IsvtrHu/vq6yWZaWppl5WRbflGBF9LSMtKsqKTIVlt9VR/T9M4771wmzmEiOD7bl0lsNMWNOTvssIP1H7Ci5RbkWU5+rh+XiktK/KSObbbDRwz3yWMefPBB38/hhdfRcGUikU6ICMSaTCj0Lx1dpGP3C2PLnnvu6V/m0j/yU9a5jbitgR100EE+jESi+tOZTSJdOBLpmo+7T5EsXHl2aJGO+HJPP/OMHXTwQbbG8GE+Yx5CHYsg4goFIl1+Xr5fYJL9cOasWX7La0dcCLUH8EIhsP0xeLBssomfiIUt/hHp8M4h2YBEVSFaD9obiWKIp0bCCNpjfe2UCTSJFRCn2joscon7xvUS03TvffaxQYMH+8lmppvc+jGktMgycrKsoLjQBgweaH/Z6S92zbXX+iQgDY0dHJ+JGhNkJm1/cuXXo1cvL/5hfkttTKTDy3vdddax008/zY1NMyOJgO0RVyYS6YSIQKzJhEL/0tFFur59+/okUOygCDyL6XeDmLOyzmmMjYGRMO+www5LWH86s0mkC4d6I5Guebj7FMnClWeHFunIgvfKq6/YqaedZqM3G209e/X0CSSyc3OsqLjYWVHtlqLcXJ+cgLcvf5sxw3srdMQtRW0ZJpYsjJl0nXPOOX6CGeZBF3jtIOKd5p6tEKJ1CNopCQxYJI0dO7bedhr8PP/889tVCAHERAQ3vNcOmzTJyBDOZDMjM9N7t5WUl/qkDvnFhdazTy/bdPQoO3/KFHtv7lz7pYGxgzL86aefbObMmXbwwQfbGsPWqM02XlLkBTqOXVRS7Cd1JW6c2siVH2X93D+e8wktJNIJ0XmJNZlQ6F86ukjXv39/u+KKK3wfLUQicNI4+uijE9afzmwS6cKRSNd83H2KZOHKs0OLdCwm33nnHbviyivt/3bd1QYOHOiz52EFhYV+IcS/c3JybLXVVrP9DzjAbrn1Vvvgww/bhcdHe4QJJG+86KgoY54RYiqB2lkQM6iOGjUqdOGPBSId2+zYQtcRF61CpBpeVATtFFGJtrp48WLfTo866ijvQRcIcYksPrHL1Vdf7dt9e4F7x6P66aeftpNOOsnWXHNNP9lMz2DsKLDyygorKi2x/KJCH9902IjhdoKbgL3x5psNTsLoA7//4Xu7//4ZtssuO1vfFfrWbnEtK7XSinIfiiEQ6cpKS305X3rppfbqq6/6fjJKzLv2hisTiXRCRCDWZEKhf+kMIh194nvvvacX6mIZaAPypEtsEunCkUjXfNx9imThyrNDi3QsLj/86CO786677JAJh9jqa6zuRbkuaWlepCNLH4G6c/NybeDgQbbz/+1il19xhb3rBv6fO3hDShV0ggwMN9xwg11zzTV2ySWXeC+RU045xfbZZx/bcsstfUIIBpBEC3+Mv2FstSPmYEdctAqRSvB6Q6C66aabfDu9+OKLl7bTfffd17fTddddt8F2ikhHbJj7778/duT2Af0UiYcCz17uhZh0XqQrKvSeb4hpeYUFlpOXZ71697IDDjzAXnjhBf/SoT5YQHz3/Xd2991322abbWbl5eWW6cahkvIyn3Uc0S8Q6Src37bYYgu7+eabfTZYYuW1J4/EqLgykUgnRARiTSYU+heJdKIzQxuQSJfYJNKFI5Gu+bj7FMnClWeHFunw3Fj42UJ79LFH7YQTT7D11l/PMjMzfaeBSFdSVmZ5BXluoZVvvfr2tlGbb2ZnnHmmvfHGG/bTjz/FjiKSCROq66+/3nbeeWfbdtttl3rNEeCVLcf1LfoDQ8TjO5dffrnfmsyALIRIHgjfJIUYN26cbbPNNj47K+1u2LBhkdspCSMQ6S677DIvMLUnEMJ4ybNgwQJ//WSZ9iJderoVFhVaVU21F+rI9spLHwKZ77LLLvb3v//dvvv2u9hREkN/hQA4bdo0X6Z5uXmWlp7mvejIPI5QF4h0VVVVPoHOfffd5+PR0X92xP7O3ZNEOiEiEGsyodA/dAaRjhe8EulEImgDEukSm0S6cCTSNR93nyJZuPLs0CIdDW7RokX2/AvP27nnnWsjR470ndNyrtMg+LfP8OoWQ2xZYmG0xojhNmHiofac67i+/+772FFEMmFCde211/otcMSUq2+7XCLj8wh0o0eP9jGdhBDJB5GOreRsKQ/aXd222JCxRZStmsSva6+QIRwvNjzeEOkQ09iaWt21xqq6VvtxxL/0KSjwYhpbgRd9tch/l4VCPMH/IwB++eWXds3VV9vwYcMsJzvbHTfdb6HluIh/xEtliK6urvaZcZ944gkfY6ej4spGIp0QEYg1mVDoZyTSic4MbUAiXWKTSBeORLrm4+5TJAtXnh1apGOhueTbJTbn7Tk+yOxWW23lE0dw6yyuWBSxxajALYjwiOjZu7fttMvO9tjjj9k3i7+JHUUkEyZUbJ/DO4eFPwNFYwQAPk+weiZoChosRMtA30mfOWbMGC+KN6WdIvBdcMEFLTKZai3wpmPBi9cvk02EOjzpENMw4tPx+/z8fD++3HXXXb5fSuTxFvw/f5s/f77fQrz66qv7MQkPvaUiHdtdYyIdk8Vxu42z5557zl9LR8WVjUQ6ISIQazKh0M9ou6vozNAG8DyXSLesSaQLRyJd83H3KZKFK88OLdLhsUDA808//dRuvfVW23HsjktFOhZXFW4xhBUWF1u6a/wlpSU2arPR9rcZf7OvFn0VO4pIJoFIhycdW+EQABIt8utaIBTgQXfCCSfY3LlzNTkTooUIPOkQxBHnogp0tFM+y/ZY4teRuKc9i0uUw0MPPeS92ZggEpMu2O6KBZ50eXl5fuv+dddfZ7Nnz/Zeb4w/deF3xJV76623bPLkyUbWWC/SueMi0nHMCpJSxES6Hj172r777euzlHMtHRWJdEJEI9ZkQulMIh3zwPaUkEi0HnirE7c6Uf3pzCaRLhyJdM3H3adIFq48O7RIByyKWDA98MADtttuu/1XpCso8NuK8FwggQS/I4HEhhtt6AN6k9lPJJ+minQMKMRvOuCAA/wEVAKdEC1HU0U62iif3WuvvXw/2t4XUH/88bvNnPmEjd9rvBWXFFt2bo4VFJPRtcKHSPAiXVoXy3G/32DDDWzKlCn27LPP+gVCIlGNfou/8RkmbEOGDPHJi9IzM7xIx0sjH4ahuMjSMtJtwMABNmnSJHtr9lv27/90vIQRARLphIhGrMmE0hlEun79+vndFIh0HfnlhWg6hDo64ogjEtafzmwS6cKRSNd83H2KZOHKs8OLdMBCkYDeCDxsS+LW82MiXU23rlZSVup/l+06rrXXXttnNPx4gbZStgSBSMf2sYZEOv7Gop8A9Hip8PymT5/uY00IIVoOFj5sdw1Eusa00/3339+3U5K6tHcoh2eefcYmHT7J+q/Y3wtohEcoKi3xolog0mXnZNuIESPsxJNOtAcfetAWfLIgoScdEzSSUTz88MNefBswYICfMGdkZvrjcfxiNx5xfJJHrLnWmnbyKaf4bV3/cf91VCTSCRGNWJMJpTOIdCz+L7zwQu+pzf0KURdehjHGJqo/ndkk0oUjka75uPsUycKVZ6cQ6RjE6TQOP+JwvwhaLi3Nx6ALYgCVItJ1Wc6yMrN89kKy+b39ztv2y6+/JFxoiaYTiHRBTDoW9wwW8caiPxAFCNhOp8wW13vuuUcCnRCtQCDSEZOONllfO0Vsp52Ssfn444/3Ah0T5I4A5cBW07PPPts22ngj69mrpxUUFVp2Xq5/uROIdEx6V15lZZtw6AS74847bN778xKOHYRfeP/9930ZIWYyiSXjeGZW5lKBrqCkyP/s4c61+RZb2AVuMfrhhx/GjtAxcWO0RDohIhBrMqEw3+3oIl1NTY3tueeePq4n90pIAhbuZMGWdV6jDgT14Prrr7ett946Yf3pzCaRLhyJdM3H3adIFq48O41I9+prr9pJp5xsvfr0tqzcHMstyPdJI9iy5D3pXEfCYmmVVVaxsyefbf94/h/2zTffKN5FkkGku+6662yHHXbwi/t1113XCwCBMXAEHjoMsMSUuPfee5cGYxdCtDyIU1dffbWPxRaI6WHtlK3rtFO2tyJAMdHpKCC0vfvuu3adm/CTwGHwkMGW78YOXuoQm45/d0lP855wAwcOtD3H7+n7tzlz5tjvfyxbDsSje/vtt+3maTfb7nvsbr179Y6JdFkxL71CyyvM9/9eaeWhNm733ez6G27oEF6J9SGRTohoxJpMKJ1BpKPPrKystJ49e1rfvn29GMBPmSywXr16WXFxccL605lNIl04Eumaj7tPkSxceXYakY5F05QLptiwEcN93B+2LBWWFFlZZbkX6VhoMfAPHjzYjjvuOHvkkUd8wgm86UTyoBN85ZVX/JZitiuceeaZPsD8qaee6n+eccYZ/vcEBb7jjjvs1Vdfta+++koejUK0IvSZL730kk2bNs23R9plfDul3ZK59fLLL/fi3Msvv+zjeHYkgQ7odz6aP9/ucYvewyZN8p7WhYWFfsJF8iG86jKyMi0rO9tPSMfuONamTp3q+y2Ezrp8++23/m+XX3G5jf3Ljta9R3c/8eT7eHbj4U3cO0S6tdZZ2yYceqgrX7b4f+6fSUfF3ZtEOiEiEGsyodBPdHSRTiZrjCVTKGrvJpEuHIl0zcfdp0gWrjw7hUgH8+bNs2uvu9a23Hor67dify/M5RXmWXFZif832fUQ6VZccUU7ZMIhfuHJd/71S8duUK0NE8gff/zRL+jxunnjjTf8Ah/hjp+vv/66/z2eI999913sW0KI1gavr88//zxhO+X/6R95kcHnOir0Vws/+8weffwxO/X002w9N7EtKalNNIRIV1RSZDn5eZabn289e/WyTUeNstPc55577rmEIh3e2SSNmHzOObb5lltYdbdqnzQiOyfHi3Q5eble9CstL7NN/vQnO8FN6ohfx/ZhrqWj4u5NIp0QEYg1mVDoJyTSyWSyRCaRLhyJdM3H3adIFq48O41IR7Bu4gDts+++tsbwYVZeXWGZOVmWX1Tos7tmuIUSIl2fPn38lqXrb7je3nzzTfv5559jRxDJgkkkHioYC9m6FvyNzwkhUoPaaW0ZBNlYL7zoQhs5cqSVl5f7CVcBIRPc2FHrlV1s1d26urFluB06caI99thjCb0KOdZjjz9uxxx7rK2/4QZWXlXuxx7EOUQ6xLp0NxHlHFtsuaUX8556+in7+ptvOnDaCIl0QkQl1mRCoc+SSCeTyRKZRLpwJNI1H3efIlm48uw0210/+/wze+TRR/ziiADg1TXV3nsuNz/Pi3SZ2Zl+scSkZsyOY+3CqRfZ8y88772+hBBCdD4YOxYvXuw9fK+7/jrbaqutrKqqyk+4iEeHx1tpLOFDYXGRde3WzcaMHWN33nVnwhiaJL7567332T777Wurrr6a+26ZZeVmW15hQa1Il51t6enpVlFR6ZN2XHLpJfbiSy/a4m+XKLurEEIinUwma7JJpAtHIl3zcfcpkoUrz04j0n351Zf29DNP2znnnmNbbLGFb4RpaWmWk5vrRbqsnCzLyMrw4t3IUZvayaecYo8/8YR9//33saMIIYToTDB28KKGLb/3/PUeGzt2rHWtqZ3A5eXXZgivjCUfIvkDseXW32B9n3Tj55+W9cL+eMECu3naNNtuh+2tT7++XtxDoCsqLfbHysrO8iJddXWN7TpuVy8MvvHWm/bd999JpBNCSKSTyWRNNol04SDS3XLLLVZWVpbw/M21Y489tsPvznP3KZKFK89Os931m8Xf2MuvvGxXXHmF91Bg8sJiKCc3x4t0Ofm5lpWbZWWVZT65xMGHHOImOvf6QN9CCCE6J2T4ZkI4a9Ys23233Wz57t39hCsvP88nIaruWuNFOjyxGVNWX311n2wjUUzNDz/80CeNYKtrWUWFFRYXW1FJsU8UgUiXiUiXkW7dunWzfffb1+648w57b97cDu/RLZFOiGjEmkwoEulkMlmYSaQLJ/Ck6x6b43HtOPM014JjnXTSSfKkE9Fx5dlpPOlYMM15e47detutNm7cOJ+eOy09zbJzsv0Ci5hC+UUFPpFEnxX62o5ugnP99df7rU5CCCE6L4hkJMvYf//9rGfPnn7SlZeHSFexVKQjAQQTstVWXc3OPfdc+zIuKzVjELz33nvem3vISkMsMyvTe+OxZRZvPAQ/vPEQ+lhcTzh0gt1///0+nipvX4NjdETcvUmkEyICsSYTCv2ERDqZTJbIJNKFg0j3xBNP2I477mjrrLOObbbZZn7n3eabb94so6z/9Kc/2Y033pgwDEpHwj0nkSxceXYake6nn36y+fPn20MPPWQHHHCA9evXz4t0bC9ikYQnQxBXCM+6jTfZ2HtDLFq0KHYUIYQQnRESZXz00Ud22KTDrO8Kff2EMTeW7KGyptpKyvGky/Qi3SqrrGKnn36695oL3poyBsHs2bPtlFNOsd69e/tj4Mld7sae6m41MZEu04t0CIHHHHOM/f3vf/djEBO74BgdEXdvEumEiECsyYRCPyGRTiaTJTKJdOEg0r3zzjs+XMmUKVPsqquusmuuucb/f1OM72IXXXSRN8qFuWRHxj0nkSxceXYakY7G9/XXX9tLL71kxxx9jA0ePNgvhvBcCDwZEOryCvKtS1oXW3XVVe3UU0+1L774InYUIYQQnZXPP//cjjv+OBs4aKCfMGbn5lqJGzsQ1/jJWIJIx9hy1FFH2UsvvugFNsYexiAgAcVxxx1nPXr08McIhL6abl39GOSFPjcukWUcoe/VV1/1XnRM7IJjdETcvUmkEyICsSYTCv2ERDqZTJbIJNKFw84Hdt3xgnXu3Ln+xWwybN68ed7QIDryPA7ccxLJwpVnpxHpgMUOAcBPP/0MW3mVVbxIRxwhRDoSRrBYItsrRTNgwAC/0Pp4wcf+u0IIITovCG5nnn2WrTF8mGXmZFtOLDM4nnClZaXeKxuRrn///t5b++GHHraPP/7Ye9MxBiG0vfjii3bEEUcsXTzHi3SIfeluEsq4hKc3b3LffffdDv/mFVz5SKQTIgKxJhMKfY1EOplMlsgk0omWxD0nkSxceXYqkY7FDp5x57vFz+prrOEXQ2kZ6X6ba1Udka5v37528MEH29vvvN3h95ALIYSon8VLltill11mI0ePsvLqKisoLvKxTIlHh2VnZ/sJKVtZd9ttN7vjjjvsvXffs59+/MmPQbwkevLJJ+2QQw5ZGpiY8YZxp7prtffkRqTDIw9vvMsuv9y/he0MuPKRSCdEBGJNJhT6Gol0MpkskUmkEy2Je04iWbjy7BQiXQCurLibXnLJJbbmWmv6Bt8lPc2KSku8F4Pf7pqf7zsDEkvsvffevrMheURn8GYQQgiRmO++/95uu/12233PPW3w0JWsvKrCJxsqKC70CYeyc3L8hJStrCyQr7/hentr9lv2ww8/1I49i762+2fcb3vttZfV1NT4cYbwCow7jD945aWTTKKwwFYfNsyuvfZanzSiMyCRTohoxJpMKBLpZDJZmEmkEy2Je04iWbjy7FQiHZOX791Ci8XTnzcd6ZNEZGZne2+IUrYslZdZvls0UTQstHbddVd75JFHbOGnC5duWRJCCNH5YOx44MEH7cgjj7T1N9zAZ3XNycv1QhsCW05urp+Qdu/W3bbeemu74MIL7cWXXrRvv/3Wx6VDcLv99ttsl112scrKSj/O8F3GnrLKCv+yKNf9f3XXrrbJn//sPnu7j4PXGXBjq0Q6ISIQazKhME+VSCeTyRKZRDrRkrjnJJKFK89OJdIBW46m3zPddtplZ+vZp7ffsoSx5ZUtS4FI161bNxszZozdeeed9t577/kFmkQ6IYTonPz444/21JNP2Vlnn2Vbbb2VdV++u49DhwcdIh1bV0n6gJfcJptsYsefcILN+vss773922+/2bvvvWvXXHuN7bDDDlZeXu7HmfyCAv9yqNhZYUmJ+3e5DRg0yHbcaSe7//77O012cYl0QkQj1mRCkUgnk8nCTCKdaEnccxLJwpVnpxPpWCw9/vjjdthhh9nwNUdYdbeuS2MLIdTlFxb4zqCqqsq22GILn0b5lVdesW+++UYinRBCdFJ4wfPyyy/bZZdd5r3hCIlA4qHMrEwrKS3x40hmTpZVVFf65BJ777OPn0wSB/WXX3+x19943aZefLFtudVWVlZW5ieviHS8HGL8yS8qtK7du9laa69tBx50kM2aNcuWLFkSO3vHRiKdENGINZlQJNLJZLIwk0gnWhL3nESycOXZKUW65557zk477TTbdPQo6+EWWnhAYEVuoVQQE+lYRG288cZ2zjnn+GDfLLSIKySEEKLz8csvv9ict+fYTTffZPvsu4+fgCLSYYh0vORhuyrx6Xr37ePHlxtuuMFvc+W7z7/4gp19zmQbuemmVlpaamnpaVZQRDy7Ur/tFY+87m5RvZEbd4486ih79tln7bvvvoudvWMjkU6IaMSaTCgS6WQyWZhJpBMtiXtOIlm48ux8It3vv9mrr75qF02damN2HGt9+61gWdnZ3huioLDQL5oomuLiYltzzTXtqKOPsr/N+JtfaEmkE0KIzgnecB98+IHd89d7bOJhE23AwAGWmZlp6RnpVlJW4uPKeY+4wgL/wmfwSkPsggsusHnz5tkvv/xq/3AT1zPOOtM2+dMmfnzpkpbmP0tsVMYgso337NnTNtt8czv1tNPspZde8mEWOgMS6YSIRqzJhCKRTiaThZlEOtGSuOckkoUrz04n0v3+x+/eG+K666+zPcfvaYMGDfQLrTQWTAVuceUWT8st18V71A0dupLtseceduNNN9ncuXOV4VUIITopeGEv/GyhPfroo3bCCSfYSiut5MaODOuS1sVvWa2qqfYx5UgmgZdcZVWlnXzyyTZnzhz/XV4OnXfeeTZy05FWVFTkJ53Z2dmWnZPtxx+sX79+fnF96WWX2VuzZ9tPP/0UO3vHRiKdENGINZlQJNLJZLIwk0gnWhL3nESycOXZ6UQ6hLZ578+zO++60yYcOsFWWWVl70VHRxLEByLjKx4OwZal86dMsdffeMNn6BNCCNH5oP9fvHixn4ASBmG11Vb7H5GOrKwVVVU+dALDKy96jjrqKHv99df9uPPRhx/Z9ddfb9tuu+1Ska6urbzyyjZhwgS79777bP78+X6bbGdAIp0Q0Yg1mVAk0slksjCTSCdaEvecRLJw5dkpRTq2rj740IN2wokn2Ig1R/gMfYEnXVllueUXF/og3hXVVbbSykPtmGOP9VuVJNIJIUTnhHAH//rXv7wn9mWXX2bDhw/3XtjLdVnOZ3et7lZjVW7MYBxheM3NybFDDjnET4TxpCP50COPPOJ/N2DAAMtxf8/JzfU/mTQTB3XLLbe0iy66yF597TWfFbazjDkS6YSIRqzJhCKRTiaThZlEOtGSuOckkoUrz04n0rHQ+vKrL+3Z5561884/zzbYcAO/SPIiXWGBF+ZKK8osv6jA8vLz/Jalfffb1/7+97/7hZYQQojOB4tfDA+3G268wdZZZx0/2WUoJRZdZU21VSLSuXGE32W7v40fP94efvhhnwCCravvvPOO3XTTTbbPPvv4BBGrr7GG98hbe+21vYfdmWeeaU888YSfgP7r55/tP50kDqorV4l0QkQg1mRCoY+SSCeTyRKZRDrRkrjnJJKFK89OKdJ9/8P3NnvObLvm2mts01GbWm5u7lKRLlhokUAiIzPTC3g777yzX2hJpBNCiM7N51987sMlbLzJxrVbW90klPGioqrSWyDSMRFmoXz77bfbwoUL7eeff7YlS5bY22+/7RfRxKc7/PDDbeLEiT523bXXXmtPPfWUffLJJ36bK2NVZ0EinRDRiDWZUCTSyWSyMJNIJ1oS95xEsnDl2elEOiYwv/72q9/yeuedd9pWW21leXl5S7e7Evy7umuNFRYVWVp6uv/9dtttZ/fdd1+niQ8khBAiMWxDJVzCNttt61/oZOVk+/AIZRXlVl5Z8T8i3dZbb21XXXWVvfvuu/bDDz8s3TKLaPfiiy/ajBkz7K/33muzZs2y9957zxYtWmS//vpr7EydB4l0QkQj1mRCkUgnk8nCTCKdaEnccxLJwpVnpxPpAhZ9tcjuv/9+23777UNFunREOmcIeQh6nSXTnhBCiMR8+9139vQzz9j+BxxgQ1de2YtzbHcleQQiHQkjgonwZptt5mPMvfLqq/bN4sVepGMRjVCH2MfLoo+dff7FF35LLAJdZ/KgC5BIJ0Q0Yk0mFIl0MpkszCTSiZbEPSeRLFx5dlqR7vvvvreZM2f6Bl9SWmLprvHnFeR7zwiEugJEOvc7hLrRo0fbjTfeaF999ZWfAGFCCCE6Hz/++KO9+uqrdsKJJ/q4csv37GkFxUXeEOwCkY4J5UYbbWSnnX66zZw1yz7//PP/SQRBEiNEuV+cEUohEPA6I+6+JdIJEYFYkwmFPkQinUwmS2QS6URL4p6TSBauPDutSIdXHB3UAQccYD179bTc/Hy/TQlPiCAmXSDS/elPf7LLLrvMPvjwA/v5Xz93Sk8HIYQQ5mPLzZkzx6ZMmWLbbLedrdCvn+UVFFhOXq6VlpXWinRpXbx39vDhI+ywSZNs+j332EcffWS/KmRCQiTSCRGNWJMJRSKdTCYLM4l0oiVxz0kkC1eenVakY7vRq6+9asefcLwNGzHcqrrWWFFpiRW7RVZZFXGFakU6FlrrrbeeTT5nsr32+mu2ePHi//GGEEII0Xlg7Jg7d65ddfXV9n+77moDBg607JxsN16kW3FJsRUwdsTimQ4cNMh23W03u/Kqq3xmV74rlkUinRDRiDWZUCTSyWSyMJNIJ1oS95xEsnDl2WlFul9+/cXefudtO/e8c23kpiOtd98+XqBjy1JpRbn3qqND6NIlzUasOcJOPOlEe+rpp+yLf36hLK9CCNFJIYHQhx9+ZLfceovtu99+NnTloV6kQ5RDpCssLrbs3FzLys6yHj172qajR9nJp5xir7zyiuKahiCRTohoxJpMKBLpZDJZmEmkEy2Je04iWbjy7LQiHULbhx9+aFdeeaXtMGaMDRw8yErKyyy3MM8HAGfLUkZmrSfdqquuahMnTbQZ98+w+R/P9wIfEyEhhBCdC+LIffLJJ3bvfffapMMn2fARwyw3N9e/0CkqKfYve0gkkV9U4GPUrbL6arbv/vv5lzxkeBXLIpFOiGjEmkwoEulkMlmYSaQTLYl7TiJZuPLstCIdW1Y//fRTu+WWW2zP8eNtVbeQKq0os6zcbCsqrV1gZWZneZFu0KBBNn6v8XbjTTfa22+/7bcsSaQTQojOBy94Pv/ic3ti5hN28ikn2/obrG8FBbXJIhDpyiorvCHWEadu+Z49bNvtt7NHHnnEZ3AVyyKRTohoxJpMKBLpZDJZmEmkEy2Je04iWbjy7NQiHdn2/nrvvXboxIm25tprWVl5uaVnZlhBcaFPHMECizhDvfv0tm223cYmn3OOPf/CC/bDjz9KpBNCiE4IWVm/WfyNj2k69eKpPvt3UVGRn0QWFRdZRVWlVdZU+7AJaW78IHs4yYfuv/9+iXQhSKQTIhqxJhOKRDqZTBZmEulES+Kek0gWrjw7rUjHQuvLr76yRx97zE486STbaKONrKKi0rqkpVl+QYEVusUWcemycrKspluNrbf+enboYRP95791Cy2JdEII0fmg7//xxx/to/kf2bRp02z77be3kpISP4lEpCM7eHXXGiuvKLfluiznt8KuvfbafuG8ZMmS2FFEPK5MJdIJEYFYkwmF/kkinUwmS2QS6URL4p6TSBauPDuvSPfvf9s3ixfbc66TmjJlim2++eZWU1PjO5S8/DwrLi22orISyy3Mt9LyMhs8ZIjt/H+72D1/vccWL1kskU4IITopbHldtGiR3XvvvbbTTjtZaWmpn0QWFtWKdDXdunqPui5pXSwnO9uGDRtmt956q3355ZexI9QupkUtriwk0gkRgViTCYV+RSKdTCZLZBLpREvinpNIFq48O61I5xYE9t3339ubb75p1117rY0dO9Z6uAkNHUquF+lKfIy6gpJiyysssK7Ld7c/j9rUbpp2s3399df++0IIITof9P940z366KO22267WVlZmZ9EFhb+V6Qrr6zwntnZWdm26iqr+iRFH3z4gQ+1wEIaE7W4spBIJ0QEYk0mFPoViXQymSyRSaQTLYl7TiJZuPLstCIdE5mffvrJZ3idPn2671D69O5Tuz0pvzbDK54Q/MzKzfHbX9cYPswuv/xy++cX/5RIJ4QQnRiyvD711FO2//77W7fu3b0ghyddRWWlVXWt9iIdiYcQ6YauNNTOO+88e+ONN7y4R7gF8V8k0gkRjViTCUUinUwmCzOJdKIlcc9JJAtXnp1apGORRUN//PHH7YADDrB+/fr5joCEEWxxraqpXWhlug6NTm3FFVe0c845xz7++GOJdEII0YnBI+7Fl16yY4491lZaeWUrKC6q9cB2YwcveLxIl57uxo5sGzx4sJ1xxhl+8oonNttlxX+RSCdENGJNJhSJdDKZLMwk0omWxD0nkSxceXZakQ5+/+N3n23vhRdesCOOOMIGDRrkO4Kc3FqRjuDfLLaysrMsIz3Deizfw0488UR79913tcgSQohODN5whEsg6/eGG2/sQyKQ0RWhrsz9RKRLT0/3L3l4wXPMMcfYY489ZgsXLrRffvkldhQBEumEiEasyYQikU4mk4WZRDrRkrjnJJKFK89OLdL9+z//tn/98i9786037aSTT7LVVlvNdwI5se2uxBZCpMvOyfaLLRJLIOa98sorfqssMCESQgjRuUCke/e9d+2KK6+w7XbY3voPHGBllRW1HnVu/ECkYzzJzMy0Pn362IEHHmh33323zZs3b+n4IWqRSCdENGJNJhSJdDKZLMwk0omWxD0nkSxceXZqkQ7wiGOhNfncc2xd12nlFxZ6Kywp9t4QXqTLzbF01zkg0k2YMMGefvppv2WJ7U7a9iqEEJ0PFsMfffSR3XLLLbb7HnvYyquuYuVVFT4jOOMHsenwost0Y0f37t1tFze5vOqqq+zVV1/1Htziv0ikEyIasSYTikQ6mUwWZq0h0rE7DZGOEFLJFul23XVXmzFjhkS6Nop7TiJZuPLs9CIdExpizF12xeU2evPNrbK62opKS/wiq6S8zC+6cnJzfOdQ7f6277772kMPPbR0yxLfF0II0fn49NNP7a/33muHHDLB1lxrLSurLPeJhsgIjiddVna296Srrqm2zbfYws486yx78sknbfHixbEjCHDjqEQ6ISIQazKhMCeVSCeTyRJZa3nSkfVennSdD/ecRLJw5dnpRTqgsd88bZrt6CY1vfv28XGFCkqKl25ZIkYdnUNlZaXtNm6c3XXXXX7LEln6JNIJIUTn5IsvvrBHHn3Ujj/hBNto442993VGZqbl5uXVjh15uZaVk20V7t9rr7uOTTp8kt1///22aNGi2BEESKQTIhqxJhOKRDqZTBZmrSHSsdtsm222sbKysoTX0Bzbdttt7c4777TPPvssdjbRlnDPSCQLV54S6Rx4NTCp2WvvvW3wSkO891x+Ue2WVxZauYh06elW7jqcMWPG2LXXXmuvv/66LVmyRCKdEEJ0UhDbnnnmGTv33HNt8803t/Lych8agRc7jB0FbhzJLcizkvJSGzR4kH+7fOutt3pxT/wXiXRCRCPWZEKRSCeTycKstTzp9thjDxsyZIgX6goLC620tLRZlpOT4x1lxo8fb/fdd5/mUG0UV8dEsnDlKZHO8e2339qDDz5ohx56qK0xfJhVVFdYTn6uX1yxfSk3L9cnjiguKrJRo0b5BRlvCr788kvFpBNCiE4Ii2HGjjfeeMOuu+4623nnna2musZ7XWe7CSUiXXFZieUXFfhkEmQL33yLzX2iCcIliP8ikU6IaMSaTCgS6WQyWZi1hkj3ySef2PTp0+2SSy7x6+XJkyfbOeec0yw788wz7bzzzvN92+zZsxXXt43i6phIFq48JdI5vv/ue5s5c6Ydf/zxtuFGG1pVTZVl5mRaZm5WrUiXn2fpGelWUFBg66yzjh199NF+yxIdkUQ6IYTofLAYJuTBBx98YPfee6/tt+9+tnz35b1IRyw6PLLZ/lpYUuRj1DGOrL3O2nbueef6OKjiv0ikEyIasSYTikQ6mUwWZq0h0pG9nheR8+fP98m1kmEffvihPx7bXNn99uuvv8bOJtoSro6JZOHKUyKd44cffvCdFYunrbbeyrov390ysjIs3RmLrLyCfEvPzLCCwkJbZZVV/bbYadOm+cWZRDohhOicMFFk28WsWbPssMMOs549e3qRjqyuZAavqK7ysU1z3RjSJT3NVhq6kp100kk2d+7c2BEESKQTIhqxJhOKRDqZTBZmrSHSsS5mbkRyxWQbx/399999PyfaHq6OiWThylMinQPV/40337Brrr3Gdtt9N+vTt49fZKVlpMc8IYotJz/P/+y3Yn/bbrvt7NJLL7W3335bIp0QQnRCmCT+8ccfPjbpiy++aMced6z17t07JtJlepGuqqbaJyLiRQ9Dbv/+/e3wSYf7LbJMNEUtriwl0gkRgViTCYV+SSKdTCZLZK0h0onOi6tjIlm48pRI5/jXv/5l73/wvk2/Z7qPSzdw4EDLzs62LmlpXqQrKS/zAl1RaYl1Xb6bbbjhhn5//GuvvS6RTgghOiEshjFe8rw1+y07/fTTbeCA2rEDkY6YdIh0gTc2Qy4i3gEHHGDPPfec3yqr8aMWV44S6YSIQKzJhEKfJJFOJpMlMol0oiVxdUwkC1eeEukcv/32my38bKE9/sTjduJJJ9rKQ1f2mWTozFhgEZeOAODEFioqLbahq6xsRx51lOvgnpc3hBBCdEJYDMOvv/1q8+bNswsvvNBGjBhhRUVFlpmdZSVlpd6bjjEkv6DAT5DZDkt2sscff9y+/vprP/YEx+nMuDKQSCdEBGJNJhT6E4l0MpkskUmkEy2Jq2MiWbjylEjn+P2P3+2bxd/YSy+9ZOedf56tscYalpeb6zuz0vIyHwC8pLzUCooLLSsn23r27mV777OPPfLooz6enbwhhBCikxET19jyumDBArvmmmvszyNHWtduXb3nHJ7XCHSMIfmFtSIdi+bdxo2zGTNm+BdDeHFLpJNIJ0RUYk0mFIl0MpkszCTSiZbE1TGRLFx5SqRzILKxZendd9+1q6++2tZZd12fyZUiwhuivLLSL7QKiossLT3Nyty/t91+O7t52jS/ONNCSwghOhmxPv8/bvz44ovP7ZbbbvXjwgr9+/lkEYh0hEpgDFkq0nXvbv+3yy52zz33+AyvP//8s8YOhysDiXRCRCDWZEKhP5FIJ5PJEplEOtGSuDomkoUrT4l0MRDqPlu40O64807786Yjrbik2HdoRSUlPrYQVuwWXV3SulheXp6tu+66PgbRM88+Y1999ZW2vQohRCeERfGirxfZ9L/eYzvtsrMNGjLYe9DFi3QFMZGue/futssuu9j06dNt/vz5EuliuDKQSCdEBGJNJhT6E4l0MpkskUmkEy2Jq2MiWbjylEgXxzeLF9sjjz5iO+70F+vRq6ePK5RfVOi9IsjQx2KLgOA5Odm2Yv/+9hf3uYsvudhee+01++6772JHEUII0VlgUfz1N1/bXXffZduP2d76xjzpgnGjlFAJ/yPS/Z9Eujq4MpBIJ0QEYk0mFPoTiXQymSyRSaQTLYmrYyJZuPKUSBcH2faef+EFmzjpMBu25gi/wMrOz7Xcgryl8YUKiwotLz/fysvLbciQIbbrrrva7bffbh9++KH3ptOCSwghOg94YX/xzy/shhtvsE1G/smqutZYXmGBHz8qqkkcUbZUpFu++/JuzBhn9917n33yyScS6WK4MpBIJ0QEYk0mFPoTiXQymSyRSaQTLYmrYyJZuPKUSBfHr7/+6uPSTZ061cbsOMb6DehnmbmZlp6V7mMKVVZXWVVNjZWWlbtOLtuysrNt0KBBduyxx9pjjz1mn3/+ueLTCSFEJyDo58nQOnfePDvv/PNt5VVXsdy8XO+FXV5V6caLap8dnEQSDLk9evSw3Xffwx5++GH78ssv/Zij8UIinRBRiTWZUOhPJNLJZLJEJpFOtCSujolk4cpTIl0cv//xh33+xRdecDvxpBNt/Q3Wt/TMdN+xsciq7lpjXbt394kkcnJzLS093crKy23jTTa2o44+2qbfM93mvf++/fTjT7EjCiGE6KjgPc3LmYceesgOOvgg69mrp2VkZniRrgKRzo0ZpRVllp2X48eRHj172D777G3PPPOMMoPHIZFOiGjEmkwoEulkMlmYSaQTLYmrYyJZuPKUSBfHv93k5seffvKxgm677Tb7v13/b2mW19y8PKuqrvZCHYsvkkjkFuR74/+HjRhuBxx0oM/aN/e9ufb9d997DwsWYUyahBBCdAzo07FFixZ5wW3y5Mk2evRoHwYhPSPdsnNz/LhQUV3lQyVk5mT5cWSFfn3t0MMOtdffeN2/FBK1uLKUSCdEBGJNJhT6JYl0MpkskUmkEy2Jq2MiWbjylEhXByY4v/zyi7344ot2ysmn2KCBgyw/v8B7zhWVFPu4dMHii8x9iHRd0tKsqLjYC3VHHHGETZs2zZ5//nlb8MkCW7x4sY87hMeFBDshhGi/0H//8ccfPqzBN998Yy+99JJdcsklfkE8cNAgKygs9MmF8vLzfEbw0vJyy+d3OdmWnplhq66+mp16xqk29/25sSMKcOUqkU6ICMSaTCj0URLpZDJZIpNIJ1oSV8dEsnDlKZEuhI8//tjuvPNO23333W3lVVa2ktJSv40pWHyxjWmpl0R2tmW5RRji3eqrr25jxoyxY4871m686UZ7+pmnfVKJJUuWePGPBd5/3H9CCCHaDyx+8Y5esnixzZ071x599FE799xzXX8/1gYMGGClboxApCO5UGlZqR8n8gsK/NhATNOevXvZ9mN3sGuvv84WLlwYO6oAiXRCRCPWZEKRSCeTycJMIp1oSVwdE8nCladEuhC+/fZbe+ONN+yaa6+xXcftaiuuuKJlZGRYRmam96ircAswEkkQHByPuvyi2sUYnV91TbUNHzHcdt1tnJ01+WybPv0e3xm+/fbbXrD75NNP7PMvPrevvvrKe2PgbSeTyWSytmf00f/85z9twYIF9t6779qzzzxjt9xyix1z7DG2xZZbWN8VVrDc3FzvQefHBjcm+LAIbozgd+npaVZeVmab/PlPdtIpJ9sTM2e6Yy6OjTQCJNIJEY1YkwlFIp1MJgsziXSiJXF1TCQLV54S6UJgeyqLszfefMMuvOhC23KLLay6utp3biy8yOBXWl7ms/dVOisuK7Uc97u0tHS/NZZF2kqrDLVNR42y3Xbf3Q4/4nA744wz7KKpU+3qa662m6fdbLffcbvddddddvf0u2vtbplMJpO1BZuOTZ9ud9xxh9108012+RWX25lnnmkTJ070C+B11lvH+vTrY8WlxX5MyMnN8WNCbYKhbl6sS09Pty5uqO3WrZsdcOABPmYpL2rYLiv+i0Q6IaIRazKhSKSTyWRhJpFOtCSujolk4cpTIl09INQt+XaJPf7E43bc8cfbBhtuaF3dYis7O9tvfS0oLPCedGx7Laus8EJdQVGh39pUUFxoJe7/q2tqrHefPjZkpSG21tpr2chNN7Xttt/Odvm/XWyPPXe3PcfvaXvuNV4mk8lkbcXGj7fxe+3lbbfdd7Md/7Kj95pbe+21bdCgQdajRw8rLS+1/KJ8yyvM8/0+/T3jAR7WGIIdGcCzc3Js5ZVXtqlTp9qcOXPsp59+UlbXOkikEyIasSYTikQ6mUwWZhLpREvi6phIFq48JdIlgElOAP/+aP58u/e+++yYY4+1P48caT3dAi0/P997TiDIFZWUeJGOOHV4UZRXVVhhSZHf/pqWnuY7xrS0NJ8hljhFPXr1tH4r9reBgwfZoCGDZTKZTNbGbPBKQ7ytOGBF692nt+/bc/PzfF9On75c2nKWmZ3p+3pEOb/F1f1ErPMvawryrbC4yH1/gO2888728MMP++2zAfHjTGfHlYVEOiEiEGsyodCvSKSTyWSJTCKdaElcHRPJwpWnRLqGcBMetiZ9unChPfXUUzZ58mTbZpttbIW+K1hOTo7v9DJch0cCCba9ItRV1uBZV+7jEyHisbBDoMuLLdqIYYeo573w8LyI/ZTJZDJZ2zCEN376LK0V5Vbs+vi8ggLLcX054Q58f15S5Pt6wh74FzTus/T1jAu8oBk6dKjts88+dvPNN/tkE9rmmhiJdEJEI9ZkQpFIJ5PJwkwinWhJXB0TycKVp0S6emCyE0BWv0WLFtmsWbO8UDd27FhbaaWVrLSszMegIx6d3+ZaVOjFOba+IsaVVtRaifscizz+VlBcZPnO+IloV+h+53/KZDKZLOVG3xxv9NG8iMFLjm2sgZWUl7q+3vXrfK6w0PLy8y0rO9vy8vKtT+8+tsfuu9uNN97okwaRjEjbXBMjkU6IaMSaTCgS6WQyWZhJpBMtiatjIlm48pRIFwITHSwe/v+zzz6zJ596yq644go78KCDbMONNvJBwrNzsn3nR6Bwv0grKPBCHd5yVV2rvacFXhl4ZLDY88JcbOEnk8lksrZjQf8cGH05fbff1orHdKw/Lykttbz8PJ84oktaFx+DrrCoyFZaaajtNm43u/aaa32W8B9//NH++OOP2Egi6uLGVol0QkQg1mRCYZ4qkU4mkyUyiXSiJXF1TCQLV54S6SLApAcDFlrff/+9zZ8/35544gk746wzbb0N1rey8jLfARKvKD0jw8ejyw+CiVdW1G6bqqrw/y5ziz2ZTCaTtRer7bvpx4MtsPTteE8j0PFyhv4/MzPD+vfvb/vtt5/df//99v777/vxIhg/RGJc+UikEyICsSYTCn2NRDqZTJbIJNKJlsTVMZEsXHlKpIsAkx4sHra/4lXH9tezJ0+23ffYw0ZuOtLWWmstGzhokHXr3t17ZLANNjM7y2f4q7Vsy851P2UymUzWvizWh+MtTb+OSIdn3YABA2z48OG22WajbeLEiXb77bfb/I/n+0yuomHc+CqRTogIxJpMKMxVJdLJZLJEJpFOtCSujolk4cpTIl0EmPRgdSEI+D//+U9788037ZFHHrHrr7/eTjvtNNtzzz1to403tr79+/k4dJmZmd67Dm+LDPfzv5Ypk8lksjZrQV8d67vTaw3vOeLPLd+zh6273rq22+672SmnnmI33niTPfnkk/bRRx95gS7RuCGWxZWTRDohIhBrMqHQ50ikk8lkiUwinWhJXB0TycKVp0S6ZsBkyC0s7Pfff7eff/7Ze9Y9++yzdt3119uRRx1l222/vfeu6Nu3r3Xt2tVqamr8z+rqam/8f3W1TCaTydqu1fbXvs92/9+9W3fr4/r0lVddxTbbYnObOOkwu+baa+z555+3rxd97V/eMC4wPohouLKSSCdEBGJNJhT6HYl0MpkskUmkEy2Jq2MiWbjylEiXRIhX99VXX9mcOXPsiZkz7bbbb7epF19sp55yih1xxBF2yCGH2P7772/77L23jR8/3vYcv6f/KZPJZLI2anuNt7323sv23WdfO+CAA2ziYRPthBNPsAsuvMCm3TLNHnv8MXtr9ls++7doGhLphIhGrMmEIpFOJpOFmUQ60ZK4OiaShStPiXRJBq86PCm+/+EH+/qbb2zhwoU2d+5ce/311+2ZZ56xxx57zB588AH729/us3vvu9fucz9lMplM1jbtbzP+5pNAPPzwwzZz5kz7x/P/sNlzZtunn35q37g+/gfX1//r53/5vp8Fsmg8EumEiEasyYQikU4mk4WZRDrRkrg6JpKFK0+JdC0AkySMLU8YSSaIT8SC7vPPP7cFCxb47LAfzf/I/5TJZDJZ2zT66Y8XfGyfLvzU/vnlP+3b7761X375xXtO078H/b1oOq78JNIJEYFYkwmFvkginUwmS2QS6URL4uqYSBauPCXStSIs6n799VfvaUcMO5lMJpO1bfvp55/8T/ptXrj8+z//jvXoIllIpBMiGrEmE4pEOplMFmYS6URL4uqYSBauPCXStSJMnmQymUzW/k0kD1eeEumEiECsyYRC3ySRTiaTJTKJdKIlcXVMJAtXnhLphBBCCJEyJNIJEY1YkwlFIp1MJgsziXSiJXF1TCQLV54S6YQQQgiRMiTSCRGNWJMJRSKdTCYLM4l0oiVxdUwkC1eeEumEEEIIkTIk0gkRjViTCUUinUwmCzOJdKIlcXVMJAtXnhLphBBCCJEyJNIJEY1YkwlFIp1MJgsziXSiJXF1TCQLV54S6YQQQgiRMiTSCSGEEEII4XBzY4l0QgghhEgZEumEEEIIIYRwuLmxRDohhBBCpAyJdEIIIYQQQjjc3FginRBCCCFShkQ6IYQQQgghHG5uLJFOCCGEEClDIp0QQgghhBAONzeWSCeEEEKIlCGRTgghhBBCCIebG0ukE0IIIUTKkEgnhBBCCCGEw82NJdIJIYQQImVIpBNCCCGEEMLh5sYS6YQQQgiRMiTSCSGEEEII4XBzY4l0QgghhEgZEumEEEIIIYRwuLmxRDohhBBCpAyJdEIIIYQQQjjc3FginRBCCCFShkQ6IYQQQgghHG5uLJFOCCGEEClDIp0QQgghhBAONzeWSCeEEEKIlCGRTgghhBBCCIebG0ukE0IIIUTKkEgnhBBCCCGEw82NJdIJIYQQImVIpBNCCCGEEMLh5sYS6YQQQgiRMiTSCSGEEEII4XBzY4l0QgghhEgZEumEEEIIIYRwuLmxRDohhBBCpAyJdEIIIYQQQjjc3FginRBCCCFShkQ6IYQQQgghHG5uLJFOCCGEEClDIp0QQgghhBAONzeWSCeEEEKIlCGRTgghhBBCCIebG0ukE0IIIUTKkEgnhBBCCCGEw82NJdIJIYQQImVIpBNCCCGEEMLh5sYS6YQQQgiRMiTSCSGEEEII4XBzY4l0QgghhEgZEumEEEIIIYRwuLmxRDohhBBCpAyJdEIIIYQQQjjc3FginRBCCCFShkQ6IYQQQgghHG5uLJFOCCGEEClDIp0QQgghhBAONzeWSCeEEEKIlCGRTgghhBBCCIebG0ukE0IIIUTKkEgnhBBCCCGEw82NJdIJIYQQImVIpBNCCCGEEMLh5sYS6YQQQgiRMiTSCSGEEEII4XBzY4l0QgghhEgZEumEEEIIIYRwuLmxRDohhBBCpAyJdEIIIYQQQjjc3FginRBCCCFShkQ6IYQQQgghHG5uLJFOCCGEEClDIp0QQgghhBAONzeWSCeEEEKIlCGRTgghhBBCCIebG0ukE0IIIUTKkEgnhBBCCCGEw82NJdIJIYQQImVIpBNCCCGEEMLh5sYS6YQQQgiRMiTSCSGEEEII4XBzY4l0QgghhEgZEumEEEIIIYRwuLmxRDohhBBCpAyJdEIIIYQQQjjc3FginRBCCCFShkQ6IYQQQgghHG5uLJFOCCGEEClDIp0QQgghhBAONzeWSCeEEEKIlCGRTgghhBBCCIebG0ukE0IIIUTKkEgnhBBCCCGEw82NJdIJIYQQImVIpBNCCCGEEMLh5sYS6YQQQgiRMiTSCSGEEEII4XBzY4l0QgghhEgZEumEEEIIIYRwuLmxRDohhBBCpAyJdEIIIYQQQjjc3FginRBCCCFShkQ6IYQQQgghHG5uLJFOCCGEEClDIp0QQgghhBAONzeWSCeEEEKIlCGRTgghhBBCCIebG0ukE0IIIUTKkEgnhBBCCCGEw82NJdIJIYQQImVIpBNCCCGEEMLh5sYS6YQQQgiRMiTSCSGEEEII4XBzY4l0QgghhEgZEumEEEIIIYRwuLmxRDohhBBCpAyJdEIIIYQQQjjc3FginRBCCCFShkQ6IYQQQgghHG5uLJFOCCGEEClDIp0QQgghhBAONzeWSCeEEEKIlCGRTgghhBBCCCGEEEIIIYQQQgghhBBCCCGEEEIIIYQQQgghhBBCCCGEEEIIIYQQQgghhBBCCCGEEEIIIYQQQgghhBBCCCGEEEIIIYQQQgghhBBCCCGEEEIIIYQQQgghhBBCCCGEEEIIIYQQQgghhBBCCCGEEEIIIYQQQgghhBBCCCGEEEIIIYQQQgghhBBCCCGEEEIIIYQQQgghhBBCCCGEEEIIIYQQQgghhBBCCCGEEEIIIYQQQgghhBBCCCGEEEIIIYQQQgghhBBCCCGEEEIIIYQQQgghhBBCCCGEEEIIIYQQQgghhBBCCCGEEEIIIYQQQgghhBBCCCGEEEIIIYQQQgghhBBCCCGEEEIIIYQQQgghhBBCCCGEEEIIIYQQQgghhBBCCCGEEEIIIYQQQgghhBBCCCGEEEIIIYQQQgghhBBCCCGEEEIIIYQQQgghhBBCCCGEEEIIIYQQQohUs9xy/w/hvEYM9Us80QAAAABJRU5ErkJggg==;" vertex="1" parent="1">
                    <mxGeometry x="-10" y="300" width="331.42" height="151.69" as="geometry"/>
                </mxCell>
                <mxCell id="6" value="" style="shape=image;verticalLabelPosition=bottom;labelBackgroundColor=default;verticalAlign=top;aspect=fixed;imageAspect=0;image=data:image/png,iVBORw0KGgoAAAANSUhEUgAAAKIAAACyCAMAAAD2+uSyAAAAAXNSR0IArs4c6QAAAARnQU1BAACxjwv8YQUAAAMAUExURf///wAAAMXe1jFCOggICHNzlBBKaxAZnGucnJQZvRAZ7xBKEEIZa2sZvRAZxXMZELW1rebe3kLOGcXFxRDv3hDvWhDvnBDvGWNSYykZGYxKlBBKnJRKvRBK75R7lEJKa4xKa2tKvRBKxXNKEL3mEBBKQkIZnJQZ70IZ75QZlGucY2sZlGsZ70IZxZQZa2sZa5R7Y3MZQkpKQpQZEEoZEL1S771Srb0Z770Zrb2Ea70Za72EKb0ZKb2M771Szr1SjL0Zzr0ZjL2ESr0ZSr2ECL0ZCL2MzkLv3kLvWkLvnELvGTEhOpRK7+/v5kJK70JKnGtK70JKxb21lHNKQu/mEBAZIe/v9+a1rWNKjJRKEL3mMb21a71Ka73mc721Kb1KKb3mtb2Erea1jL21Sr1KSr3mUr21CL1KCL3mlL2EjDFKEBAIa2tzWu9S75ScY+9Sre8Z7+8ZrUoZQpQZQu+Ea+8Za++EKe8ZKe+M73Nzc+9Szu9SjO8Zzu8ZjO+ESu8ZSu+ECO8ZCO+MzpSUlBkZEL2975R7zpR7EGt7zmt7EOa975RKQu+1a+9Ka+/mc++1Ke9KKe/mMe/mte+ErRCl7xClaxClrRClKRB77xB7axB7rRB7KRDO7xDOaxDOrRDOKea9zu+1Su9KSu/mUu+1CO9KCO/mlO+EjBClzhClShCljBClCBB7zhB7ShB7jBB7CBDOzhDOShDOjBDOCFJKEBApa5ycpZTv75Tva0Kl70Kla0KlrUKlKZTvrZTvKRAZQmvv72vva2vvrWvvKZTF75TFa0J770J7a0J7rUJ7KZTFrZTFKWvF72vFa2vFrWvFKZR775R7MWt772t7MULO70LOa0LOrZSczpScEGuczmucEJTvzpTvSkKlzkKlSkKljEKlCJTvjJTvCGvvzmvvSmvvjGvvCJTFzpTFSkJ7zkJ7SkJ7jEJ7CJTFjJTFCGvFzmvFSmvFjGvFCELOzkLOSkLOjMXm95Sc75ScMWuc72ucMRAAKf/m9xAAAP//9wAAAEx7LTsAAAEAdFJOU////////////////////////////////////////////////////////////////////////////////////////////////////////////////////////////////////////////////////////////////////////////////////////////////////////////////////////////////////////////////////////////////////////////////////////////////////////////////////////////////////////////////////wBT9wclAAAACXBIWXMAABcRAAAXEQHKJvM/AAAJs0lEQVR4Xs1dS5KjuhI1COYimKBJraGCbTiYdAReBRtgLC2kV+HVOTpawspUSoANNiDOu/ddFy6XT6UyT34kXJeP0TRFUZacS9l3XVUzoVRioVQrxLWuu66XkvOyTIumsS87AE1Rctn3Xc1apDSFzP77hLqyuury33tZ2J+zCxrNrWLsKuzbfgQlGKskT7c26kBOZC+ttg5ZJjrJy22IlryvvrLbK1y7nn+38oVe2N3oAVpWfUiz4L1w7r4zsna1NUtZrXQ8lbVKtIJpsWlFq1qlspW/YNvJ0r79WxSyXsLPqEivde8+KJ9GkRZF2pj/L9K/6XCJG9mUfT7opn3dC7S1XBBADWfz/JQSglW9DsWyKW43+5JluBml5zLvrkJb2f7AMVT9JsxTyey3BlCs1pmiTNfRmoFR/17bdYYoy+fdsph0QFUbs23CzUeT3mU//ZbdNMmiD787U6znZbEDOwKdFn7Gfpr1Y5KNDAiKuueHpf6G9/XVvrGFuNvnAGVtn3lC9PfP1PQLFH9y35jM0yDPhKLfKHeuRlP2lKVyhnx09pqGqkIDHwxORbm3Fy9kkfvFAr8fysrlpe55ydmwSp9XYqOsLKEk+TFf3+0XiZLD86eAtJySjGsXhWBvT7DGDhw8kunH9mFyKoYeL/BEDJ6zoLfEfi4gRCczojNjfbGumJ2OYvkklgi0oo6ccwGsyC5QILJ9C5rVuCGxC6qkFfKzABNKRXNLpOJhCoWj1V1y+0jDr35igpP+JHepRiOrDq8Sp5CSOiJJpFPxAVm3R5eyBk3Z+Q04v6T2EaKWEeudVPrlv0ZxKcKmyrQtMsqCl7Ie9VmJ0kE8om2QMfnlyGolCp5P99W1fhLDO/yOtsr/pI/nT9gTN9P4h2+uwCFNeQMhLUqoLQiurMt5sZtgNqkZS4xXVzcocNHU2WX7fKwLiXR6Hta2ZiCRbsj0NkzMu2uLxqJou/TC7RNqiF2QyUo/bvJJ1xwwTJwkN+N/87KP0BSp2WKoamuXCbBhEAF5+Tq8DNa3HeKj4d38yw3aK6vrSrO9czOwa97o6E2vpjbZXeZVVdfsOmk3hOr54P2oM89K+6/9alh2g4JXr1laZKpVrWjFlbG6GqaNfZ/bfzpNqKoZE/r5pfPQtkYVwZxnL8BKi+eXBg2vSJo8AqwiI6QCgsVIjgFS9rrUm/bnyejZHqqS/ogLG2cYjTTAmYVxUJRmv8U+uwuUqORoRwsJCSSEgjjZ7Be8WzSpXgvB6p5P1gO4rLm9oEmAoVT4+wBuWiv6im1kUKXJyfts5kqRDllVNKPRxnk8tyhrHaAfOWmmlOjMVDqds8QT2KvQ3t6VO0sawSE3DFY1qmJ2eWc0RWWtEGzQ0U7L6BtmAKxgWy80sD146vdyPG5FmpoNlrv8zWUv81/zP/MfyT/biS5Qk/3IaFAFXy/1FDYuhjADh/ri+oPIwx1Xbo18Dn3UTPTi4ZWpGoyYmIPGEllQwQE4/mxlyGyH1G2+TK6l84JYHAtXuri8QuGiOqmjNNOUgL0UArO3/paVYrYFbq7gF7PL6Jw1gh0bx/DZsEzDhUx2tB2JDbFKnAQZQh1rRxIp0yWhgwvrQ+OaMnyb3tzsMbkeNn8qyWb0gmkx4SgOyoU4etBYMs9+uD3CgzjeSYHcLaubiB2zN667BSSphxfvCZCYSbqdA7shBllTCBLtyepdA5sI9lu18UHdg+04ZKShvI6hzjOEY7tb0HAyO1ofmlQI1v5+C3Ej/pSID0SYCn7S75CxbzRQPktlBRHIZPugKWigfLy5R8XnunFHw2mgfNF1UlXdtjO8k59MTjV9AFLk6t91MxX/RzZHvxaM1POYjRzSc8PvvdyPuy0c8pFSreg20IoHXZQtSh/uK+4mqcvLNF+ruCQZRW0WgiVdmekmfDGokG3ZejRUxb85Q+H/oE3TgVfVfc7RL722Tqr0LOunC0TF5ju9ngYNxM84krlXInaZEFI5+6R/pUG3V49OyzO2+kQ6Zbhfs0HjcW0JSld515aNBPY6S1CGcr9eyIDU8mv8acVU6XsQjsv1kerh7gx9jvbSO9Dj95sWxnPA/ezF+Zrk5UMYXi5/7NtpLHpHMvs9YJWfcGu9RHpSV30dxpCu3PuROAmVAxmSHcNEvpNh9+ssnB1uhH9O597UA3A8W+vozmPAEO4cAHtpG7fd5E6LHAU4d/ZGebA3i3H8Ht989liKRorGPjRUABipLyYyGCtxNj4xELJZM7pYOWwLxweaaDZXY27+YvT1FfCeqKlDAgZ4bGl0GO0wYCKcMRKaOUqsDMBt+GkrFWDl19K5L9CMkxUPVjjxjKjNCLI3tdI3SOTkdGkEgLddJ3QH+X85qPoSKHwT6Q3Xufhnr0TBAwJmwt0gQ8Y4rUIBK83s1wRQ48QMFgNYzbF6oytGvuEaT2Bno+3W0qaW4+vEEFDvjGwF9p1wgYMBFEceB166/ljp1oC4HTEB4Y5V5DhA3z86KwfmPWj+8ALQw8xRjHvudQAE7igqrKi/OkV3EKCBCilC3jnBjddQWauqq6qeYxcFtaQ64ia41/iLbegATMhoxRMsNPQnFqiPYMUithUfrpl/4mrNCAt9Il9EWIpwI3v8iH6Et93C/At9cdXexy4AXQSAUp8oon1fVNinnFAXRf6b9+S+arDi2nt8tgf64ii72Byt4lsRfDGczjlftBfiAXN00Ime0BfDuc0ZfTHookC6T5CjsV4MrWjHYvFz9Pt68TyVjpDc3CVvr5KIPoEvWooWuN8GFM+Qo70ESHK09cX4ER3kaBfZaMXzVd2JXWmw4vydXoch6F2SK1C0VjzDQgdWhPETbBfM7ckch4e7nXkAHo09oRWV+WCL3k1HYPAoggooAoBKmF1gr9y/mz0KoIyog1QM50ribroMaCyVsNIB657Aikgx8Dn4mJ4TWPFmrQVTCABknTZ+uNzAir64PCB3n8CKF6AS6N/saDQCrBXDDyGAPY25+8WPBJSuAUXYqj4DxZmdAaAYf9tldm8IKMbfdnEHXQKKsHkVex/V4MdyCcx1JoqwosF9w2Dc+DtD7vRvMHeCLcAzUMRNXU+7oaKNdVjMA57g8Mhgex2/6NZkLBf/kMm0bSMBhjd+7ALFMyj3zN44aM4ZlNupjlfTTJo2GkB16IAJouUEw3gD/CRCcjYMTxjF71wGQCGR/ZrPPjN/eaYHyTlHtHh3l5g/G9YCP43YJ50QtvAe4wyNyxMQ0yOcxoj+raYEZ2gKAHiw18Mpkh/Cu6XfYt/PZ1mPJvxbT+ztvTrH41FK+wflRNXfN8sql8t/M+i2hiTy6zAAAAAASUVORK5CYII=;" vertex="1" parent="1">
                    <mxGeometry x="380" y="330.99" width="90.11" height="99.01" as="geometry"/>
                </mxCell>
                <mxCell id="7" value="" style="html=1;shadow=0;dashed=0;align=center;verticalAlign=middle;shape=mxgraph.arrows2.jumpInArrow;dy=9.6;dx=26.31;arrowHead=33.4;strokeColor=none;fillColor=#FF9900;rotation=35;opacity=50;" vertex="1" parent="1">
                    <mxGeometry x="213.11" y="229.88" width="188.75" height="147.91" as="geometry"/>
                </mxCell>
                <mxCell id="8" value="" style="html=1;shadow=0;dashed=0;align=center;verticalAlign=middle;shape=mxgraph.arrows2.jumpInArrow;dy=9.6;dx=26.31;arrowHead=33.4;strokeColor=none;fillColor=#FF9900;rotation=-30;flipH=0;flipV=1;opacity=50;" vertex="1" parent="1">
                    <mxGeometry x="443.43" y="378.77" width="140.61" height="147.31" as="geometry"/>
                </mxCell>
                <mxCell id="9" value="" style="shape=image;verticalLabelPosition=bottom;labelBackgroundColor=default;verticalAlign=top;aspect=fixed;imageAspect=0;image=data:image/png,iVBORw0KGgoAAAANSUhEUgAAAX8AAACuCAYAAADeUQ1ZAAAAAXNSR0IArs4c6QAAAARnQU1BAACxjwv8YQUAAAAJcEhZcwAAFxEAABcRAcom8z8AAB5eSURBVHhe7Z0JlBTF4cZVghgOEUEOF0KyBAUEJXIIhF1ABDSQcGhMDB4QHwoJQl4OH3kiJggqvMDTxIBojCgxREWehsACQUA8cEWFACob5DLkD4ggyCGwxPr3V9s19M7WzNbsdNdOd3+/9z5m2a3p7unj1z3V1VVnEUIIiSGnT58eyTC5lC+//HL0qVOnuru7KCEkCAQhOYhzAnjU3UUJIUHgHmuE5BSO/Ge5uyghJAjcY806zsHt/hQf8Jnj+LmrAq/8CQkY91gjJKeg/AkJGPdYCxTv1e6JEyfEBx98INasWSMWL14ss2TJklhEfda3335bHD161F0j8fwWVBmUPyEB4x5rgfC///1PlJaWyp8huBdeeEHceOONolGjRuLss88W55xzTuyCVX7eeeeJoUOHis2bN8t1c/r0abmuyBkof0ICxj3WfAeyh9TAgQMHxC9+8Qvxla98RcqPKUv79u3Fhg0b5DqC/PkN4AyUPyEB4x5rvqNEduzYMTFmzJhy0sNVP+L9XZzi/ezdunUT27dvl+tKnQB4EqD8CQkc91gLjMcee4xX/JVk4MCBYt++fXJ9oZqMVUCUPyGB4x5rgbBnzx5RWFioFR5TPiNGjBCHDx+W603JP87fACh/QgLGPdYCYeHChaJWrVpa2Z177rni4osvFnl5efI1isFnq1evnvy8uNlbWVXXuHHjZDUZgPhxzySuJwDKn5CAcY+1QPj973+vlVz9+vXFpEmTxIoVK2T++c9/RjKvvPKK+Mtf/iI6d+6sXQ/JQfXYxIkTZXNYEOfqH8qfkIBxj7VAmD59ulZyffv2Ffv373dLRZ+5c+eK2rVra9dFctAM9IEHHoh9vT/lT0jAuMdaIEybNk0ruEGDBsVK/kVFRaJx48badaELThT41hRnKH9CAsY91gIh1ZX/d77znUTrljjwj3/8Q1x00UXadZEqdevWFXPmzHGnED8of0ICxj3WAoHyL8NE/rqbwXXq1JH3DOII5U9IwLjHWiBQ/mUky1895IaWUAMGDEh7PwBdYSxfvtydUnyg/AkJGPdYCwTKv4xUV/64skeLoF/+8peJ36kTg7dc27ZtxVtvvSWn5UhRvkYdyp+QgHGPtUCg/MtIJX9c+RcXF4sjR46I66+/vsLfEXUi6NSpU6IfoDhA+Ztx4sSJds66utpJQZgzderUAufjMAFm7NixBadOnUqsc8rfAunkv3r1allm7969sgoouYw3vXv3FiUlJbJ81HF2TsrfAGc9zXNyxFllh8KcadOmHXI+DhNgfvrTnx46ffp0Yp1T/hZIJ/9XX33VLSVkB2+9evVK/F11Ae3N4MGDxe7du2V556CXr1GE8jfDWU8vu6ss1MycObPCvs74G/Qg4IXyt4CJ/JXIMdANevrE33XyR26++WbxySefyPJRhfI3w1lPL7qrLNSkcgXjX5wr/3IPj1L+FjCVv9ow77zzjujYsWO5ssl9A91xxx3lRgOLGpS/GZQ/Yxqr8n/ooYe0C0H5lyW52sfLa6+9Jtq0aSPLQfy6bwHjx48XJ0+elOWj1h0E5W9GVOQ/efLkCvs342+syv/BBx/ULgTlXxbIH2MZpwLNQFu0aFHhfd5vAL/61a8SJ4AoQfmbERX542HGa665Rnb9wmSeIUOGyPuF6BvM2S20ofyrgXTyX7t2rVtKz7Jly0R+fn6F96rUqFFDfsNSODJwfwo3lL8ZUZH/qVOnxPHjx8UXX3zBVCEYBOq9997TXiyqUP7VQCr516xZU8yYMUNe4S9evLhC0CEcvhnceuutFd6LqG8AGDNg1qxZcsNS/vEiKvIn2fP++++Lli1bVvCECuVfDaSSP+R9wQUXiCZNmsi/69KsWTP5d29VjzfqXgCm89JLL7lzDD+UvxmUP1H861//El/72tcqOEKF8q8GUsk/k6SSv/f3PXv2lENnRgHK3wzKnygo/xxk0aJFsoM23brwMxgJbOXKle5cww3lbwblTxSUfw6C5pyovtGtCz+Dewg40UQByt+MXJE/+qd6/fXXxdKlSxPDszL+BQ0/Vq1alRjjWwfln4McPHhQDB06VLsu/AwGxUcVUxSg/M3IFflv27ZNdOjQQe6HuAhh/A2qd5s3by4+/vhjd41XhPLPMZyDU75u2bJF/PCHP5TfAJo2bSpfM01eXp5o2LChdp0ilH/8yBX579ixQ3Y97iwSE1DQ8IPyDxGQvzoB4Kvx5s2bZXtcdM+cadCUC0/+Yv2pdem94Uv5x49ckn/79u0T+yLjfy6++GLKP+6gSaf6BkD5xxvKPz6h/Il48803RatWrSqsV8o/fuSK/D/66KO0Dxgx2YfyJ7JVBeVPQK7IH8fzxIkTxe233y5GjRrFZBj00nvnnXeK1q1bVziuVSj/mOAc1O5PFaH8iSJX5E/84ZZbbqlwXKtEXv7ppBcnsJFSrQvKnygo/2hB+TugbTw6PHv++efFiy++GIssWLBAih299IHTp09rTwCUP1FQ/tECo/Q5m1WbWFT7QPooc+GFF8ryajCTqActd7CB0YsnmnUCyp+kg/KPFpGR/9SpU7ULoZO/ktz69evF17/+de374pQ+ffqIvXv3ynWSDOVPFJR/tIi1/EeOHCnL4CrY24Y9bsEgLejrXwflTxR+yh9NiP/0pz+JZ599lgkg8+bNS3yjT0Us5Q8wHGGXLl1kGfRQGWf5I7j5o4PyJwo/5T927Fh53GEoQMb/YOS+2bNnu2tbT2Tkf//992sXIpX8cYMT1R0oo+rAk98bp4wePdpdM+Wh/InCT/mjrbkzSSbAYMS9dMRW/gBnRt174pYGDRqI5cuXu2ulPJQ/Ufgp/zFjxlTYpxh/89hjj7lrW0+s5X/06FH5xBu+JuneG4dgSEbvoOzJUP5EQfmHK5R/Cvk7O7J8/fzzz8X8+fPF8OHDRY8ePcS3v/3tyAefE8Mw4vH4JUuWyNH41fpIhvInCj/lf9ttt1XYpxh/Q/mnufJHvb8CP+OBpzjFK3w+5EUqw0/5P/HEE3LMCdT9M5kH9+j69+8vW+o5m0abnJe/t0A2VEX+QCe8uIF1kGo9UP5E4af8SfZgGMvatWtXODZVQnHlj2oHtEnFhykqKpKvukA2a9askQOVJFNV+ZP0UP5EQfnnFuim5atf/WqFY1Mlp+SffJV/+PBh+TAC6v8uvfRS7USSg+HbSkpK3CmUgen+5je/0Zan/LOD8icKyj+3CJX8vfXKa9euFUOGDJES0b05VTCCDwZz8IKZ3HvvvdrylH92UP5EQfnnFqGSvxI/pKETikkuv/xyyt8ilD9RUP65Rajkj382bdok2rVrp32DSSh/u1D+ROGVP8bRffjhh8X06dNlv1CMv8GzN0899ZR8FikVoZL/iRMnZNtyXWHTUP52ofyJwiv/VatWyQcEnV8nOkZk/AvWa4cOHVL2tgtCJf/i4uLEDqOL+tDpQvnbhfInCq/8V69enfZYZrIPXPfJJ5+4a7wioZI/vs7oCiIQf7oHFlQuueQSsXXrVneSZVD+wUH5E4VX/q+++mpiACQmmHzrW9+Kjvyvu+46bcHkNGvWTFx55ZWiX79+YsCAATJ4mq13795ixIgRYvfu3e4ky6D8g4PyJwrK324iJf+8vDxtQW+GDh0qUD2EZwBwswMPdKmgHx78zjtRQPkHB+VPFJS/3URK/hi8QVdQBVf4+/fvd4ubQ/kHB+VPFJS/3URK/ulu6GJAlUWLFsmCzk4mX02pqvwznU8cofyJgvK3m0jJH4LXFUTOP/98+QwAsCV/b6+eu3btEhs3bpTBckQ56jPu2bPH/fRl61C33il/oqD87SY28sf9gA8//FAWtCF/NQ/ME+OJXnXVVbJpVRyC9sN4Rb/+kyZNSqwfyp+kg/K3m9jIv3nz5gn5Z0qm8leS27Ztm+jWrZv2fXEKdgLcTNdB+RMF5W83lL8BVbnyBxMmTNC+J26ByOfOneuulfJQ/kRB+dsN5W8AZjJx4kTtdFPJ/+TJk4mr/nTLFZeg2w0dmchffaMKG5S/GZS/3VD+BkA6qLvWTTed/AsKCmQZPFls0rVElIOB7HVkIn9s7OQTAP6faojIXMFZNsrfAGc9Uf4WQ/kbUpWRvKZMmaJ9T9yCoeD+9re/uWulPKbyh9yRzz77TDz44INizpw5sgWVgvIPP5S/3VD+hmQif7VQ6DFv8ODB2vfFJXjwbvz48QI9rurIRP4AO0zjxo1lGQy8c99995XbgXPxJED5m0H52w3lb0gm8vcKCG3d8Q3gmmuukX0HXX311bEIPuu1114rd5B0fYZnesMX/S61bt26XFk8uY3nCoCuaqi6ofzNoPzthvI3pCrVPt6FO3bsmDh06JDsUygOwWf94osv3E+fmmzkj/so6l4K7q+o3lgp/3BC+dsN5W9IVeQPck1E1UG6deCX/JGRI0eKU6dOuSVzB8rfDMrfbih/Q6oqf5IeP6p9VCAL3XuqGxvyv++++87p1atX3eQMGjSotvPns8tK5TaUv91Q/oZQ/sHgp/yRcePG5dy3LRvy79Onz2W9e/feizjSl3F+t7egoGAdTgJusZyG8rebWMrf+yZTKP9g8Fv+2B6ffvqpWzo3sCF/R/Ad+/btKxB10x2NDAoLC/+vR48e9dxiOQ3lbzeUvyGUfzD4Lf/OnTtXGIO5urF05X+FE4GgpZVqWeZc+e+g/BldKH9DKP9g8Fv+6E00m+q9IKD8zaD87YbyNyTV07qUf3b4Lf8rrrhClJSUuKVzA8rfDMrfbih/Q6ZOnaqdLuWfHZS/P1D+TKah/A2h/IOB8vcHyj91atasKRo2bCgaNWoUmqALE4w+GGSHkJS/IZR/MFD+/kD5p0737t3Fm2++KTZv3iw2bNgQinzwwQfi8ccfl50i6j6TH6H8DaH8g4Hy9wfKP3Wuu+66nHzyuzKwDurWrav9TH6E8jfkgQce0E6X8s8Oyt8fKP/Uofz1ofwNQR/yuulS/tmxZs0a0aJFC+26/fvf/+6WOgPlr4fyT52ePXvKqhQ8/4F9IwzZuXOnePrpp0WdOnW0n8mPUP6GVEX+zs7s/mQGRqTCFUqm7wszqIvt1KmTvCGXl5cn06RJE/m6bNkyt9QZKH89lH/q4Ftks2bN5D4F6YQh8BWOCd7w1b8/FFf+kPmiRYvE6NGjxbBhwypkyJAhchpDhw4VM2fOlOJSwxLG4SSArp9xVVZcXCzWrVsn8/bbb8scPHjQLXUGyl9Pr1692qeSv3NyReduOU9Q8mf0ofwNqYr8MY4vRrE677zztO9V6dChg7yzv2PHDtkHPpYPiYP8M4Xy10P5M5mG8jekKvJ/8sknRbplQu666660GyDq4ASnokj+v5c4yN8R+ZS+ffu+4Lw+b5hnHdkvU9JXwYnA+dtRJwud/8/3lE8bd943uYtjDWc9Uf4WQ/kbkqn8Ud2DHhZRJnnQEQRj295zzz3y2wExBzvrpZdeWm5deoMdevv27W7p3CBT+RcWFm7C0JToldM02NeS5Y/gBKArny6Yt7MMM93FsQblbzeUvyGZyh/VN7iRiTK65brzzjsT4ld1/MnLhbFvMQg8rnaZ3XJdrF+/XuTn51dYnyrt2rUTb7zxhtwmumkEHYzZfPz4cXcLluFs10yv/N9MJXMbwbydZZjqLo41KH+7ofwNyVT+kPmIESNkmeQrfzxx6P3gWJ7S0lL3f0Js2bJF9iJ60003iYEDB4r+/fszTtBe25FS2h0S7aILCgrkdtFNI+hgGYcPHy7+8Ic/JA4syt8Myt9uKH9DMpG/mj5arKCJmbc8lnHevHny7wpVHt8AnnrqKblRvO9hwhdU691www1i//79Vanzf7dfv37yhm0m0Ykc0ZVNF8zbWYZp7uJYg/K3G8rfkKrIHyxYsEBeraKjpho1asj6VAgB4NuBKovXhx56KO3KjnuCbPPsV7APepdz0qRJqL7LVP4vO1ffu51X03zsZJ9O/E5Knb/913n9j6d82jgngP86rxPcxbEG5W83lL8hVan2QQCGFcQDS3hiD3XWAMuAqDJo41+rVi3tPJjwBoPLOCf1jOTfrVu3C7t06dL0qquuamKSnj17NigsLOyja+rp/H5Xjx49Wjkyb6R7ry4FBQXNunbter67ONag/O0mNvLH03225e+VuxdU7yBqOVA9hOXTTZ8Jd3APIj8/PyP5VwVH9O1SyH/7tddeW8stltNQ/nYTG/mj7h3dpFaVTOUPIH4VRfLvPvvsM/G9731PO20m/EHXAg0aNAhc/o702b0Dk1Eof0OqIn8T5s+fr50uE41ccsklaNZL+RsQlPwvuugieYGFG/C6LlZsBfMfPHiwaNq0qXY5bYfyN8Qv+eOKXy002vE7X8m102WiEUhn48aNlL8BQckfTVfxjAievTly5Ei1BfNHY49BgwZpl9N2KH9D/JI/Fhj1/eCll14S9erV006XCX+wP/7xj3/ECZ/yNyAo+ePZixMnTrhTrl7w5P/111+vXU7bofwN8fPKH3z++efyq6Bumkw00rZtW9kzKeVvRpDyz5XBXHD8U/4xl//LL78c6EANTPXE28Yf+wxwdlLK34Cg5I8uP2bPni0frsRDlNWVZ555RjzxxBPiyiuv1C6n7VD+hvglf4CrfvTfr5seE+4o+ePAwshRoLS0lPI3ICj5Y5vgieuaNWvmRHLlYUXK35Bs5e9d0KKiIj7QFeHgSe6HH37Y3dq88jclKPkz+lD+hvglf9x4QpMv3bSYaMQRruzdU+FIjfI3gPK3G8rfkGzl7+zY8nXJkiWifv362mkx4Q+qF/785z/Lba2g/M2g/O2G8jckG/kr8aOf91tuuUU7HSbcUfW46BEz+YCi/M2g/O2G8jfEjxu+S5cu5VV/hIP7OM8995zc1uqED2zIv1evXh0he0SdBPBwU2Fh4ceUP6ML5W9ItvLHE34YnEU3DSYawcA76KsJ2Ja/e+X/JeJc9cs4J4Iv0bEb5c/oQvkbMm3aNO10U8kfBz8WTklgxYoVvOqPcPDMBp7Y1mFD/ujW2bn6vxlxxD8cccR/q5NhnTp1qukWy2kof7uh/A2ZPn26drrprvyV+NHCJ92KYMIfPLeRqgsBG/KPApS/3VD+hlRF/mrhli9fLnsW1L2fCW/U/oarftzPSQXlbwblbzeUvyFVvfJHT35qIHcmWlH7G1pwoSWX2ubJUP5mUP52Q/kbkon8IQAlAdT1cyeObho0aCBWrlwpt7VO/IDyN4PytxvK3xBT+UMAaqFQB3zrrbdq38dEIz/5yU8SXXRT/tkRlPzbtGkjj99HH31UPPLII9UWzH/GjBlyXGfdctoO5W+IqfyxQEoGq1atEhdccIH2fUz407JlSzn+MkglfkD5mxGU/HOpS2e4gV06R0T+2LEwSpACEkCwYN6neXOlJz/Gv9x9991ppa+g/M0IUv6495YLcDCXskRG/p9++qlb6gyvv/66aNSokfY9TPiTn58vNm3a5G7t9FD+ZgQlf3S5gYfvcKKGfKsrmD+6c8c4vrrltB3K35BU8v/1r39d4eoPG/rHP/6xtjwTjUyePFlua2x7706owylD+RvgrKdA5I8B03/0ox/JVnf4Nl5dwfwhxBYtWmiX03Yof0O88ldVOK1atRIffvih/Lt3Qd544w1x/vnnJ8oz0UrHjh1FSUmJ3NbY7kjyBYAXyt+MoOTP6EP5G6KT/8SJE+XfcOCrm7x4vf322xNlmWgFXTZjX8gEyt8Myt9uKH9Dkqt9vvGNbySu+iF8tSBo/aHq+nmTN3rB+KvpdlodlL8ZlL/dREr+6WTrt/zvuece9y9lV/7qddy4cYkylH/0onZ4bGu13SvDKUf5G+CsJ8rfYiIl/+QC3vgp/1QtPYqLi0Xz5s3LzZeJTjBAimrW693xKoPyN4PytxvK3xDVpTOu5n/2s5+5vz0jAbTwwe+T58tEIxioZe7cuXJb44ofMYXyN4Pyt5tclv/69evTdoY5atQoe/LHo9mYDpqNbdiwQf4OM1cLgKt+/C15vkw0MmDAgMRALZlC+ZtB+dtNLssf91NxzOEeW9euXRPp0qWLXO4pU6YkGtkAZ5r6GSHZyn/ZsmWy+Sb6clHCVzPHVT/r+qMbdNm8cOFCua2rAuVvBuVvN7ks/9LSUnmxdfDgQfnqzYEDB8TRo0fLfft2pqmfEZKt/I8dOybmzJkjv44k8+6777KuP2LBCVy1Hhs0aFBioBbvDmcK5W8G5W83uSz/THGmqZ8Rkq38vXgFgJ9R18+r/Wjm3HPPFYsXL3a3dtWg/M2g/O2G8jcEVT0QvXpFwNq1a3PmcW3G/6BbgGw7BaP8zaD87YbyzwAlfW/Ywie6adiwoXjttdfcrV91nP2E8jfAWU+ByB9PZaNrdQy8E5Zg36tbt26gNQqUfxa88847Ii8vTzs/JvxB53y4qY+TfDZQ/mYEJf9u3bqJNWvWyHtz69atC0XQonD27Nmidu3a2s/kRyj/DFEiwOv48eO182LCG3WlhTbGOAjVts4Gyt+MoOSPAZfQeiRs4IRVr1497WfyI5R/FcETaPgAunkx4c/YsWPLtSPOBsrfjKDkn0sjeWUC5I+qH91n8iOUfxX5+c9/rp0PE/6gq26c3P2C8jcjKPn36NFDdriIB4fef//9UGTr1q3iySefZLWPIc409TNCspW/s2O6PwmxceNGOX6rbj5M+IKqHlXdg9cJEya4W9ofKH8zgpJ/zZo15bTQ225Y0rhxY/lQaVRv+MLHoZG/96le9OipmwcT/rRt21ZeeQHvCT8bKH8zgpI/o0/Q8r/xxhu170OwbXft2uWWzB5nmvoZIX5d+aM3T9XbXJBnZcZ+sD2nTp0qt7OfUP5mUP52E7T8f/e738n7LcOGDSuX7373u+K2225LO+9McZZHv5CIX3X+GL1LN30m/Ln88st9vRpRUP5mUP52E7T80f/OoUOH5KD13hw+fFhG1ab4gbM8+oVE/JD/li1bROvWrbXTZ8KfWbNmuVvaXyh/Myh/uwla/jZxlke/kIgf8sdVP6t6ohNsy3Pcztt69uwp9u3b525pf6H8zaD87YbyNwQ3Adu0aaOdNhPOQP5IjRo1xDPPPCO3syMg+eonlL8ZlL/dUP4GoG7q/vvv106XCW/UtzgMz3jkyBG5rf16sMsL5W8G5W83lH8a1FVgSUkJ6/ojGnTZvGDBArmdg4LyN4PytxvK34Df/va3rOuPaAYOHCgH6gkSyt8Myt9uKP9KwCPhrOuPZurXry+WLFnibungoPzNoPzthvKvhHvvvVc7PSb8+cEPfiCOHz8uq/f8bHOcDOVvBuVvN7GRf9OmTTN+bB8ni8suu0w7PSbcgViKiorkdlajswUF5W8G5W83sZF/kyZNMpI/ykyZMkU7LSa8Ufdu0OmU6uY3SPEDyt8Myt9uKpP/X//6V+37VB555BG3ZPXjLI9+IRH0i43eOE356KOPeNUf0aDXRPSVbgvK3wzK324qk39xcbEYM2aMuOOOO8To0aPLZdSoUeKVV15xS1Y/zufRf0gET3LOnz/fLVo5kydPTjz9yUQrd911l7zqD/qKX0H5m0H5201l8sfxkS5B3ifLFOfz6D+kSteuXcXOnTvd4qnZvn277NpXNw0mnMFTvHjNz8+XA3sAWzuvc6BQ/gY464nyt5jK5B8mzkK9vu5DelNYWCgWL14s9u7dK3uWQ69zKvg/eqKbNGlSQhZMNIK6fnyTu/vuu+XOgisXW1D+ZlD+dhMp+ffr18/oYaw6deqI7t27y8EGvv/97yeC/99www2iefPm2vcx4c43v/nNxE1/m19ZKX8zKH+7iZT8p02bpv2QDIPgmY3qgPI3g/K3m0jJ/6233pLjXuo+KBPvdO7cWezYscPdVexC+ZtB+dtNpOSPFhxogqT7oEz8oqoA0Y3Dc889J3cSRzDy1SaUvxmUv91ESv74Z/PmzWypwySC5ztmzJghu2qG+KujeRrlbwblbzeRkj8ObrBixYpynbGh5Q575Yxf0J/T448/Xu5JXrWP2ITyN4Pyt5tIyh+89957suMuPqgVz/Tv31+sXLnS3Rvstu5JhvI3g/K3m8hV+wB1EkCPjRioA/cBWrZsKTspql27tnxNDn7PhDfYhg0bNhTDhg0TTz/9tDhw4IDcB4Cq8qkuKH8znPW01F1l8uIN29P5NRNQ0Aji5MmT7hoPNwn56ygtLZVnua1bt8qRuf7973+XC36/bdu2UAVPKzM7ZSuePXv2yJN9jjLXOdhIJTjyn+ikCFm9enWRc+Vf5PyaCSgdO3Yscpwo13fYg51nDMPkYAqcg40QQgghhBBCCCGEEEIIIYQQQgghhBBCCCGEEEIIIYQQQgghJGqcddb/A6bo9puJvbDUAAAAAElFTkSuQmCC;" vertex="1" parent="1">
                    <mxGeometry x="569.73" y="306" width="294.95" height="134" as="geometry"/>
                </mxCell>
                <mxCell id="12" value="" style="rounded=0;whiteSpace=wrap;html=1;strokeColor=#6E6259;fillColor=#FF9900;opacity=20;" vertex="1" parent="1">
                    <mxGeometry y="295.5" width="340" height="154.5" as="geometry"/>
                </mxCell>
                <mxCell id="13" value="&lt;b&gt;Filter&lt;/b&gt;" style="text;strokeColor=none;align=center;fillColor=none;html=1;verticalAlign=middle;whiteSpace=wrap;rounded=0;opacity=20;" vertex="1" parent="1">
                    <mxGeometry x="395" y="351.5" width="60" height="30" as="geometry"/>
                </mxCell>
                <mxCell id="14" value="Shareable data package zip archive" style="text;strokeColor=none;align=center;fillColor=#FF9900;html=1;verticalAlign=middle;whiteSpace=wrap;rounded=0;fontSize=28;opacity=50;fontColor=#663300;fontStyle=1" vertex="1" parent="1">
                    <mxGeometry x="563.6" y="190" width="300" height="70" as="geometry"/>
                </mxCell>
                <mxCell id="15" value="Local data package" style="text;strokeColor=none;align=center;fillColor=#FF9900;html=1;verticalAlign=middle;whiteSpace=wrap;rounded=0;fontSize=28;opacity=50;fontColor=#663300;fontStyle=1" vertex="1" parent="1">
                    <mxGeometry x="10" y="460" width="300" height="60" as="geometry"/>
                </mxCell>
                <mxCell id="16" value="Only files you've indicated you will share" style="text;strokeColor=none;align=center;fillColor=none;html=1;verticalAlign=middle;whiteSpace=wrap;rounded=0;opacity=50;fontStyle=1" vertex="1" parent="1">
                    <mxGeometry x="603.6" y="460" width="260" height="30" as="geometry"/>
                </mxCell>
            </root>
        </mxGraphModel>
    </diagram>
</mxfile>